<?xml version="1.0" encoding="utf-8"?>
<!-- Generator: Adobe Illustrator 16.0.0, SVG Export Plug-In . SVG Version: 6.00 Build 0)  -->
<!DOCTYPE svg PUBLIC "-//W3C//DTD SVG 1.1//EN" "http://www.w3.org/Graphics/SVG/1.1/DTD/svg11.dtd">
<svg version="1.1" id="Layer_1" xmlns="http://www.w3.org/2000/svg" xmlns:xlink="http://www.w3.org/1999/xlink" x="0px" y="0px"
	 width="324.505px" height="101.333px" viewBox="0 0 324.505 101.333" enable-background="new 0 0 324.505 101.333"
	 xml:space="preserve">
<g>
</g>
<g>
	<g>
		<rect x="18.098" y="25.222" fill="#6B6B6B" width="16.437" height="12.104"/>
		<polygon fill="#6B6B6B" points="42.028,39.391 34.486,31.851 42.028,24.308 		"/>
	</g>
</g>
<g>
	<path fill="#6B6B6B" d="M175.403,24.522c-0.869,0.387-1.803,0.646-2.783,0.764c1.002-0.6,1.768-1.551,2.131-2.682
		c-0.938,0.555-1.975,0.961-3.078,1.176c-0.883-0.941-2.143-1.529-3.537-1.529c-2.676,0-4.846,2.17-4.846,4.846
		c0,0.381,0.043,0.75,0.125,1.105c-4.027-0.201-7.598-2.131-9.99-5.064c-0.416,0.717-0.654,1.547-0.654,2.436
		c0,1.684,0.854,3.166,2.156,4.035c-0.795-0.025-1.543-0.244-2.195-0.605c0,0.02,0,0.039,0,0.061c0,2.348,1.67,4.307,3.887,4.752
		c-0.406,0.111-0.834,0.17-1.277,0.17c-0.312,0-0.615-0.031-0.912-0.086c0.617,1.924,2.408,3.326,4.529,3.363
		c-1.66,1.301-3.75,2.076-6.021,2.076c-0.391,0-0.775-0.023-1.154-0.068c2.145,1.375,4.691,2.178,7.428,2.178
		c8.914,0,13.789-7.385,13.789-13.789c0-0.211-0.006-0.42-0.014-0.627C173.932,26.349,174.754,25.495,175.403,24.522z"/>
</g>
<g>
	<path fill="#6B6B6B" d="M224.686,24.301c0,0.619,0,3.395,0,3.395h-2.451v4.146h2.451v12.33h5.031v-12.33h3.379
		c0,0,0.316-1.99,0.469-4.164c-0.439,0-3.826,0-3.826,0s0-2.414,0-2.836c0-0.424,0.547-0.994,1.09-0.994c0.541,0,1.684,0,2.742,0
		c0-0.566,0-2.518,0-4.32c-1.412,0-3.021,0-3.73,0C224.559,19.527,224.686,23.68,224.686,24.301z"/>
</g>
<g>
	<polygon fill="#6B6B6B" points="84.559,42.847 91.461,35.163 100.038,35.163 106.944,42.792 	"/>
	<polygon fill="#6B6B6B" points="90.307,34.813 84.37,28.784 84.37,41.358 	"/>
	<polygon fill="#6B6B6B" points="100.979,34.585 107.165,29.036 107.165,41.358 	"/>
	<path fill="#6B6B6B" d="M90.93,33.167l-5.646-5.674l7.779-5.555c0,0,1.107-1.086,2.631-1.086c1.609,0,2.82,1.148,2.82,1.148
		l8.039,5.572l-6.428,5.578L90.93,33.167z"/>
</g>
<g>
	<polygon fill="#6B6B6B" points="306.596,25.431 302.301,25.431 302.301,21.136 301.227,21.136 301.227,25.431 296.934,25.431 
		296.934,26.503 301.227,26.503 301.227,30.798 302.301,30.798 302.301,26.503 306.596,26.503 	"/>
	<path fill="#6B6B6B" d="M292.229,33.47c-0.598-0.424-1.746-1.457-1.746-2.064c0-0.711,0.205-1.062,1.273-1.896
		c1.098-0.859,1.873-2.062,1.873-3.467c0-1.668-0.742-3.295-2.137-3.834h2.104l1.486-1.072h-6.639c-2.973,0-5.773,2.254-5.773,4.865
		c0,2.668,2.027,4.82,5.055,4.82c0.209,0,0.414-0.004,0.613-0.018c-0.195,0.375-0.334,0.799-0.334,1.238
		c0,0.742,0.396,1.342,0.9,1.834c-0.379,0-0.748,0.012-1.15,0.012c-3.684,0-6.52,2.346-6.52,4.779c0,2.398,3.109,3.896,6.793,3.896
		c4.201,0,6.523-2.385,6.523-4.781C294.551,35.86,293.983,34.71,292.229,33.47 M288.686,30.146
		c-1.711-0.051-3.336-1.912-3.631-4.158c-0.295-2.244,0.852-3.963,2.561-3.912s3.334,1.852,3.631,4.098
		C291.542,28.417,290.395,30.196,288.686,30.146 M288.016,41.503c-2.547,0-4.387-1.611-4.387-3.549c0-1.898,2.281-3.477,4.828-3.451
		c0.594,0.008,1.148,0.102,1.65,0.266c1.383,0.961,2.375,1.504,2.656,2.602c0.053,0.223,0.08,0.449,0.08,0.684
		C292.844,39.989,291.596,41.503,288.016,41.503"/>
</g>
<g>
	<g>
		<rect x="18.098" y="65.706" fill="#DF4A32" width="16.437" height="12.104"/>
		<polygon fill="#DF4A32" points="42.028,79.875 34.486,72.334 42.028,64.792 		"/>
	</g>
</g>
<g>
	<path fill="#6BACDF" d="M175.403,65.006c-0.869,0.387-1.803,0.646-2.783,0.764c1.002-0.6,1.768-1.551,2.131-2.682
		c-0.938,0.555-1.975,0.961-3.078,1.176c-0.883-0.941-2.143-1.529-3.537-1.529c-2.676,0-4.846,2.17-4.846,4.846
		c0,0.381,0.043,0.75,0.125,1.105c-4.027-0.201-7.598-2.131-9.99-5.064c-0.416,0.717-0.654,1.547-0.654,2.436
		c0,1.684,0.854,3.166,2.156,4.035c-0.795-0.025-1.543-0.244-2.195-0.605c0,0.02,0,0.039,0,0.061c0,2.348,1.67,4.307,3.887,4.752
		c-0.406,0.111-0.834,0.17-1.277,0.17c-0.312,0-0.615-0.031-0.912-0.086c0.617,1.924,2.408,3.326,4.529,3.363
		c-1.66,1.301-3.75,2.076-6.021,2.076c-0.391,0-0.775-0.023-1.154-0.068c2.145,1.375,4.691,2.178,7.428,2.178
		c8.914,0,13.789-7.385,13.789-13.789c0-0.211-0.006-0.42-0.014-0.627C173.932,66.833,174.754,65.979,175.403,65.006z"/>
</g>
<g>
	<path fill="#3E5192" d="M224.686,64.785c0,0.619,0,3.395,0,3.395h-2.451v4.146h2.451v12.33h5.031v-12.33h3.379
		c0,0,0.316-1.99,0.469-4.164c-0.439,0-3.826,0-3.826,0s0-2.414,0-2.836c0-0.424,0.547-0.994,1.09-0.994c0.541,0,1.684,0,2.742,0
		c0-0.566,0-2.518,0-4.32c-1.412,0-3.021,0-3.73,0C224.559,60.011,224.686,64.164,224.686,64.785z"/>
</g>
<g>
	<polygon fill="#94C01F" points="84.559,83.331 91.461,75.647 100.038,75.647 106.944,83.276 	"/>
	<polygon fill="#94C01F" points="90.307,75.297 84.37,69.268 84.37,81.842 	"/>
	<polygon fill="#94C01F" points="100.979,75.069 107.165,69.52 107.165,81.842 	"/>
	<path fill="#94C01F" d="M90.93,73.651l-5.646-5.674l7.779-5.555c0,0,1.107-1.086,2.631-1.086c1.609,0,2.82,1.148,2.82,1.148
		l8.039,5.572l-6.428,5.578L90.93,73.651z"/>
</g>
<g>
	<polygon fill="#DF4A32" points="306.596,65.915 302.301,65.915 302.301,61.62 301.227,61.62 301.227,65.915 296.934,65.915 
		296.934,66.987 301.227,66.987 301.227,71.282 302.301,71.282 302.301,66.987 306.596,66.987 	"/>
	<path fill="#DF4A32" d="M292.229,73.954c-0.598-0.424-1.746-1.457-1.746-2.064c0-0.711,0.205-1.062,1.273-1.896
		c1.098-0.859,1.873-2.062,1.873-3.467c0-1.668-0.742-3.295-2.137-3.834h2.104l1.486-1.072h-6.639c-2.973,0-5.773,2.254-5.773,4.865
		c0,2.668,2.027,4.82,5.055,4.82c0.209,0,0.414-0.004,0.613-0.018c-0.195,0.375-0.334,0.799-0.334,1.238
		c0,0.742,0.396,1.342,0.9,1.834c-0.379,0-0.748,0.012-1.15,0.012c-3.684,0-6.52,2.346-6.52,4.779c0,2.398,3.109,3.896,6.793,3.896
		c4.201,0,6.523-2.385,6.523-4.781C294.551,76.344,293.983,75.194,292.229,73.954 M288.686,70.629
		c-1.711-0.051-3.336-1.912-3.631-4.158c-0.295-2.244,0.852-3.963,2.561-3.912s3.334,1.852,3.631,4.098
		C291.542,68.901,290.395,70.68,288.686,70.629 M288.016,81.987c-2.547,0-4.387-1.611-4.387-3.549c0-1.898,2.281-3.477,4.828-3.451
		c0.594,0.008,1.148,0.102,1.65,0.266c1.383,0.961,2.375,1.504,2.656,2.602c0.053,0.223,0.08,0.449,0.08,0.684
		C292.844,80.473,291.596,81.987,288.016,81.987"/>
</g>
</svg>
