<?xml version="1.0" encoding="utf-8"?>
<!-- Generator: Adobe Illustrator 16.0.0, SVG Export Plug-In . SVG Version: 6.00 Build 0)  -->
<!DOCTYPE svg PUBLIC "-//W3C//DTD SVG 1.1//EN" "http://www.w3.org/Graphics/SVG/1.1/DTD/svg11.dtd">
<svg version="1.1" id="Layer_1" xmlns="http://www.w3.org/2000/svg" xmlns:xlink="http://www.w3.org/1999/xlink" x="0px" y="0px"
	 width="370.083px" height="84.583px" viewBox="0 0 370.083 84.583" enable-background="new 0 0 370.083 84.583"
	 xml:space="preserve">
<g id="Base">
</g>
<g>
	<path fill="none" stroke="#FFFFFF" stroke-width="2" d="M313.103,24.373v34.305h23.044c0,0,0-30.104,0-34.342
		c0,0-3.818-3.133-11.438-3.133C317.089,21.203,313.103,24.373,313.103,24.373z"/>
	<line fill="none" stroke="#FFFFFF" x1="313.103" y1="36.93" x2="336.147" y2="36.93"/>
	<path fill="none" stroke="#FFFFFF" d="M313.103,45.521c0,0,5.476,2.443,11.566,2.443c6.092,0,11.478-2.439,11.478-2.439"/>
	<path fill="none" stroke="#FFFFFF" d="M313.103,36.986h-2.264c0,0-1.014-0.086-1.014,1.014c0,0.753,0,7.798,0,7.798"/>
	<path fill="none" stroke="#FFFFFF" d="M319.142,53.201c0,0.896-0.729,1.623-1.623,1.623c-0.894,0-1.621-0.728-1.621-1.623
		c0-0.894,0.729-1.621,1.621-1.621C318.414,51.58,319.142,52.308,319.142,53.201z"/>
	<path fill="none" stroke="#FFFFFF" d="M333.002,53.201c0,0.896-0.729,1.623-1.623,1.623s-1.621-0.728-1.621-1.623
		c0-0.894,0.727-1.621,1.621-1.621S333.002,52.308,333.002,53.201z"/>
	<rect x="313.724" y="58.564" fill="#FFFFFF" width="2.736" height="3.535"/>
	<rect x="332.794" y="58.564" fill="#FFFFFF" width="2.735" height="3.535"/>
	<rect x="307.958" y="39.455" fill="#FFFFFF" width="3.128" height="7.063"/>
	<path fill="none" stroke="#FFFFFF" d="M336.036,36.986h2.264c0,0,1.016-0.086,1.016,1.014c0,0.753,0,7.646,0,7.646"/>
	<rect x="338.243" y="39.305" fill="#FFFFFF" width="2.967" height="7.062"/>
	<rect x="321.063" y="54.202" fill="none" stroke="#FFFFFF" width="6.834" height="4.476"/>
	<path fill="none" stroke="#FFFFFF" d="M313.896,33.43"/>
	<path fill="none" stroke="#FFFFFF" d="M336.147,33.43"/>
	<line fill="none" stroke="#FFFFFF" x1="313.896" y1="26.43" x2="336.147" y2="26.43"/>
</g>
<g>
	<rect x="244.734" y="57.401" fill="#FFFFFF" width="1.768" height="3.836"/>
	<rect x="262.234" y="57.401" fill="#FFFFFF" width="1.768" height="3.836"/>
	<ellipse fill="#FFFFFF" cx="247.825" cy="50.576" rx="0.772" ry="0.663"/>
	<ellipse fill="#FFFFFF" cx="246.156" cy="49.574" rx="0.418" ry="0.358"/>
	<ellipse fill="#FFFFFF" cx="246.818" cy="48.358" rx="0.417" ry="0.357"/>
	<polygon fill="none" stroke="#FFFFFF" points="255.64,26.469 253.544,26.469 253.283,24.094 255.878,24.094 	"/>
	<path fill="none" stroke="#FFFFFF" stroke-width="2" stroke-linecap="round" stroke-linejoin="round" d="M263.144,23.215
		c0,0-16.17,0-17.408,0c-1.237,0-1.667,0.928-1.667,0.928l-1.524,5.815v23.733l1.764,4.021h20.361l1.76-4.021V30.176l-1.523-6.033
		C264.597,23.289,263.144,23.215,263.144,23.215z"/>
	<path fill="none" stroke="#FFFFFF" stroke-linejoin="round" d="M262.417,44.529h-16.076l-1.064-7.816v-8.28
		c0-1.08,1.029-1.963,2.286-1.963h13.854c1.256,0,2.284,0.883,2.284,1.963v8.28L262.417,44.529z"/>
	<path fill="none" stroke="#FFFFFF" d="M249.898,52.085h-1.857c-1.703,0-3.086-1.187-3.086-2.649c0-1.462,1.383-2.65,3.086-2.65
		L249.898,52.085z"/>
	<ellipse fill="#FFFFFF" cx="261.3" cy="50.576" rx="0.771" ry="0.663"/>
	<ellipse fill="#FFFFFF" cx="262.968" cy="49.574" rx="0.418" ry="0.358"/>
	<ellipse fill="#FFFFFF" cx="262.306" cy="48.358" rx="0.418" ry="0.357"/>
	<path fill="none" stroke="#FFFFFF" d="M261.083,46.785c1.704,0,3.086,1.188,3.086,2.65c0,1.462-1.382,2.649-3.086,2.649h-1.855
		L261.083,46.785z"/>
	<rect x="247.677" y="28.715" fill="none" stroke="#FFFFFF" stroke-linejoin="round" width="13.623" height="3.622"/>
	<polyline fill="none" stroke="#FFFFFF" points="247.093,57.152 249.683,54.564 258.955,54.564 262.013,57.622 	"/>
</g>
<g>
	<path fill="none" stroke="#FFFFFF" stroke-width="2" stroke-linejoin="round" d="M191.917,46.6l1.791-1.558
		c0.24-0.209,0.268-0.574,0.057-0.814l-0.994-1.145c-0.209-0.24-0.574-0.267-0.813-0.058l-0.399,0.349l-0.43-3.836l4.507-3.623
		l0.031-0.024l0.026-0.026c2.732-2.541,2.644-4.662,1.734-5.707c-0.029-0.035-0.062-0.069-0.096-0.104
		c-0.027-0.037-0.057-0.073-0.088-0.109c-0.908-1.043-2.996-1.428-5.895,0.925l-0.029,0.024l-4.241,3.987l-3.74-0.96l0.399-0.348
		c0.24-0.209,0.267-0.574,0.058-0.815l-0.994-1.144c-0.209-0.24-0.573-0.266-0.815-0.057l-1.789,1.557l-10.109-2.595l-3.985,3.487
		l14.26,7.111l-8.243,7.96l-4.896-1.44l-3.053,2.692l5.613,3.982l0.012,0.021l0.02,0.014l3.162,6.113l3.093-2.647l-0.747-5.051
		l8.695-7.44l5.061,15.111l4.007-3.465L191.917,46.6z"/>
</g>
<g>
	<g>
		<path fill="#FFFFFF" d="M57.806,46.542c0-1.499-0.877-2.792-2.146-3.398l-2.809-8.647c-0.367-1.137-1.428-1.906-2.625-1.906
			H33.515c-1.186,0-2.238,0.755-2.617,1.875l-2.928,8.671c-1.277,0.604-2.162,1.899-2.162,3.406v3.69h31.998V46.542z M30.68,41.206
			l2.062-6.11c0.109-0.318,0.41-0.534,0.746-0.534h16.715c0.344,0,0.646,0.218,0.752,0.545l1.982,6.107
			c0.076,0.241,0.037,0.507-0.111,0.714c-0.152,0.205-0.393,0.326-0.645,0.326H31.433c-0.256,0-0.496-0.122-0.645-0.331
			C30.638,41.714,30.598,41.447,30.68,41.206z M29.529,49.083c-1.342,0-2.43-1.089-2.43-2.429c0-1.343,1.088-2.429,2.43-2.429
			s2.432,1.086,2.432,2.429C31.96,47.995,30.871,49.083,29.529,49.083z M54.083,49.083c-1.342,0-2.428-1.089-2.428-2.429
			c0-1.343,1.086-2.429,2.428-2.429c1.344,0,2.43,1.086,2.43,2.429C56.513,47.995,55.427,49.083,54.083,49.083z"/>
		<path fill="#FFFFFF" d="M28.333,58.484c0,0.527,0.428,0.95,0.949,0.95h2.884c0.524,0,0.95-0.423,0.95-0.95v-2.72h-4.783V58.484z"
			/>
		<path fill="#FFFFFF" d="M50.498,58.484c0,0.527,0.424,0.95,0.951,0.95h2.881c0.525,0,0.949-0.423,0.949-0.95v-2.72h-4.781V58.484z
			"/>
		<path fill="#FFFFFF" d="M57.906,50.988H25.709c-0.44,0-0.798,0.46-0.798,1.029v1.966c0,0.567,0.357,1.029,0.798,1.029h32.196
			c0.441,0,0.799-0.462,0.799-1.029v-1.966C58.705,51.448,58.347,50.988,57.906,50.988z"/>
	</g>
	<path fill="#FFFFFF" d="M36.81,39.41c1.268,0,2.295,1.03,2.295,2.299h1.539c0-2.116-1.719-3.837-3.834-3.837
		c-2.117,0-3.838,1.721-3.838,3.837h1.539C34.511,40.44,35.542,39.41,36.81,39.41z"/>
</g>
<g>
	<g>
		<path fill="#FFFFFF" d="M125.473,61.507h2.863l-6.01-4.943v-0.049h-0.06l-0.433-0.357h1.916c2.198,0,3.985-1.79,3.985-3.985
			V31.678c0-2.198-1.787-3.987-3.985-3.987h-18.911c-2.197,0-3.987,1.789-3.987,3.987v20.494c0,2.195,1.79,3.985,3.987,3.985h1.917
			l-6.503,5.35h2.864l1.656-1.605h19.042L125.473,61.507z M123.51,33.072c0.554,0,1.002,0.378,1.002,0.842v13.582
			c0,0.464-0.448,0.839-1.002,0.839h-18.433c-0.553,0-1-0.375-1-0.839V33.914c0-0.464,0.447-0.842,1-0.842H123.51z M108.354,31.247
			v-0.987c0-0.271,0.22-0.492,0.492-0.492h3.96h2.978h3.958c0.272,0,0.492,0.221,0.492,0.492v0.987c0,0.271-0.22,0.491-0.492,0.491
			h-3.958h-2.978h-3.96C108.574,31.738,108.354,31.518,108.354,31.247z M122.648,53.083c-1.06,0-1.919-0.857-1.919-1.916
			c0-1.062,0.859-1.919,1.919-1.919c1.059,0,1.918,0.857,1.918,1.919C124.566,52.226,123.707,53.083,122.648,53.083z
			 M105.942,49.249c1.058,0,1.917,0.857,1.917,1.919c0,1.059-0.859,1.916-1.917,1.916c-1.061,0-1.919-0.857-1.919-1.916
			C104.023,50.106,104.881,49.249,105.942,49.249z M111.032,54.275v-1.491c0-0.324,0.261-0.586,0.585-0.586h5.356
			c0.322,0,0.583,0.262,0.583,0.586v1.491c0,0.323-0.261,0.585-0.583,0.585h-5.356C111.292,54.86,111.032,54.598,111.032,54.275z
			 M119.947,56.158l0.37,0.357h-12.043l0.368-0.357H119.947z M105.788,58.923l1.72-1.665h13.576l1.72,1.665H105.788z"/>
	</g>
</g>
</svg>
