<?xml version="1.0" encoding="utf-8"?>
<!-- Generator: Adobe Illustrator 16.0.0, SVG Export Plug-In . SVG Version: 6.00 Build 0)  -->
<!DOCTYPE svg PUBLIC "-//W3C//DTD SVG 1.1//EN" "http://www.w3.org/Graphics/SVG/1.1/DTD/svg11.dtd">
<svg version="1.1" id="Layer_1" xmlns="http://www.w3.org/2000/svg" xmlns:xlink="http://www.w3.org/1999/xlink" x="0px" y="0px"
	 width="131.834px" height="161.167px" viewBox="0 0 131.834 161.167" enable-background="new 0 0 131.834 161.167"
	 xml:space="preserve">
<g id="Base">
</g>
<line fill="#FFFFFF" stroke="#FFFFFF" stroke-width="3" stroke-linecap="round" x1="22.712" y1="110.357" x2="46.993" y2="110.357"/>
<line fill="#FFFFFF" stroke="#FFFFFF" stroke-width="3" stroke-linecap="round" x1="22.712" y1="119.322" x2="46.993" y2="119.322"/>
<line fill="#FFFFFF" stroke="#FFFFFF" stroke-width="3" stroke-linecap="round" x1="22.712" y1="128.285" x2="46.993" y2="128.285"/>
<line fill="none" stroke="#FF8B00" x1="82.379" y1="110.357" x2="106.659" y2="110.357"/>
<line fill="none" stroke="#FF8B00" x1="82.379" y1="119.322" x2="106.659" y2="119.322"/>
<line fill="none" stroke="#FF8B00" x1="82.379" y1="128.285" x2="106.659" y2="128.285"/>
<path fill="#FFFFFF" d="M32.82,53.073c-5.934,0-10.746-4.812-10.746-10.746h3.582l-5.373-5.373l-5.373,5.373h3.582
	c0,7.912,6.416,14.328,14.328,14.328c4.413,0,8.355-1.998,10.984-5.135l-2.55-2.551C39.288,51.467,36.245,53.073,32.82,53.073z
	 M47.148,42.327c0-7.911-6.414-14.328-14.328-14.328c-4.41,0-8.354,1.999-10.983,5.136l2.549,2.549
	c1.968-2.497,5.011-4.103,8.435-4.103c5.937,0,10.746,4.81,10.746,10.746h-3.583l5.373,5.373l5.373-5.373H47.148z"/>
<path fill="#FF8B00" d="M92.82,53.073c-5.934,0-10.746-4.812-10.746-10.746h3.582l-5.373-5.373l-5.373,5.373h3.582
	c0,7.912,6.416,14.328,14.328,14.328c4.413,0,8.355-1.998,10.984-5.135l-2.55-2.551C99.288,51.467,96.245,53.073,92.82,53.073z
	 M107.148,42.327c0-7.911-6.414-14.328-14.328-14.328c-4.41,0-8.354,1.999-10.983,5.136l2.549,2.549
	c1.968-2.497,5.011-4.103,8.435-4.103c5.937,0,10.746,4.81,10.746,10.746h-3.583l5.373,5.373l5.373-5.373H107.148z"/>
</svg>
