<?xml version="1.0" encoding="utf-8"?>
<!-- Generator: Adobe Illustrator 16.0.0, SVG Export Plug-In . SVG Version: 6.00 Build 0)  -->
<!DOCTYPE svg PUBLIC "-//W3C//DTD SVG 1.1//EN" "http://www.w3.org/Graphics/SVG/1.1/DTD/svg11.dtd">
<svg version="1.1" id="Layer_1" xmlns="http://www.w3.org/2000/svg" xmlns:xlink="http://www.w3.org/1999/xlink" x="0px" y="0px"
	 width="131.834px" height="161.167px" viewBox="0 0 131.834 161.167" enable-background="new 0 0 131.834 161.167"
	 xml:space="preserve">
<g id="Base">
</g>
<g>
	<g>
		<polygon fill="#FFFFFF" points="32.712,22.509 32.712,40.397 46.105,31.688 		"/>
		<path fill="#FFFFFF" d="M32.664,58.173c-4.289,0.001-8.203-1.748-11.012-4.562l0,0c-2.813-2.808-4.562-6.722-4.561-11.013l0,0
			c-0.002-4.289,1.747-8.203,4.561-11.012l0,0c2.809-2.812,6.723-4.562,11.012-4.561l0,0c1.74,0,3.426,0.287,4.998,0.819l0,0
			l-2.118,6.255c-0.901-0.305-1.864-0.471-2.88-0.471l0,0c-2.487,0.001-4.709,0.998-6.343,2.626l0,0
			c-1.628,1.634-2.626,3.856-2.627,6.343l0,0c0.001,2.488,0.999,4.709,2.627,6.344l0,0c1.634,1.628,3.855,2.625,6.343,2.627l0,0
			c2.488-0.002,4.709-0.999,6.344-2.627l0,0c1.627-1.635,2.625-3.855,2.626-6.344l0,0h6.604c0.002,4.291-1.748,8.205-4.561,11.013
			l0,0c-2.807,2.812-6.72,4.562-11.007,4.562l0,0C32.668,58.173,32.666,58.173,32.664,58.173L32.664,58.173z"/>
	</g>
</g>
<rect x="19.916" y="108.208" fill="#FFFFFF" width="28.333" height="4.981"/>
<rect x="19.916" y="116.926" fill="#FFFFFF" width="28.333" height="4.98"/>
<rect x="19.916" y="125.021" fill="#FFFFFF" width="28.333" height="4.981"/>
<g>
	<g>
		<polygon fill="#FF8B00" points="92.713,22.509 92.713,40.397 106.105,31.688 		"/>
		<path fill="#FF8B00" d="M92.664,58.173c-4.289,0.001-8.203-1.748-11.012-4.562l0,0c-2.812-2.808-4.562-6.722-4.561-11.013l0,0
			c-0.002-4.289,1.748-8.203,4.561-11.012l0,0c2.809-2.812,6.723-4.562,11.012-4.561l0,0c1.74,0,3.426,0.287,4.998,0.819l0,0
			l-2.117,6.255c-0.902-0.305-1.865-0.471-2.881-0.471l0,0c-2.486,0.001-4.709,0.998-6.342,2.626l0,0
			c-1.629,1.634-2.627,3.856-2.627,6.343l0,0c0,2.488,0.998,4.709,2.627,6.344l0,0c1.633,1.628,3.855,2.625,6.342,2.627l0,0
			c2.488-0.002,4.709-0.999,6.344-2.627l0,0c1.627-1.635,2.625-3.855,2.627-6.344l0,0h6.604c0.002,4.291-1.748,8.205-4.561,11.013
			l0,0c-2.807,2.812-6.721,4.562-11.008,4.562l0,0C92.668,58.173,92.666,58.173,92.664,58.173L92.664,58.173z"/>
	</g>
</g>
<rect x="79.916" y="108.208" fill="#FF8B00" width="28.334" height="4.981"/>
<rect x="79.916" y="116.926" fill="#FF8B00" width="28.334" height="4.98"/>
<rect x="79.916" y="125.021" fill="#FF8B00" width="28.334" height="4.981"/>
</svg>
