<?xml version="1.0" encoding="utf-8"?>
<!-- Generator: Adobe Illustrator 16.0.0, SVG Export Plug-In . SVG Version: 6.00 Build 0)  -->
<!DOCTYPE svg PUBLIC "-//W3C//DTD SVG 1.1//EN" "http://www.w3.org/Graphics/SVG/1.1/DTD/svg11.dtd">
<svg version="1.1" id="Layer_1" xmlns="http://www.w3.org/2000/svg" xmlns:xlink="http://www.w3.org/1999/xlink" x="0px" y="0px"
	 width="83px" height="28px" viewBox="0 0 83 28" enable-background="new 0 0 83 28" xml:space="preserve">
<g>
	<g>
		<path fill="#FFFFFF" d="M13.999,2.5C20.341,2.5,25.5,7.659,25.5,14c0,6.341-5.159,11.5-11.501,11.5C7.658,25.5,2.5,20.341,2.5,14
			C2.5,7.659,7.658,2.5,13.999,2.5 M13.999,0C6.269,0,0,6.268,0,14c0,7.731,6.269,14,13.999,14C21.732,28,28,21.731,28,14
			C28,6.268,21.732,0,13.999,0L13.999,0z"/>
	</g>
</g>
<g>
	<g>
		<g>
			<path fill="#FFFFFF" d="M68.998,2.5C75.34,2.5,80.5,7.659,80.5,14.001c0,6.341-5.16,11.499-11.502,11.499
				c-6.34,0-11.498-5.158-11.498-11.499C57.5,7.659,62.658,2.5,68.998,2.5 M68.998,0C61.268,0,55,6.268,55,14.001
				C55,21.732,61.268,28,68.998,28C76.732,28,83,21.732,83,14.001C83,6.268,76.732,0,68.998,0L68.998,0z"/>
		</g>
	</g>
</g>
<circle fill="#FFFFFF" cx="69" cy="14" r="7.75"/>
</svg>
