<?xml version="1.0" encoding="utf-8"?>
<!-- Generator: Adobe Illustrator 16.0.0, SVG Export Plug-In . SVG Version: 6.00 Build 0)  -->
<!DOCTYPE svg PUBLIC "-//W3C//DTD SVG 1.1//EN" "http://www.w3.org/Graphics/SVG/1.1/DTD/svg11.dtd">
<svg version="1.1" id="Layer_1" xmlns="http://www.w3.org/2000/svg" xmlns:xlink="http://www.w3.org/1999/xlink" x="0px" y="0px"
	 width="67.167px" height="387.167px" viewBox="0 0 67.167 387.167" enable-background="new 0 0 67.167 387.167"
	 xml:space="preserve">
<g id="Base">
</g>
<g>
	<path fill="none" stroke="#FFFFFF" stroke-width="2" d="M22.497,24.373v34.305H45.54c0,0,0-30.104,0-34.342
		c0,0-3.818-3.133-11.438-3.133C26.483,21.203,22.497,24.373,22.497,24.373z"/>
	<line fill="none" stroke="#FFFFFF" x1="22.497" y1="36.93" x2="45.54" y2="36.93"/>
	<path fill="none" stroke="#FFFFFF" d="M22.497,45.521c0,0,5.475,2.443,11.566,2.443c6.092,0,11.477-2.439,11.477-2.439"/>
	<path fill="none" stroke="#FFFFFF" d="M22.497,36.986h-2.264c0,0-1.014-0.086-1.014,1.014c0,0.753,0,7.798,0,7.798"/>
	<path fill="none" stroke="#FFFFFF" d="M28.536,53.201c0,0.896-0.729,1.623-1.623,1.623c-0.894,0-1.621-0.728-1.621-1.623
		c0-0.894,0.728-1.621,1.621-1.621C27.807,51.58,28.536,52.308,28.536,53.201z"/>
	<path fill="none" stroke="#FFFFFF" d="M42.396,53.201c0,0.896-0.729,1.623-1.623,1.623s-1.621-0.728-1.621-1.623
		c0-0.894,0.727-1.621,1.621-1.621S42.396,52.308,42.396,53.201z"/>
	<rect x="23.118" y="58.564" fill="#FFFFFF" width="2.736" height="3.535"/>
	<rect x="42.188" y="58.564" fill="#FFFFFF" width="2.735" height="3.535"/>
	<rect x="17.352" y="39.455" fill="#FFFFFF" width="3.128" height="7.063"/>
	<path fill="none" stroke="#FFFFFF" d="M45.429,36.986h2.264c0,0,1.016-0.086,1.016,1.014c0,0.753,0,7.646,0,7.646"/>
	<rect x="47.636" y="39.305" fill="#FFFFFF" width="2.967" height="7.062"/>
	<rect x="30.457" y="54.202" fill="none" stroke="#FFFFFF" width="6.833" height="4.476"/>
	<path fill="none" stroke="#FFFFFF" d="M23.29,33.43"/>
	<path fill="none" stroke="#FFFFFF" d="M45.54,33.43"/>
	<line fill="none" stroke="#FFFFFF" x1="23.29" y1="26.43" x2="45.54" y2="26.43"/>
</g>
<g>
	<rect x="24.224" y="136.787" fill="#FFFFFF" width="1.768" height="3.836"/>
	<rect x="41.724" y="136.787" fill="#FFFFFF" width="1.768" height="3.836"/>
	<ellipse fill="#FFFFFF" cx="27.315" cy="129.962" rx="0.773" ry="0.663"/>
	<ellipse fill="#FFFFFF" cx="25.646" cy="128.96" rx="0.418" ry="0.358"/>
	<ellipse fill="#FFFFFF" cx="26.308" cy="127.744" rx="0.417" ry="0.357"/>
	<polygon fill="none" stroke="#FFFFFF" points="35.13,105.855 33.035,105.855 32.773,103.48 35.368,103.48 	"/>
	<path fill="none" stroke="#FFFFFF" stroke-width="2" stroke-linecap="round" stroke-linejoin="round" d="M42.635,102.601
		c0,0-16.171,0-17.409,0c-1.237,0-1.667,0.928-1.667,0.928l-1.524,5.815v23.733l1.763,4.021h20.361l1.761-4.021v-23.515
		l-1.524-6.033C44.087,102.675,42.635,102.601,42.635,102.601z"/>
	<path fill="none" stroke="#FFFFFF" stroke-linejoin="round" d="M41.908,123.915H25.832l-1.065-7.816v-8.28
		c0-1.08,1.029-1.963,2.286-1.963h13.854c1.256,0,2.285,0.883,2.285,1.963v8.28L41.908,123.915z"/>
	<path fill="none" stroke="#FFFFFF" d="M29.388,131.471h-1.857c-1.704,0-3.086-1.187-3.086-2.649s1.382-2.65,3.086-2.65
		L29.388,131.471z"/>
	<ellipse fill="#FFFFFF" cx="40.79" cy="129.962" rx="0.772" ry="0.663"/>
	<ellipse fill="#FFFFFF" cx="42.458" cy="128.96" rx="0.418" ry="0.358"/>
	<ellipse fill="#FFFFFF" cx="41.797" cy="127.744" rx="0.417" ry="0.357"/>
	<path fill="none" stroke="#FFFFFF" d="M40.574,126.171c1.704,0,3.086,1.188,3.086,2.65s-1.382,2.649-3.086,2.649h-1.856
		L40.574,126.171z"/>
	<rect x="27.167" y="108.101" fill="none" stroke="#FFFFFF" stroke-linejoin="round" width="13.624" height="3.622"/>
	<polyline fill="none" stroke="#FFFFFF" points="26.584,136.538 29.173,133.95 38.445,133.95 41.503,137.008 	"/>
</g>
<g>
	<path fill="none" stroke="#FFFFFF" stroke-width="2" stroke-linejoin="round" d="M44.812,198.6l1.791-1.557
		c0.24-0.21,0.268-0.575,0.057-0.815l-0.994-1.144c-0.209-0.241-0.574-0.267-0.814-0.058l-0.399,0.348l-0.43-3.836l4.507-3.623
		l0.031-0.024l0.027-0.026c2.732-2.541,2.643-4.662,1.734-5.707c-0.029-0.035-0.062-0.069-0.096-0.104
		c-0.027-0.037-0.057-0.073-0.088-0.109c-0.908-1.043-2.996-1.428-5.894,0.925l-0.029,0.024l-4.242,3.987l-3.74-0.96l0.4-0.348
		c0.24-0.209,0.266-0.574,0.057-0.815l-0.994-1.144c-0.209-0.24-0.574-0.266-0.815-0.057l-1.79,1.557l-10.109-2.595l-3.986,3.487
		l14.26,7.111l-8.244,7.961l-4.896-1.441l-3.053,2.693l5.614,3.982l0.011,0.021l0.02,0.014l3.162,6.113l3.093-2.647l-0.747-5.051
		l8.696-7.44l5.06,15.111l4.007-3.465L44.812,198.6z"/>
</g>
<g>
	<g>
		<path fill="none" stroke="#FFFFFF" stroke-linejoin="round" d="M26.01,280.101c0,0-1.354-2.247-1.354-3.106
			c0-0.361-0.028-0.49,0.408-0.766c0.361-0.23,0.979,0.072,0.979,0.072l3.287,2.439c0,0,0.834,0.74,0.182,1.393
			C29.09,280.553,26.01,280.101,26.01,280.101z"/>
		<path fill="none" stroke="#FFFFFF" stroke-width="2" stroke-linecap="round" stroke-linejoin="round" d="M35.977,252.963
			c8.763,0,9.333,7.037,9.333,7.037s1.734,10.408,1.734,11.845c0,4.659-0.787,6.757-1.115,7.607
			c-0.406,1.05-3.543,7.585-3.543,7.585H35.2h-3.238h-7.186c-2.214-4.506-2.177-6.1-2.751-7.585
			c-0.327-0.851-1.115-2.948-1.115-7.607c0-1.437,1.734-11.845,1.734-11.845s0.57-7.037,9.334-7.037H35.977z"/>
		<path fill="none" stroke="#FFFFFF" stroke-linejoin="round" d="M44.094,256.707v12.677c0,0-0.443,6.212-8.117,6.212h-3.999
			c-7.674,0-8.117-6.212-8.117-6.212v-12.677"/>
		<path fill="none" stroke="#FFFFFF" stroke-linejoin="round" d="M41.938,280.107c0,0,1.354-2.246,1.354-3.105
			c0-0.361,0.028-0.49-0.407-0.767c-0.362-0.229-0.979,0.073-0.979,0.073l-3.287,2.439c0,0-0.834,0.74-0.182,1.393
			C38.857,280.561,41.938,280.107,41.938,280.107z"/>
		<path fill="none" stroke="#FFFFFF" stroke-linejoin="round" d="M35.977,271.002c5.583,0,5.814-3.172,5.814-3.172v-6.838
			c0-2.527-5.814-2.826-5.814-2.826h-3.999c0,0-5.814,0.299-5.814,2.826v6.838c0,0,0.231,3.172,5.814,3.172H35.977z"/>
		<circle fill="none" stroke="#FFFFFF" stroke-linejoin="round" cx="34.077" cy="255.654" r="1.122"/>
		<rect x="26.757" y="287.037" fill="#FFFFFF" width="1.785" height="3.469"/>
		<rect x="38.751" y="287.037" fill="#FFFFFF" width="1.784" height="3.469"/>
	</g>
	<line fill="none" stroke="#FFFFFF" stroke-width="2" stroke-linejoin="round" x1="27.65" y1="288.771" x2="22.531" y2="294.855"/>
	<line fill="none" stroke="#FFFFFF" stroke-width="2" stroke-linejoin="round" x1="39.643" y1="288.771" x2="44.335" y2="294.977"/>
	<line fill="none" stroke="#FFFFFF" stroke-linejoin="round" x1="23.991" y1="294.008" x2="43.602" y2="294.008"/>
	<line fill="none" stroke="#FFFFFF" stroke-linejoin="round" x1="25.996" y1="291.586" x2="41.129" y2="291.586"/>
	<line fill="none" stroke="#FFFFFF" stroke-linejoin="round" x1="27.861" y1="289.283" x2="39.369" y2="289.283"/>
</g>
<g>
	<g>
		<g>
			<path fill="none" stroke="#FFFFFF" stroke-linejoin="round" d="M26.042,351.309c0,0.896-0.729,1.623-1.622,1.623
				s-2.622-0.727-2.622-1.623c0-0.893,1.729-1.621,2.622-1.621S26.042,350.416,26.042,351.309z"/>
			<path fill="none" stroke="#FFFFFF" stroke-linejoin="round" d="M45.707,351.309c0,0.896-1.726,1.623-2.621,1.623
				s-1.623-0.727-1.623-1.623c0-0.893,0.729-1.621,1.623-1.621S45.707,350.416,45.707,351.309z"/>
			<rect x="21.265" y="358" fill="#FFFFFF" width="3.735" height="4.5"/>
			<rect x="43.219" y="358" fill="#FFFFFF" width="3.734" height="4.5"/>
			<path fill="none" stroke="#FFFFFF" stroke-width="2" stroke-linejoin="round" d="M48.129,358H19.503v-10.98
				c0,0,6.084-0.959,14.751-0.959c8.666,0,13.875,0.959,13.875,0.959V358z"/>
			<polyline fill="none" stroke="#FFFFFF" stroke-width="2" stroke-linejoin="round" points="22.878,346.229 25.266,335.479 
				42.795,335.479 45.295,346.229 			"/>
			<polygon fill="#FFFFFF" points="23.451,343.65 18.503,343.65 19.086,341.561 23.451,341.561 			"/>
			<polygon fill="#FFFFFF" points="49.451,343.65 44.504,343.65 43.879,341.561 48.826,341.561 			"/>
		</g>
		<rect x="28.961" y="350.75" fill="none" stroke="#FFFFFF" width="10.25" height="3.375"/>
	</g>
</g>
</svg>
