<?xml version="1.0" encoding="utf-8"?>
<!-- Generator: Adobe Illustrator 16.0.3, SVG Export Plug-In . SVG Version: 6.00 Build 0)  -->
<!DOCTYPE svg PUBLIC "-//W3C//DTD SVG 1.1//EN" "http://www.w3.org/Graphics/SVG/1.1/DTD/svg11.dtd">
<svg version="1.1" id="Layer_1" xmlns="http://www.w3.org/2000/svg" xmlns:xlink="http://www.w3.org/1999/xlink" x="0px" y="0px"
	 width="131.834px" height="161.167px" viewBox="0 0 131.834 161.167" enable-background="new 0 0 131.834 161.167"
	 xml:space="preserve">
<g id="Base">
</g>
<path fill="#FFFFFF" d="M32.82,53.073c-5.934,0-10.746-4.813-10.746-10.746h3.582l-5.373-5.373l-5.373,5.373h3.582
	c0,7.912,6.416,14.328,14.328,14.328c4.413,0,8.355-1.998,10.984-5.135l-2.55-2.551C39.288,51.467,36.245,53.073,32.82,53.073z
	 M47.148,42.327c0-7.911-6.414-14.328-14.328-14.328c-4.41,0-8.354,1.999-10.983,5.136l2.549,2.549
	c1.968-2.497,5.011-4.103,8.435-4.103c5.937,0,10.746,4.81,10.746,10.746h-3.583l5.373,5.373l5.373-5.373H47.148z"/>
<path fill="#FF8B00" d="M92.819,53.073c-5.934,0-10.745-4.813-10.745-10.746h3.582l-5.373-5.373l-5.373,5.373h3.582
	c0,7.912,6.416,14.328,14.327,14.328c4.414,0,8.355-1.998,10.984-5.135l-2.55-2.551C99.288,51.467,96.245,53.073,92.819,53.073z
	 M107.147,42.327c0-7.911-6.414-14.328-14.328-14.328c-4.409,0-8.354,1.999-10.982,5.136l2.549,2.549
	c1.969-2.497,5.012-4.103,8.436-4.103c5.937,0,10.746,4.81,10.746,10.746h-3.584l5.373,5.373l5.373-5.373H107.147z"/>
<path fill="#FF8B00" d="M105.882,122.293c0.217-0.233,0.462-0.415,0.699-0.43c0.968-0.062,3.445-0.062,3.445-0.062l0.18-2.841
	l-3.445-0.785c0,0-0.174-0.234-0.341-0.576c-0.043-0.517-0.115-1.024-0.223-1.52c0.076-0.315,0.196-0.601,0.396-0.735
	c0.808-0.535,2.954-1.776,2.954-1.776l-1.265-2.549l-3.375,1.043c0,0-0.278-0.12-0.602-0.341c-0.285-0.408-0.593-0.801-0.926-1.17
	c-0.1-0.316-0.144-0.637-0.033-0.857c0.431-0.868,1.669-3.014,1.669-3.014l-2.37-1.578l-2.402,2.591c0,0-0.311,0.036-0.709,0.005
	c-0.439-0.205-0.889-0.385-1.354-0.536c-0.251-0.229-0.456-0.488-0.473-0.739c-0.061-0.967-0.061-3.445-0.061-3.445l-2.841-0.182
	l-0.786,3.444c0,0-0.261,0.196-0.638,0.372c-0.481,0.041-0.952,0.109-1.416,0.205c-0.339-0.07-0.653-0.191-0.794-0.404
	c-0.537-0.808-1.779-2.951-1.779-2.951l-2.549,1.266l1.047,3.375c0,0-0.132,0.307-0.373,0.651c-0.381,0.268-0.742,0.554-1.089,0.861
	c-0.332,0.111-0.672,0.167-0.904,0.051c-0.869-0.431-3.018-1.667-3.018-1.667l-1.573,2.371l2.593,2.401c0,0,0.039,0.324,0.005,0.742
	c-0.197,0.422-0.372,0.856-0.52,1.304c-0.229,0.26-0.494,0.474-0.754,0.49c-0.967,0.061-3.444,0.063-3.444,0.063l-0.179,2.842
	l3.446,0.782c0,0,0.193,0.261,0.37,0.636c0.043,0.48,0.108,0.952,0.204,1.412c-0.07,0.335-0.193,0.644-0.404,0.783
	c-0.806,0.538-2.952,1.777-2.952,1.777l1.266,2.551l3.377-1.046c0,0,0.285,0.123,0.617,0.351c0.278,0.402,0.581,0.785,0.906,1.149
	c0.103,0.32,0.148,0.644,0.037,0.866c-0.431,0.867-1.668,3.016-1.668,3.016l2.371,1.576l2.402-2.593c0,0,0.293-0.034,0.675-0.006
	c0.458,0.215,0.93,0.403,1.416,0.562c0.239,0.221,0.43,0.472,0.444,0.713c0.06,0.967,0.062,3.446,0.062,3.446l2.841,0.179
	l0.785-3.445c0,0,0.232-0.174,0.574-0.341c0.52-0.043,1.031-0.114,1.531-0.22c0.311,0.072,0.592,0.193,0.725,0.393
	c0.538,0.806,1.777,2.951,1.777,2.951l2.55-1.265l-1.044-3.377c0,0,0.112-0.258,0.318-0.568c0.431-0.297,0.842-0.62,1.229-0.971
	c0.304-0.092,0.606-0.128,0.82-0.021c0.866,0.431,3.014,1.67,3.014,1.67l1.577-2.37l-2.593-2.404c0,0-0.031-0.276-0.008-0.644
	C105.527,123.284,105.72,122.794,105.882,122.293z M94.435,128.687c-5.575,0-10.095-4.519-10.095-10.093
	c0-5.576,4.52-10.096,10.095-10.096s10.094,4.52,10.094,10.096C104.528,124.168,100.01,128.687,94.435,128.687z"/>
<path fill="#FFFFFF" d="M45.655,122.313c0.217-0.233,0.462-0.415,0.7-0.43c0.967-0.062,3.445-0.062,3.445-0.062l0.18-2.841
	l-3.445-0.785c0,0-0.174-0.234-0.341-0.576c-0.043-0.517-0.115-1.024-0.222-1.52c0.075-0.315,0.196-0.601,0.395-0.735
	c0.809-0.535,2.955-1.776,2.955-1.776l-1.265-2.549l-3.375,1.043c0,0-0.278-0.12-0.601-0.341c-0.285-0.408-0.593-0.801-0.926-1.17
	c-0.1-0.316-0.144-0.637-0.034-0.857c0.431-0.868,1.669-3.014,1.669-3.014l-2.371-1.578l-2.402,2.591c0,0-0.31,0.036-0.709,0.005
	c-0.438-0.205-0.889-0.385-1.353-0.536c-0.251-0.229-0.456-0.488-0.473-0.739c-0.061-0.967-0.061-3.445-0.061-3.445l-2.84-0.182
	l-0.787,3.444c0,0-0.26,0.196-0.638,0.372c-0.48,0.041-0.952,0.109-1.416,0.205c-0.339-0.07-0.653-0.191-0.794-0.404
	c-0.538-0.808-1.78-2.951-1.78-2.951l-2.549,1.266l1.047,3.375c0,0-0.132,0.307-0.373,0.651c-0.38,0.268-0.743,0.554-1.089,0.861
	c-0.333,0.111-0.672,0.167-0.904,0.051c-0.87-0.431-3.018-1.667-3.018-1.667l-1.574,2.371l2.593,2.401c0,0,0.039,0.324,0.004,0.742
	c-0.197,0.422-0.372,0.856-0.52,1.304c-0.229,0.26-0.494,0.474-0.753,0.49c-0.968,0.061-3.445,0.063-3.445,0.063l-0.179,2.842
	l3.446,0.782c0,0,0.194,0.261,0.37,0.636c0.043,0.48,0.108,0.952,0.204,1.412c-0.07,0.335-0.192,0.644-0.404,0.783
	c-0.806,0.538-2.952,1.777-2.952,1.777l1.265,2.551l3.377-1.046c0,0,0.286,0.123,0.617,0.351c0.279,0.402,0.582,0.785,0.906,1.149
	c0.103,0.32,0.149,0.644,0.038,0.866c-0.431,0.867-1.669,3.016-1.669,3.016l2.372,1.576l2.402-2.593c0,0,0.293-0.034,0.674-0.006
	c0.458,0.215,0.93,0.403,1.417,0.562c0.238,0.221,0.429,0.472,0.443,0.713c0.06,0.967,0.062,3.446,0.062,3.446l2.841,0.179
	l0.785-3.445c0,0,0.232-0.174,0.574-0.341c0.52-0.043,1.032-0.114,1.532-0.22c0.31,0.072,0.592,0.193,0.725,0.393
	c0.538,0.806,1.778,2.951,1.778,2.951l2.549-1.265l-1.044-3.377c0,0,0.112-0.258,0.318-0.568c0.431-0.297,0.842-0.62,1.23-0.971
	c0.303-0.092,0.606-0.128,0.82-0.021c0.867,0.431,3.014,1.67,3.014,1.67l1.577-2.37l-2.592-2.404c0,0-0.032-0.276-0.008-0.644
	C45.3,123.303,45.493,122.814,45.655,122.313z M34.208,128.707c-5.575,0-10.095-4.519-10.095-10.093
	c0-5.576,4.52-10.096,10.095-10.096c5.575,0,10.093,4.52,10.093,10.096C44.301,124.188,39.783,128.707,34.208,128.707z"/>
</svg>
