<?xml version="1.0" encoding="utf-8"?>
<!-- Generator: Adobe Illustrator 16.0.3, SVG Export Plug-In . SVG Version: 6.00 Build 0)  -->
<!DOCTYPE svg PUBLIC "-//W3C//DTD SVG 1.1//EN" "http://www.w3.org/Graphics/SVG/1.1/DTD/svg11.dtd">
<svg version="1.1" id="Layer_1" xmlns="http://www.w3.org/2000/svg" xmlns:xlink="http://www.w3.org/1999/xlink" x="0px" y="0px"
	 width="116.444px" height="29.025px" viewBox="0 0 116.444 29.025" enable-background="new 0 0 116.444 29.025"
	 xml:space="preserve">
<g>
	<g>
		<polyline fill="none" stroke="#FFFFFF" stroke-width="2.1277" stroke-linecap="round" stroke-linejoin="round" points="
			8.998,15.604 15.344,15.604 15.344,9.257 		"/>
		<g>
			<path fill="#FFFFFF" d="M14.781,6.128c4.791,0,8.689,3.898,8.689,8.689c0,4.792-3.898,8.69-8.689,8.69
				c-4.792,0-8.689-3.898-8.689-8.69C6.091,10.026,9.989,6.128,14.781,6.128 M14.781,4C8.807,4,3.963,8.843,3.963,14.817
				s4.844,10.818,10.817,10.818c5.973,0,10.817-4.844,10.817-10.818S20.753,4,14.781,4L14.781,4z"/>
		</g>
	</g>
</g>
<g>
	<g>
		<g>
			<g>
				<path fill="#FFFFFF" d="M43.712,6.128c4.792,0,8.689,3.898,8.689,8.689s-3.898,8.689-8.689,8.689
					c-4.792,0-8.69-3.898-8.69-8.689S38.92,6.128,43.712,6.128 M43.712,4c-5.974,0-10.818,4.843-10.818,10.817
					s4.844,10.817,10.818,10.817c5.972,0,10.817-4.843,10.817-10.817S49.684,4,43.712,4L43.712,4z"/>
			</g>
		</g>
	</g>
	<g>
		<rect x="36.333" y="14.115" fill="#FFFFFF" width="1.646" height="0.904"/>
		<rect x="49.783" y="14.115" fill="#FFFFFF" width="1.645" height="0.904"/>
		<rect x="43.429" y="20.527" fill="#FFFFFF" width="0.905" height="1.643"/>
		<rect x="43.429" y="7.628" fill="#FFFFFF" width="0.905" height="1.643"/>
		<path fill="#FFFFFF" d="M44.061,13.026c-0.456-0.053-0.928,0.094-1.279,0.443c-0.348,0.348-0.496,0.822-0.442,1.277l-3.102,4.463
			l4.463-3.101c0.454,0.052,0.928-0.095,1.277-0.444c0.349-0.349,0.497-0.822,0.444-1.277l3.099-4.462L44.061,13.026z
			 M44.429,15.116c-0.302,0.304-0.792,0.304-1.097,0c-0.304-0.303-0.304-0.795,0-1.098c0.305-0.303,0.794-0.303,1.097,0
			C44.733,14.321,44.733,14.813,44.429,15.116z"/>
	</g>
</g>
<g>
	<g>
		<g>
			<g>
				<path fill="#FFFFFF" d="M72.642,6.128c4.792,0,8.69,3.897,8.69,8.688c0,4.792-3.898,8.69-8.69,8.69
					c-4.791,0-8.688-3.898-8.688-8.69C63.953,10.025,67.851,6.128,72.642,6.128 M72.642,4c-5.973,0-10.816,4.843-10.816,10.816
					c0,5.974,4.844,10.818,10.816,10.818c5.974,0,10.818-4.844,10.818-10.818C83.46,8.843,78.615,4,72.642,4L72.642,4z"/>
			</g>
		</g>
	</g>
	<g>
		<rect x="71.534" y="12.246" fill="#FFFFFF" width="2.658" height="9.398"/>
		<circle fill="#FFFFFF" cx="72.864" cy="9.232" r="1.755"/>
	</g>
</g>
<g>
	<g>
		<g>
			<g>
				<g>
					<path fill="#FFFFFF" d="M101.574,6.128c4.792,0,8.689,3.897,8.689,8.688c0,4.792-3.898,8.689-8.689,8.689
						s-8.689-3.898-8.689-8.689C92.884,10.025,96.782,6.128,101.574,6.128 M101.574,4C95.6,4,90.756,8.842,90.756,14.816
						c0,5.975,4.844,10.817,10.817,10.817s10.817-4.843,10.817-10.817C112.391,8.842,107.547,4,101.574,4L101.574,4z"/>
				</g>
			</g>
		</g>
	</g>
	<g>
		<g>
			<g>
				<g>
					<path fill="#FFFFFF" d="M99.515,10.102c0-0.066-0.038-0.122-0.086-0.122h-1.063c-0.05,0-0.089,0.055-0.089,0.122v10.344
						c0,0.067,0.039,0.121,0.089,0.121h1.063c0.048,0,0.086-0.054,0.086-0.121V10.102z"/>
				</g>
			</g>
			<polygon fill="#FFFFFF" points="103.976,13.148 106.716,10.407 99.933,10.407 99.933,15.889 106.716,15.889 			"/>
		</g>
	</g>
</g>
</svg>
