<?xml version="1.0" encoding="utf-8"?>
<!-- Generator: Adobe Illustrator 16.0.0, SVG Export Plug-In . SVG Version: 6.00 Build 0)  -->
<!DOCTYPE svg PUBLIC "-//W3C//DTD SVG 1.1//EN" "http://www.w3.org/Graphics/SVG/1.1/DTD/svg11.dtd">
<svg version="1.1" id="Layer_1" xmlns="http://www.w3.org/2000/svg" xmlns:xlink="http://www.w3.org/1999/xlink" x="0px" y="0px"
	 width="36px" height="36px" viewBox="0 0 36 36" enable-background="new 0 0 36 36" xml:space="preserve">
<g>
	<g>
		<path fill="#666666" d="M18,2c8.822,0,16,7.177,16,16c0,8.823-7.178,16-16,16S2,26.822,2,18C2,9.177,9.178,2,18,2 M18,0
			C8.059,0,0,8.059,0,18s8.059,18,18,18s18-8.06,18-18S27.941,0,18,0L18,0z"/>
	</g>
</g>
<g>
	<polyline fill="none" stroke="#666666" stroke-width="2" stroke-miterlimit="10" points="11.562,25.175 17.828,18.001 
		11.562,10.824 	"/>
	<polyline fill="none" stroke="#666666" stroke-width="2" stroke-miterlimit="10" points="24.438,10.824 18.172,17.998 
		24.438,25.175 	"/>
</g>
</svg>
