<?xml version="1.0" encoding="utf-8"?>
<!-- Generator: Adobe Illustrator 16.0.0, SVG Export Plug-In . SVG Version: 6.00 Build 0)  -->
<!DOCTYPE svg PUBLIC "-//W3C//DTD SVG 1.1//EN" "http://www.w3.org/Graphics/SVG/1.1/DTD/svg11.dtd">
<svg version="1.1" id="Layer_1" xmlns="http://www.w3.org/2000/svg" xmlns:xlink="http://www.w3.org/1999/xlink" x="0px" y="0px"
	 width="479px" height="242px" viewBox="0 0 479 242" enable-background="new 0 0 479 242" xml:space="preserve">
<g>
	<g>
		<path fill="#494949" d="M21.167,80.943c0-0.362-0.133-0.657-0.399-0.884s-0.601-0.434-1.003-0.621s-0.839-0.379-1.309-0.578
			c-0.47-0.197-0.907-0.441-1.309-0.73s-0.737-0.648-1.003-1.08c-0.266-0.43-0.399-0.98-0.399-1.648c0-0.578,0.096-1.08,0.289-1.505
			c0.192-0.425,0.467-0.778,0.825-1.062c0.357-0.283,0.779-0.493,1.266-0.629S19.156,72,19.757,72c0.691,0,1.343,0.06,1.955,0.179
			c0.612,0.119,1.116,0.292,1.513,0.519l-0.731,1.955c-0.25-0.158-0.624-0.303-1.122-0.434s-1.037-0.195-1.615-0.195
			c-0.544,0-0.96,0.107-1.25,0.322c-0.289,0.216-0.434,0.505-0.434,0.867c0,0.34,0.133,0.623,0.399,0.85
			c0.266,0.228,0.601,0.438,1.003,0.63s0.839,0.391,1.309,0.595s0.907,0.451,1.309,0.74c0.402,0.289,0.736,0.646,1.003,1.07
			c0.266,0.425,0.399,0.955,0.399,1.59s-0.105,1.182-0.314,1.641c-0.21,0.459-0.504,0.841-0.884,1.146
			c-0.38,0.307-0.839,0.533-1.377,0.681c-0.539,0.147-1.131,0.221-1.777,0.221c-0.85,0-1.598-0.079-2.244-0.237
			c-0.646-0.159-1.122-0.318-1.428-0.477l0.748-1.988c0.125,0.067,0.286,0.141,0.484,0.221c0.198,0.079,0.422,0.152,0.671,0.221
			c0.25,0.068,0.513,0.125,0.791,0.17s0.564,0.068,0.859,0.068c0.691,0,1.221-0.116,1.589-0.349
			C20.983,81.773,21.167,81.418,21.167,80.943z"/>
		<path fill="#494949" d="M25.043,72.239h7.055v2.074h-4.726v2.771h4.301v2.074h-4.301v2.907h4.811v2.074h-7.14V72.239z"/>
		<path fill="#494949" d="M37.828,79.225l0.306,2.023h0.085l0.34-2.04l2.278-6.97h2.448l-4.42,11.984h-1.666l-4.454-11.984h2.703
			L37.828,79.225z"/>
		<path fill="#494949" d="M44.151,72.239h7.055v2.074H46.48v2.771h4.301v2.074H46.48v2.907h4.812v2.074h-7.141V72.239z"/>
		<path fill="#494949" d="M53.025,72.358c0.261-0.045,0.541-0.088,0.841-0.128c0.301-0.04,0.602-0.07,0.902-0.093
			c0.299-0.023,0.592-0.04,0.875-0.052c0.283-0.011,0.544-0.017,0.781-0.017c0.556,0,1.103,0.051,1.641,0.152
			c0.539,0.103,1.021,0.278,1.445,0.527c0.426,0.25,0.766,0.592,1.02,1.029c0.256,0.436,0.383,0.982,0.383,1.64
			c0,0.976-0.227,1.769-0.68,2.38c-0.453,0.612-1.061,1.037-1.818,1.275l0.832,0.527l2.721,4.539h-2.687l-2.702-4.658l-1.225-0.221
			v4.879h-2.329V72.358z M56.595,74.143c-0.237,0-0.473,0.006-0.705,0.017s-0.41,0.034-0.535,0.067v3.451h0.986
			c0.646,0,1.161-0.146,1.547-0.441c0.385-0.295,0.578-0.782,0.578-1.462c0-0.511-0.159-0.909-0.477-1.198
			S57.208,74.143,56.595,74.143z"/>
		<path fill="#494949" d="M63.259,72.239h7.056v2.074h-4.726v2.771h4.301v2.074h-4.301v2.907h4.811v2.074h-7.141V72.239z"/>
		<path fill="#494949" d="M16.883,88.239c0.238-0.034,0.507-0.062,0.808-0.085c0.3-0.022,0.609-0.04,0.926-0.052
			c0.317-0.011,0.626-0.02,0.927-0.025c0.3-0.005,0.569-0.008,0.807-0.008c1.054,0,1.955,0.147,2.703,0.441
			c0.748,0.295,1.354,0.709,1.819,1.241c0.465,0.533,0.805,1.167,1.02,1.904s0.323,1.547,0.323,2.431
			c0,0.805-0.102,1.581-0.306,2.329s-0.544,1.411-1.02,1.989s-1.102,1.043-1.878,1.395c-0.776,0.351-1.737,0.526-2.881,0.526
			c-0.182,0-0.422-0.006-0.723-0.017c-0.3-0.012-0.612-0.025-0.935-0.043c-0.323-0.018-0.632-0.034-0.926-0.051
			c-0.295-0.018-0.516-0.037-0.663-0.06V88.239z M20.538,90.143c-0.249,0-0.501,0.006-0.756,0.017s-0.445,0.028-0.569,0.051v7.974
			c0.045,0.012,0.122,0.02,0.229,0.025c0.107,0.006,0.224,0.012,0.348,0.017c0.125,0.006,0.244,0.012,0.357,0.017
			c0.113,0.006,0.198,0.009,0.255,0.009c0.657,0,1.204-0.116,1.641-0.349c0.436-0.232,0.782-0.541,1.037-0.926
			c0.255-0.386,0.434-0.83,0.536-1.335c0.102-0.504,0.153-1.022,0.153-1.556c0-0.465-0.045-0.932-0.136-1.402
			c-0.091-0.471-0.258-0.893-0.501-1.267c-0.244-0.374-0.575-0.68-0.995-0.918C21.717,90.262,21.184,90.143,20.538,90.143z"/>
		<path fill="#494949" d="M27.882,88.239h7.055v2.074h-4.726v2.771h4.301v2.074h-4.301v2.907h4.811v2.074h-7.14V88.239z"/>
		<path fill="#494949" d="M44.287,100.139h-7.531v-11.9h2.329v9.826h5.202V100.139z"/>
		<path fill="#494949" d="M49.285,97.504H45.63l-0.9,2.635H42.4l4.284-11.985h1.717l4.284,11.985h-2.448L49.285,97.504z
			 M46.226,95.633h2.55l-0.884-2.652l-0.357-1.869h-0.085l-0.356,1.887L46.226,95.633z"/>
		<path fill="#494949" d="M55.065,95.719l-3.91-7.48h2.771l2.176,4.471l0.238,1.258h0.084l0.256-1.291l2.107-4.438h2.5l-3.894,7.463
			v4.438h-2.329V95.719z"/>
		<path fill="#494949" d="M67.407,96.943c0-0.362-0.133-0.657-0.399-0.884s-0.601-0.434-1.003-0.621s-0.839-0.379-1.309-0.578
			c-0.471-0.197-0.907-0.441-1.31-0.73s-0.737-0.648-1.003-1.08c-0.266-0.43-0.399-0.98-0.399-1.648c0-0.578,0.097-1.08,0.289-1.505
			s0.468-0.778,0.825-1.062c0.356-0.283,0.778-0.493,1.266-0.629S65.396,88,65.997,88c0.69,0,1.342,0.06,1.955,0.179
			c0.611,0.119,1.115,0.292,1.512,0.519l-0.73,1.955c-0.25-0.158-0.623-0.303-1.122-0.434s-1.037-0.195-1.614-0.195
			c-0.545,0-0.961,0.107-1.25,0.322c-0.289,0.216-0.434,0.505-0.434,0.867c0,0.34,0.133,0.623,0.399,0.85
			c0.267,0.228,0.601,0.438,1.003,0.63s0.839,0.391,1.309,0.595c0.471,0.204,0.907,0.451,1.31,0.74
			c0.401,0.289,0.736,0.646,1.003,1.07c0.266,0.425,0.399,0.955,0.399,1.59s-0.104,1.182-0.314,1.641s-0.505,0.841-0.884,1.146
			c-0.38,0.307-0.839,0.533-1.377,0.681c-0.539,0.147-1.131,0.221-1.777,0.221c-0.85,0-1.598-0.079-2.243-0.237
			c-0.646-0.159-1.122-0.318-1.429-0.477l0.748-1.988c0.125,0.067,0.287,0.141,0.484,0.221c0.199,0.079,0.423,0.152,0.672,0.221
			c0.25,0.068,0.513,0.125,0.791,0.17c0.277,0.045,0.563,0.068,0.858,0.068c0.69,0,1.221-0.116,1.589-0.349
			C67.224,97.773,67.407,97.418,67.407,96.943z"/>
	</g>
	<g>
		<g>
			<polyline fill-rule="evenodd" clip-rule="evenodd" fill="#FFFFFF" points="15.457,58.87 41.77,12.404 68.696,59 15.457,58.87 			
				"/>
			<path fill-rule="evenodd" clip-rule="evenodd" fill="#E4001C" d="M16.719,61.893c-1.422,0.014-2.714-0.711-3.41-1.941
				c-0.711-1.229-0.711-2.699,0.033-3.928l25.227-43.57c0.696-1.18,1.957-1.906,3.33-1.906c1.358,0,2.619,0.727,3.314,1.906
				l25.295,43.619c0.66,1.198,0.648,2.633-0.032,3.815c-0.698,1.213-2.005,1.957-3.414,1.936L16.719,61.893 M64.896,56.735H18.885
				l23.046-39.772L64.896,56.735z"/>
		</g>
		<path fill-rule="evenodd" clip-rule="evenodd" fill="#1A1718" d="M38.053,34.271c0.111,0,0.242,0,0.371,0c0.13,0,0.259,0,0.389,0
			c0.031,0.031,0.08,0.08,0.128,0.129c0.016,0.127,0.034,0.256,0.064,0.389c-0.08,0.08-0.162,0.16-0.259,0.256
			c-0.113,0.148-0.243,0.293-0.373,0.438c-0.128,0.146-0.257,0.291-0.386,0.453c-0.097,0.242-0.21,0.5-0.324,0.76
			c0,0.242,0,0.5,0,0.758c0.033,0.275,0.08,0.549,0.13,0.842c0.063,0.436,0.129,0.873,0.194,1.326
			c0.082,0.404,0.16,0.807,0.258,1.211c-0.016,0.064-0.032,0.131-0.063,0.193c-0.082,0.178-0.163,0.373-0.26,0.566
			c-0.129,0.275-0.259,0.551-0.386,0.84c-0.147,0.273-0.292,0.551-0.438,0.824c-0.064,0.307-0.13,0.631-0.196,0.957
			c-0.063,0.207-0.127,0.416-0.192,0.627c-0.018,0.26-0.031,0.516-0.065,0.777c-0.696,0.42-1.391,0.84-2.101,1.262
			c-0.066-0.148-0.13-0.295-0.195-0.438c-0.048-0.066-0.112-0.131-0.178-0.195c-0.032-0.031-0.079-0.08-0.126-0.129
			c-0.1-0.014-0.213-0.031-0.326-0.064c-0.145-0.064-0.292-0.131-0.452-0.193c-0.097-0.031-0.194-0.082-0.307-0.129
			c-0.066-0.08-0.129-0.164-0.194-0.242c-0.066-0.133-0.129-0.26-0.195-0.389c-0.128-0.178-0.257-0.373-0.386-0.566
			c-0.114-0.131-0.244-0.258-0.373-0.387c-0.195-0.066-0.389-0.129-0.583-0.195c-0.16,0-0.323,0-0.502,0
			c-0.16-0.064-0.337-0.129-0.516-0.195c-0.209-0.014-0.422-0.029-0.629-0.062c-0.244,0.016-0.502,0.033-0.759,0.062
			c-2.069,3.719-4.155,7.438-6.241,11.154c4.786,0,9.585,0,14.384,0c-0.129-0.615-0.258-1.229-0.389-1.857
			c-0.159-0.682-0.321-1.359-0.499-2.039c-0.26-0.693-0.518-1.391-0.776-2.1c-0.179-0.355-0.372-0.713-0.566-1.082
			c0.694-0.422,1.389-0.84,2.101-1.262c0.226,0,0.454,0,0.696,0c0.127-0.016,0.257-0.031,0.386-0.066
			c0.178-0.08,0.372-0.16,0.565-0.258c0.099-0.08,0.211-0.16,0.325-0.258c0.015-0.066,0.031-0.129,0.063-0.195
			c0-0.096,0-0.191,0-0.305c0.824-0.535,1.649-1.068,2.489-1.602c-0.274,0.629-0.549,1.262-0.84,1.906c0,0.227,0,0.471,0,0.711
			c-0.048,0.891-0.113,1.777-0.177,2.666c-0.064,1.455-0.13,2.926-0.193,4.398c-0.534,0.178-1.068,0.373-1.6,0.566
			c-0.146,0.08-0.293,0.16-0.438,0.256c-0.064,0.018-0.129,0.033-0.194,0.066c0,0.08,0,0.162,0,0.258c0,0.033,0,0.082,0,0.129
			c0.081,0.016,0.162,0.033,0.26,0.066c1.534,0,3.085,0,4.638,0c0.436-2.246,0.889-4.492,1.341-6.756c-0.064,0-0.129,0-0.193,0
			c0-0.277,0-0.551,0-0.826c0.774-1.371,1.567-2.744,2.357-4.135c0.082,0.482,0.164,0.969,0.26,1.471
			c0.048,0.223,0.113,0.451,0.177,0.691c0.097,0.227,0.211,0.455,0.324,0.697c0.148,0.275,0.293,0.551,0.453,0.826
			c0.097,0.225,0.196,0.465,0.308,0.709c0.146,0.176,0.289,0.373,0.453,0.566c0.16,0.16,0.321,0.336,0.5,0.516
			c0.289,0.244,0.599,0.5,0.906,0.76c0.791,0.678,1.602,1.357,2.406,2.035c0.358,0.291,0.713,0.584,1.084,0.891
			c0.031,0.082,0.08,0.162,0.127,0.26c-0.015,0.127-0.031,0.258-0.064,0.387c-0.031,0.098-0.079,0.193-0.129,0.307
			c-0.062,0.146-0.127,0.293-0.191,0.453c-0.339,0.34-0.681,0.68-1.02,1.02c0,0.031,0,0.078,0,0.129c0.531,0,1.066,0,1.602,0
			c0.112-0.066,0.242-0.129,0.371-0.195c0.129-0.031,0.258-0.08,0.386-0.129c0.067-0.129,0.131-0.258,0.196-0.387
			c0.484-0.793,0.97-1.6,1.471-2.41c0.096-0.256,0.193-0.518,0.307-0.775c-0.227-0.08-0.453-0.16-0.695-0.242
			c-0.131-0.082-0.258-0.162-0.389-0.258c-0.096-0.096-0.193-0.209-0.308-0.324c-0.501-0.566-1.017-1.131-1.536-1.713
			c-0.677-0.775-1.357-1.566-2.036-2.359c-0.078,0.064-0.161,0.129-0.259,0.193c-0.145-0.145-0.291-0.291-0.433-0.451
			c-0.081-0.098-0.163-0.193-0.261-0.307c-0.031-0.146-0.081-0.291-0.128-0.453c-0.031-0.357-0.081-0.713-0.132-1.082
			c-0.031-0.438-0.08-0.891-0.129-1.344c-0.112-0.434-0.24-0.871-0.372-1.324c-0.095-0.291-0.208-0.58-0.321-0.889
			c-0.127-0.34-0.26-0.68-0.39-1.02c0.097-0.08,0.212-0.16,0.325-0.258c0.146,0.082,0.291,0.162,0.452,0.258
			c0.03-0.033,0.065-0.08,0.113-0.125c0.128-0.082,0.256-0.164,0.388-0.262c0.098-0.062,0.21-0.129,0.322-0.193
			c0.082-0.096,0.16-0.209,0.26-0.322c0.049-0.049,0.111-0.113,0.176-0.18c-0.016-0.131-0.029-0.258-0.064-0.387
			c-0.031-0.068-0.062-0.131-0.111-0.195c-0.08-0.082-0.164-0.162-0.26-0.256c-0.062-0.035-0.129-0.082-0.193-0.133
			c-0.08-0.289-0.162-0.58-0.261-0.889c-0.063-0.418-0.128-0.84-0.191-1.26c-0.034-0.129-0.064-0.26-0.112-0.387
			c-0.132-0.309-0.258-0.631-0.391-0.955c-0.127-0.291-0.256-0.58-0.387-0.889c-0.113-0.211-0.24-0.418-0.371-0.645
			c-0.226-0.213-0.469-0.422-0.711-0.633c-0.179-0.145-0.373-0.289-0.564-0.453c-0.211-0.047-0.424-0.113-0.649-0.176
			c-0.226-0.018-0.45-0.033-0.693-0.066c-0.228,0-0.454,0-0.695,0c-0.21,0.018-0.419,0.033-0.63,0.066
			c-0.211,0.047-0.42,0.113-0.646,0.176c-0.548,0.197-1.098,0.389-1.649,0.584c-0.354,0.16-0.709,0.322-1.082,0.502
			c-0.226,0.129-0.47,0.256-0.712,0.387c-0.082-0.033-0.162-0.082-0.242-0.131c0-0.064,0-0.127,0-0.193c0,0.018,0,0.033,0,0.066
			c0.128-0.373,0.064-0.324,0.064-0.697c0-1.275-1.083-2.424-2.425-2.424c-1.342,0-2.424,1.148-2.424,2.424
			c0,1.342,1.082,2.475,2.424,2.475c0.065-0.016,0.13-0.033,0.194-0.049C38.101,34.238,38.085,34.256,38.053,34.271"/>
	</g>
</g>
<g>
	<g>
		<path fill="#494949" d="M401.229,94.551c-0.363,0.26-0.824,0.445-1.386,0.557c-0.562,0.113-1.136,0.169-1.726,0.169
			c-0.714,0-1.391-0.11-2.031-0.331s-1.205-0.578-1.691-1.071c-0.488-0.493-0.875-1.134-1.164-1.921s-0.434-1.742-0.434-2.865
			c0-1.166,0.161-2.145,0.484-2.932c0.322-0.787,0.742-1.422,1.258-1.904c0.516-0.481,1.09-0.827,1.725-1.037
			c0.635-0.209,1.27-0.314,1.904-0.314c0.681,0,1.256,0.045,1.727,0.137c0.47,0.09,0.857,0.197,1.164,0.322l-0.459,1.973
			c-0.262-0.125-0.57-0.216-0.927-0.272s-0.79-0.085-1.3-0.085c-0.941,0-1.698,0.335-2.27,1.005
			c-0.573,0.671-0.859,1.71-0.859,3.118c0,0.613,0.068,1.172,0.204,1.678c0.136,0.505,0.343,0.937,0.62,1.295
			c0.278,0.357,0.623,0.636,1.037,0.834c0.414,0.199,0.893,0.299,1.438,0.299c0.51,0,0.939-0.052,1.291-0.153
			c0.352-0.103,0.658-0.232,0.918-0.392L401.229,94.551z"/>
		<path fill="#494949" d="M410.204,95.039h-7.53v-11.9h2.328v9.826h5.202V95.039z"/>
		<path fill="#494949" d="M411.411,83.139h7.056v2.074h-4.727v2.771h4.301v2.074h-4.301v2.907h4.811v2.074h-7.14V83.139z"/>
		<path fill="#494949" d="M426.15,92.404h-3.655l-0.901,2.635h-2.328l4.283-11.985h1.717l4.284,11.985h-2.447L426.15,92.404z
			 M423.09,90.533h2.551l-0.885-2.652l-0.357-1.869h-0.084l-0.357,1.887L423.09,90.533z"/>
		<path fill="#494949" d="M430.57,83.258c0.261-0.045,0.541-0.088,0.841-0.128c0.301-0.04,0.602-0.07,0.902-0.093
			c0.299-0.023,0.592-0.04,0.875-0.052c0.283-0.011,0.544-0.017,0.781-0.017c0.556,0,1.103,0.051,1.641,0.152
			c0.539,0.103,1.021,0.278,1.445,0.527c0.426,0.25,0.766,0.592,1.02,1.029c0.256,0.436,0.383,0.982,0.383,1.64
			c0,0.976-0.227,1.769-0.68,2.38c-0.453,0.612-1.061,1.037-1.818,1.275l0.832,0.527l2.721,4.539h-2.687l-2.702-4.658l-1.225-0.221
			v4.879h-2.329V83.258z M434.14,85.043c-0.237,0-0.473,0.006-0.705,0.017s-0.41,0.034-0.535,0.067v3.451h0.986
			c0.646,0,1.161-0.146,1.547-0.441c0.385-0.295,0.578-0.782,0.578-1.462c0-0.511-0.159-0.909-0.477-1.198
			S434.753,85.043,434.14,85.043z"/>
		<path fill="#494949" d="M440.804,83.139h7.056v2.074h-4.726v2.771h4.301v2.074h-4.301v2.907h4.811v2.074h-7.141V83.139z"/>
		<path fill="#494949" d="M449.679,83.139c0.237-0.034,0.506-0.062,0.807-0.085s0.609-0.04,0.927-0.052
			c0.317-0.011,0.626-0.02,0.927-0.025c0.3-0.005,0.569-0.008,0.807-0.008c1.055,0,1.955,0.147,2.703,0.441
			c0.748,0.295,1.354,0.709,1.819,1.241c0.465,0.533,0.805,1.167,1.021,1.904c0.215,0.737,0.322,1.547,0.322,2.431
			c0,0.805-0.102,1.581-0.306,2.329s-0.544,1.411-1.021,1.989c-0.476,0.578-1.102,1.043-1.878,1.395
			c-0.776,0.351-1.737,0.526-2.882,0.526c-0.182,0-0.422-0.006-0.723-0.017c-0.3-0.012-0.611-0.025-0.935-0.043
			s-0.632-0.034-0.927-0.051c-0.295-0.018-0.516-0.037-0.662-0.06V83.139z M453.333,85.043c-0.249,0-0.502,0.006-0.756,0.017
			c-0.256,0.011-0.445,0.028-0.57,0.051v7.974c0.045,0.012,0.122,0.02,0.23,0.025c0.107,0.006,0.223,0.012,0.348,0.017
			c0.125,0.006,0.244,0.012,0.357,0.017c0.113,0.006,0.197,0.009,0.255,0.009c0.657,0,1.204-0.116,1.641-0.349
			s0.782-0.541,1.036-0.926c0.256-0.386,0.434-0.83,0.536-1.335c0.103-0.504,0.153-1.022,0.153-1.556
			c0-0.465-0.046-0.932-0.137-1.402c-0.09-0.471-0.258-0.893-0.501-1.267c-0.244-0.374-0.575-0.68-0.995-0.918
			C454.512,85.162,453.979,85.043,453.333,85.043z"/>
	</g>
	<path fill-rule="evenodd" clip-rule="evenodd" fill="#00A900" d="M427.63,10.547c16.104,0,29.168,13.076,29.168,29.197
		c0,16.109-13.063,29.189-29.168,29.189c-16.099,0-29.168-13.08-29.168-29.189C398.462,23.623,411.531,10.547,427.63,10.547"/>
	<path fill-rule="evenodd" clip-rule="evenodd" fill="#FFFFFF" d="M427.714,16.383c12.883,0,23.336,10.463,23.336,23.361
		c0,12.889-10.453,23.354-23.336,23.354c-12.881,0-23.336-10.465-23.336-23.354C404.378,26.846,414.833,16.383,427.714,16.383"/>
	<path fill-rule="evenodd" clip-rule="evenodd" fill="#1A1718" d="M421.859,39.98c0.171,0,2.388-0.975,2.388-4.127
		s-2.823-5.969-7.52-5.969c-4.695,0-7.549,2.316-7.883,6.203l4.259,0.471c0.304-1.877,1.278-3.016,3.896-3.016
		c2.646,0,2.983,1.844,2.983,2.512c-0.032,1.814-1.106,2.482-4.493,2.482v3.426c0.971,0.064,3.017,0.033,3.621,0.402
		c1.14,0.77,1.14,1.338,1.14,2.078c0,0.471-0.032,2.818-3.088,2.818c-3.081,0-3.755-1.645-4.059-3.221l-4.259,0.773
		c0.504,3.486,2.92,6.203,8.22,6.203c5.336,0,7.55-3.557,7.55-6.373C424.614,41.857,422.903,40.182,421.859,39.98"/>
	<path fill-rule="evenodd" clip-rule="evenodd" fill="#1A1718" d="M437.63,33.744c2.147,0,4.295,1.24,4.361,6.506
		c0.066,5.299-1.91,6.91-4.361,6.91c-2.448,0-4.428-1.611-4.361-6.91C433.337,34.984,435.481,33.744,437.63,33.744 M437.63,29.918
		c2.92-0.033,8.553,1.643,8.553,10.498c0,8.82-5.334,10.602-8.553,10.602c-3.222,0-8.555-1.781-8.555-10.602
		C429.075,31.561,434.745,29.885,437.63,29.918z"/>
</g>
<g>
	<g>
		<path fill="#494949" d="M302.605,80.946c0-0.363-0.133-0.657-0.399-0.884c-0.266-0.227-0.601-0.434-1.003-0.621
			s-0.839-0.379-1.309-0.578s-0.907-0.442-1.309-0.731c-0.402-0.289-0.737-0.649-1.003-1.08s-0.399-0.98-0.399-1.649
			c0-0.578,0.096-1.08,0.289-1.505c0.192-0.425,0.467-0.779,0.825-1.062c0.357-0.283,0.779-0.493,1.266-0.629
			c0.487-0.136,1.031-0.204,1.632-0.204c0.691,0,1.343,0.06,1.955,0.179c0.612,0.119,1.116,0.292,1.513,0.519l-0.731,1.955
			c-0.25-0.159-0.624-0.303-1.122-0.434s-1.037-0.196-1.615-0.196c-0.544,0-0.96,0.108-1.25,0.323s-0.434,0.504-0.434,0.867
			c0,0.34,0.133,0.623,0.399,0.85c0.266,0.227,0.601,0.437,1.003,0.629s0.839,0.391,1.309,0.595s0.907,0.451,1.309,0.74
			c0.402,0.289,0.736,0.646,1.003,1.071c0.266,0.425,0.399,0.955,0.399,1.589c0,0.635-0.105,1.182-0.314,1.641
			c-0.21,0.459-0.504,0.841-0.884,1.147c-0.38,0.306-0.839,0.533-1.377,0.68c-0.539,0.147-1.131,0.221-1.777,0.221
			c-0.85,0-1.598-0.079-2.244-0.238s-1.122-0.317-1.428-0.476l0.748-1.989c0.125,0.068,0.286,0.142,0.484,0.221
			c0.198,0.08,0.422,0.153,0.671,0.221c0.25,0.068,0.513,0.125,0.791,0.17c0.278,0.045,0.564,0.068,0.859,0.068
			c0.691,0,1.221-0.116,1.589-0.348C302.421,81.776,302.605,81.422,302.605,80.946z"/>
		<path fill="#494949" d="M306.481,72.361c0.476-0.091,1-0.162,1.572-0.213c0.572-0.051,1.142-0.076,1.708-0.076
			c0.589,0,1.182,0.048,1.777,0.145c0.595,0.096,1.13,0.289,1.606,0.578s0.864,0.691,1.165,1.207c0.3,0.516,0.45,1.188,0.45,2.015
			c0,0.748-0.13,1.38-0.391,1.896c-0.261,0.516-0.606,0.938-1.037,1.267c-0.431,0.329-0.921,0.567-1.471,0.714
			c-0.55,0.147-1.119,0.221-1.708,0.221c-0.057,0-0.147,0-0.272,0c-0.125,0-0.255-0.003-0.391-0.009
			c-0.136-0.005-0.269-0.014-0.399-0.025s-0.224-0.022-0.28-0.034v4.097h-2.329V72.361z M309.949,74.078
			c-0.227,0-0.442,0.008-0.646,0.025c-0.204,0.017-0.368,0.037-0.493,0.06v3.859c0.045,0.012,0.113,0.023,0.204,0.034
			c0.09,0.011,0.187,0.02,0.289,0.025c0.102,0.006,0.201,0.009,0.298,0.009c0.096,0,0.167,0,0.212,0c0.306,0,0.609-0.028,0.91-0.085
			c0.3-0.056,0.569-0.161,0.807-0.314c0.238-0.153,0.428-0.365,0.57-0.637c0.142-0.272,0.212-0.629,0.212-1.071
			c0-0.374-0.068-0.683-0.204-0.926c-0.136-0.244-0.314-0.439-0.536-0.586c-0.221-0.147-0.473-0.25-0.756-0.306
			S310.244,74.078,309.949,74.078z"/>
		<path fill="#494949" d="M316.205,72.242h7.055v2.074h-4.726v2.771h4.301v2.074h-4.301v2.907h4.811v2.074h-7.14V72.242z"/>
		<path fill="#494949" d="M333.137,83.655c-0.363,0.259-0.825,0.444-1.386,0.557s-1.136,0.168-1.726,0.168
			c-0.714,0-1.391-0.11-2.031-0.331c-0.641-0.221-1.205-0.578-1.691-1.071c-0.488-0.493-0.875-1.133-1.165-1.921
			s-0.434-1.743-0.434-2.865c0-1.167,0.162-2.145,0.484-2.932c0.323-0.788,0.742-1.422,1.258-1.904
			c0.516-0.481,1.09-0.827,1.725-1.037c0.635-0.209,1.27-0.314,1.904-0.314c0.68,0,1.255,0.045,1.726,0.136
			c0.47,0.091,0.858,0.198,1.165,0.323l-0.459,1.972c-0.261-0.125-0.57-0.215-0.927-0.272s-0.791-0.085-1.3-0.085
			c-0.941,0-1.698,0.335-2.27,1.005c-0.573,0.67-0.858,1.709-0.858,3.118c0,0.613,0.068,1.173,0.204,1.678
			c0.136,0.505,0.343,0.937,0.621,1.295c0.278,0.357,0.623,0.636,1.037,0.835c0.414,0.198,0.893,0.298,1.437,0.298
			c0.51,0,0.94-0.051,1.292-0.153c0.351-0.102,0.657-0.232,0.918-0.391L333.137,83.655z"/>
		<path fill="#494949" d="M334.819,72.242h2.329v11.9h-2.329V72.242z"/>
		<path fill="#494949" d="M345.292,81.507h-3.655l-0.901,2.635h-2.329l4.284-11.985h1.717l4.284,11.985h-2.448L345.292,81.507z
			 M342.231,79.637h2.55l-0.884-2.652l-0.358-1.87h-0.085l-0.357,1.887L342.231,79.637z"/>
		<path fill="#494949" d="M357.243,84.142h-7.531v-11.9h2.329v9.826h5.202V84.142z"/>
		<path fill="#494949" d="M303.464,88.242h7.055v2.074h-4.726v2.771h4.301v2.074h-4.301v2.907h4.811v2.074h-7.14V88.242z"/>
		<path fill="#494949" d="M316.248,95.229l0.306,2.023h0.085l0.34-2.04l2.278-6.97h2.448l-4.42,11.985h-1.666l-4.454-11.985h2.703
			L316.248,95.229z"/>
		<path fill="#494949" d="M322.572,88.242h7.055v2.074h-4.726v2.771h4.301v2.074h-4.301v2.907h4.811v2.074h-7.14V88.242z"/>
		<path fill="#494949" d="M334.404,93.937l-0.935-1.87h-0.085l0.272,1.87v6.205h-2.21V88.157h1.7l4.505,6.341l0.901,1.819h0.085
			l-0.272-1.819v-6.256h2.21v11.985h-1.7L334.404,93.937z"/>
		<path fill="#494949" d="M351.064,90.316h-3.468v9.826h-2.329v-9.826h-3.485v-2.074h9.282V90.316z"/>
	</g>
	<polyline fill-rule="evenodd" clip-rule="evenodd" fill="#FFFFFF" points="313.538,58.785 299.25,58.785 325.399,12.767 
		351.788,58.785 313.538,58.785 	"/>
	<path fill-rule="evenodd" clip-rule="evenodd" fill="#007ADF" d="M350.631,61.85c1.372-0.018,2.642-0.752,3.321-1.94
		c0.686-1.188,0.686-2.656,0-3.842l-25.175-43.589c-0.685-1.194-1.953-1.931-3.333-1.931c-1.369,0-2.637,0.732-3.327,1.919
		l-25.182,43.602c-0.684,1.186-0.684,2.654,0,3.842c0.7,1.188,1.972,1.923,3.34,1.923L350.631,61.85 M302.493,56.701h45.91
		l-22.958-39.735L302.493,56.701z"/>
	<path fill-rule="evenodd" clip-rule="evenodd" fill="#1A1718" d="M325.282,47.655c1.89,0,3.422,1.535,3.422,3.421
		c0,1.89-1.532,3.421-3.422,3.421c-1.886,0-3.418-1.531-3.418-3.421C321.864,49.19,323.396,47.655,325.282,47.655"/>
	<path fill-rule="evenodd" clip-rule="evenodd" fill="#1A1718" d="M324.795,45.949h1.025l3.833-15.165
		c0.062-0.301,0.093-0.607,0.093-0.913c0-2.446-1.992-4.435-4.446-4.435c-2.456,0-4.446,1.988-4.446,4.435
		c0,0.306,0.033,0.612,0.095,0.913L324.795,45.949"/>
</g>
<g>
	<g>
		<path fill="#494949" d="M217.571,77.967l0.255-2.363h-0.102l-0.731,1.904l-2.533,4.437h-0.748l-2.669-4.454l-0.748-1.887h-0.085
			l0.34,2.346v6.188h-2.21v-11.9h2.125l3.179,5.44l0.561,1.36h0.068l0.51-1.394l3.009-5.406h2.108v11.9h-2.329V77.967z"/>
		<path fill="#494949" d="M222.177,72.238h2.329v11.9h-2.329V72.238z"/>
		<path fill="#494949" d="M229.743,77.933l-0.935-1.87h-0.085l0.272,1.87v6.205h-2.21V72.153h1.7l4.505,6.341l0.901,1.819h0.085
			l-0.272-1.819v-6.256h2.21v11.985h-1.7L229.743,77.933z"/>
		<path fill="#494949" d="M237.58,78.188c0-1.983,0.436-3.51,1.309-4.582c0.873-1.071,2.119-1.606,3.74-1.606
			c0.85,0,1.592,0.147,2.227,0.442c0.635,0.294,1.162,0.714,1.581,1.258s0.731,1.196,0.935,1.955s0.306,1.604,0.306,2.533
			c0,1.983-0.439,3.511-1.318,4.582c-0.878,1.071-2.122,1.606-3.731,1.606c-0.861,0-1.609-0.147-2.244-0.442
			c-0.635-0.294-1.159-0.714-1.573-1.258s-0.723-1.196-0.926-1.955C237.682,79.962,237.58,79.118,237.58,78.188z M240.028,78.188
			c0,0.601,0.051,1.153,0.153,1.658s0.258,0.938,0.467,1.3c0.21,0.363,0.479,0.646,0.808,0.85s0.72,0.306,1.173,0.306
			c0.827,0,1.468-0.323,1.921-0.969c0.453-0.646,0.68-1.694,0.68-3.145c0-0.578-0.048-1.116-0.145-1.615
			c-0.096-0.499-0.247-0.935-0.45-1.309c-0.204-0.374-0.471-0.666-0.799-0.875c-0.329-0.209-0.731-0.314-1.207-0.314
			c-0.827,0-1.468,0.332-1.921,0.995C240.254,75.731,240.028,76.771,240.028,78.188z"/>
		<path fill="#494949" d="M249.343,72.357c0.261-0.045,0.541-0.088,0.841-0.128c0.3-0.04,0.601-0.07,0.901-0.093
			c0.3-0.022,0.592-0.04,0.875-0.051c0.283-0.011,0.544-0.017,0.782-0.017c0.555,0,1.102,0.051,1.641,0.153
			c0.538,0.102,1.02,0.278,1.445,0.527c0.425,0.25,0.765,0.592,1.02,1.029c0.255,0.436,0.383,0.983,0.383,1.64
			c0,0.975-0.227,1.768-0.68,2.38c-0.454,0.612-1.06,1.037-1.819,1.275l0.833,0.527l2.72,4.539h-2.686l-2.703-4.658l-1.224-0.221
			v4.879h-2.329V72.357z M252.913,74.142c-0.238,0-0.473,0.006-0.706,0.017s-0.411,0.034-0.535,0.068v3.451h0.986
			c0.646,0,1.162-0.147,1.547-0.442s0.578-0.782,0.578-1.462c0-0.51-0.159-0.91-0.476-1.199S253.525,74.142,252.913,74.142z"/>
		<path fill="#494949" d="M206.759,88.238c0.238-0.034,0.507-0.062,0.808-0.085c0.3-0.023,0.609-0.04,0.926-0.051
			c0.317-0.011,0.626-0.02,0.927-0.025c0.3-0.005,0.569-0.008,0.807-0.008c1.054,0,1.955,0.147,2.703,0.442
			c0.748,0.295,1.354,0.708,1.819,1.241c0.465,0.533,0.805,1.167,1.02,1.904s0.323,1.547,0.323,2.431
			c0,0.805-0.102,1.581-0.306,2.329s-0.544,1.411-1.02,1.989s-1.102,1.043-1.878,1.394s-1.737,0.527-2.881,0.527
			c-0.182,0-0.422-0.006-0.723-0.017s-0.612-0.025-0.935-0.042c-0.323-0.017-0.632-0.034-0.926-0.051
			c-0.295-0.017-0.516-0.037-0.663-0.06V88.238z M210.414,90.142c-0.249,0-0.501,0.006-0.756,0.017s-0.445,0.028-0.569,0.051v7.973
			c0.045,0.012,0.122,0.02,0.229,0.025c0.107,0.006,0.224,0.012,0.348,0.017c0.125,0.006,0.244,0.012,0.357,0.017
			c0.113,0.006,0.198,0.008,0.255,0.008c0.657,0,1.204-0.116,1.641-0.348c0.436-0.232,0.782-0.541,1.037-0.927
			c0.255-0.385,0.434-0.83,0.536-1.334c0.102-0.504,0.153-1.022,0.153-1.555c0-0.465-0.045-0.932-0.136-1.403
			c-0.091-0.47-0.258-0.893-0.501-1.267c-0.244-0.374-0.575-0.68-0.995-0.918C211.592,90.261,211.06,90.142,210.414,90.142z"/>
		<path fill="#494949" d="M217.758,88.238h7.055v2.074h-4.726v2.771h4.301v2.074h-4.301v2.907h4.811v2.074h-7.14V88.238z"/>
		<path fill="#494949" d="M234.162,100.138h-7.531v-11.9h2.329v9.826h5.202V100.138z"/>
		<path fill="#494949" d="M239.16,97.503h-3.655l-0.901,2.635h-2.329l4.284-11.985h1.717l4.284,11.985h-2.448L239.16,97.503z
			 M236.101,95.633h2.55l-0.884-2.652l-0.357-1.87h-0.085l-0.357,1.887L236.101,95.633z"/>
		<path fill="#494949" d="M244.94,95.718l-3.91-7.48h2.771l2.176,4.471l0.238,1.258h0.085l0.255-1.292l2.108-4.437h2.499
			l-3.893,7.463v4.437h-2.329V95.718z"/>
		<path fill="#494949" d="M257.282,96.942c0-0.363-0.133-0.657-0.399-0.884c-0.266-0.227-0.601-0.434-1.003-0.621
			s-0.839-0.379-1.309-0.578s-0.907-0.442-1.309-0.731c-0.402-0.289-0.737-0.649-1.003-1.08s-0.399-0.98-0.399-1.649
			c0-0.578,0.096-1.08,0.289-1.505c0.192-0.425,0.467-0.779,0.825-1.062c0.357-0.283,0.779-0.493,1.266-0.629
			c0.487-0.136,1.031-0.204,1.632-0.204c0.691,0,1.343,0.06,1.955,0.179c0.612,0.119,1.116,0.292,1.513,0.519l-0.731,1.955
			c-0.25-0.159-0.624-0.303-1.122-0.434s-1.037-0.196-1.615-0.196c-0.544,0-0.96,0.108-1.25,0.323s-0.434,0.504-0.434,0.867
			c0,0.34,0.133,0.623,0.399,0.85c0.266,0.227,0.601,0.437,1.003,0.629s0.839,0.391,1.309,0.595s0.907,0.451,1.309,0.74
			c0.402,0.289,0.736,0.646,1.003,1.071c0.266,0.425,0.399,0.955,0.399,1.589c0,0.635-0.105,1.182-0.314,1.641
			c-0.21,0.459-0.504,0.841-0.884,1.147c-0.38,0.306-0.839,0.533-1.377,0.68c-0.539,0.147-1.131,0.221-1.777,0.221
			c-0.85,0-1.598-0.079-2.244-0.238s-1.122-0.317-1.428-0.476l0.748-1.989c0.125,0.068,0.286,0.142,0.484,0.221
			c0.198,0.08,0.422,0.153,0.671,0.221c0.25,0.068,0.513,0.125,0.791,0.17c0.278,0.045,0.564,0.068,0.859,0.068
			c0.691,0,1.221-0.116,1.589-0.348C257.098,97.772,257.282,97.418,257.282,96.942z"/>
	</g>
	<g>
		<g>
			<polyline fill-rule="evenodd" clip-rule="evenodd" fill="#FFFFFF" points="205.332,58.871 231.646,12.404 258.572,59.002 
				205.332,58.871 			"/>
			<path fill-rule="evenodd" clip-rule="evenodd" fill="#FBC934" d="M206.594,61.895c-1.422,0.014-2.714-0.711-3.41-1.941
				c-0.711-1.229-0.711-2.699,0.033-3.928l25.227-43.572c0.696-1.18,1.957-1.906,3.33-1.906c1.358,0,2.618,0.727,3.314,1.906
				l25.294,43.621c0.66,1.197,0.648,2.633-0.032,3.814c-0.698,1.213-2.005,1.957-3.414,1.936L206.594,61.895 M254.772,56.736
				h-46.011l23.046-39.773L254.772,56.736z"/>
		</g>
		<path fill-rule="evenodd" clip-rule="evenodd" fill="#1A1718" d="M227.928,34.273c0.111,0,0.242,0,0.371,0c0.13,0,0.259,0,0.389,0
			c0.031,0.031,0.08,0.08,0.128,0.129c0.016,0.127,0.034,0.256,0.064,0.389c-0.08,0.08-0.162,0.16-0.259,0.256
			c-0.113,0.148-0.243,0.293-0.373,0.438c-0.128,0.146-0.257,0.291-0.386,0.453c-0.097,0.242-0.21,0.5-0.324,0.76
			c0,0.242,0,0.5,0,0.758c0.033,0.275,0.08,0.549,0.13,0.842c0.063,0.436,0.129,0.873,0.194,1.326
			c0.082,0.404,0.16,0.807,0.258,1.211c-0.016,0.064-0.032,0.131-0.063,0.193c-0.082,0.178-0.163,0.373-0.26,0.566
			c-0.129,0.275-0.259,0.551-0.386,0.84c-0.147,0.273-0.292,0.551-0.438,0.824c-0.064,0.307-0.13,0.631-0.196,0.957
			c-0.063,0.207-0.127,0.416-0.192,0.627c-0.018,0.26-0.031,0.516-0.065,0.777c-0.696,0.42-1.391,0.84-2.101,1.262
			c-0.066-0.148-0.13-0.295-0.195-0.438c-0.048-0.066-0.112-0.131-0.178-0.195c-0.032-0.031-0.079-0.08-0.126-0.129
			c-0.1-0.014-0.213-0.031-0.326-0.064c-0.145-0.064-0.292-0.131-0.452-0.193c-0.097-0.031-0.194-0.082-0.307-0.129
			c-0.066-0.08-0.129-0.164-0.194-0.242c-0.066-0.133-0.129-0.26-0.195-0.389c-0.128-0.178-0.257-0.373-0.386-0.566
			c-0.114-0.131-0.244-0.258-0.373-0.387c-0.195-0.066-0.389-0.129-0.583-0.195c-0.16,0-0.323,0-0.502,0
			c-0.16-0.064-0.337-0.129-0.516-0.195c-0.209-0.014-0.422-0.029-0.629-0.062c-0.244,0.016-0.502,0.033-0.759,0.062
			c-2.069,3.719-4.155,7.438-6.241,11.154c4.786,0,9.585,0,14.384,0c-0.129-0.615-0.258-1.229-0.389-1.857
			c-0.159-0.682-0.321-1.359-0.499-2.039c-0.26-0.693-0.518-1.391-0.776-2.1c-0.179-0.355-0.372-0.713-0.566-1.082
			c0.694-0.422,1.389-0.84,2.101-1.262c0.226,0,0.454,0,0.696,0c0.127-0.016,0.257-0.031,0.386-0.066
			c0.178-0.08,0.372-0.16,0.565-0.258c0.099-0.08,0.211-0.16,0.325-0.258c0.015-0.066,0.031-0.129,0.063-0.195
			c0-0.096,0-0.191,0-0.305c0.824-0.535,1.649-1.068,2.489-1.602c-0.274,0.629-0.549,1.262-0.84,1.906c0,0.227,0,0.471,0,0.711
			c-0.048,0.891-0.113,1.777-0.177,2.666c-0.064,1.455-0.13,2.926-0.193,4.398c-0.534,0.178-1.068,0.373-1.6,0.566
			c-0.146,0.08-0.293,0.16-0.438,0.256c-0.064,0.018-0.129,0.033-0.194,0.066c0,0.08,0,0.162,0,0.258c0,0.033,0,0.082,0,0.129
			c0.081,0.016,0.162,0.033,0.26,0.066c1.534,0,3.085,0,4.638,0c0.436-2.246,0.889-4.492,1.34-6.756c-0.064,0-0.128,0-0.193,0
			c0-0.277,0-0.551,0-0.826c0.774-1.371,1.567-2.744,2.358-4.135c0.082,0.482,0.163,0.969,0.26,1.471
			c0.047,0.223,0.113,0.451,0.176,0.691c0.097,0.227,0.211,0.455,0.324,0.697c0.148,0.275,0.293,0.551,0.453,0.826
			c0.097,0.225,0.196,0.465,0.308,0.709c0.146,0.176,0.289,0.373,0.452,0.566c0.161,0.16,0.322,0.336,0.501,0.516
			c0.289,0.244,0.598,0.5,0.905,0.76c0.792,0.678,1.602,1.357,2.407,2.035c0.358,0.291,0.712,0.584,1.083,0.891
			c0.032,0.082,0.081,0.162,0.128,0.26c-0.015,0.127-0.031,0.258-0.065,0.387c-0.031,0.098-0.079,0.193-0.129,0.307
			c-0.063,0.146-0.127,0.293-0.192,0.453c-0.338,0.34-0.68,0.68-1.019,1.02c0,0.031,0,0.078,0,0.129c0.531,0,1.066,0,1.601,0
			c0.113-0.066,0.243-0.129,0.371-0.195c0.129-0.031,0.258-0.08,0.386-0.129c0.067-0.129,0.131-0.258,0.196-0.387
			c0.485-0.793,0.97-1.6,1.472-2.41c0.095-0.256,0.193-0.518,0.306-0.775c-0.226-0.08-0.453-0.16-0.695-0.242
			c-0.131-0.082-0.259-0.162-0.389-0.258c-0.096-0.096-0.194-0.209-0.308-0.324c-0.5-0.566-1.017-1.131-1.536-1.713
			c-0.677-0.775-1.357-1.566-2.037-2.359c-0.078,0.064-0.161,0.129-0.258,0.193c-0.145-0.145-0.292-0.291-0.433-0.451
			c-0.082-0.098-0.163-0.193-0.261-0.307c-0.031-0.146-0.081-0.291-0.127-0.453c-0.031-0.357-0.082-0.713-0.131-1.082
			c-0.032-0.438-0.081-0.891-0.129-1.344c-0.113-0.434-0.241-0.871-0.373-1.324c-0.095-0.291-0.208-0.58-0.322-0.889
			c-0.127-0.34-0.259-0.68-0.389-1.02c0.096-0.08,0.212-0.16,0.325-0.258c0.147,0.082,0.291,0.162,0.452,0.258
			c0.031-0.033,0.065-0.08,0.113-0.125c0.127-0.082,0.256-0.164,0.388-0.262c0.097-0.062,0.21-0.129,0.322-0.193
			c0.082-0.096,0.161-0.209,0.259-0.322c0.049-0.049,0.112-0.113,0.177-0.18c-0.016-0.131-0.03-0.258-0.065-0.387
			c-0.032-0.068-0.063-0.131-0.112-0.195c-0.08-0.082-0.163-0.162-0.259-0.256c-0.063-0.035-0.129-0.082-0.193-0.133
			c-0.08-0.289-0.163-0.58-0.261-0.889c-0.063-0.418-0.128-0.84-0.191-1.26c-0.034-0.129-0.064-0.26-0.113-0.387
			c-0.131-0.309-0.257-0.631-0.39-0.957c-0.127-0.291-0.256-0.58-0.387-0.889c-0.113-0.211-0.24-0.418-0.37-0.645
			c-0.226-0.213-0.469-0.422-0.711-0.633c-0.179-0.145-0.374-0.289-0.565-0.453c-0.21-0.047-0.423-0.113-0.649-0.176
			c-0.226-0.018-0.45-0.033-0.693-0.066c-0.228,0-0.454,0-0.695,0c-0.21,0.018-0.419,0.033-0.63,0.066
			c-0.21,0.047-0.42,0.113-0.646,0.176c-0.548,0.197-1.098,0.389-1.649,0.584c-0.354,0.16-0.709,0.322-1.082,0.502
			c-0.226,0.129-0.47,0.256-0.712,0.387c-0.082-0.033-0.162-0.082-0.242-0.131c0-0.064,0-0.127,0-0.193c0,0.018,0,0.033,0,0.066
			c0.128-0.373,0.064-0.324,0.064-0.697c0-1.275-1.083-2.424-2.425-2.424c-1.342,0-2.424,1.148-2.424,2.424
			c0,1.342,1.082,2.477,2.424,2.477c0.065-0.016,0.13-0.033,0.194-0.049C227.977,34.24,227.96,34.258,227.928,34.273"/>
	</g>
</g>
<g>
	<g>
		<path fill="#494949" d="M115.795,77.964l0.254-2.363h-0.102l-0.73,1.904l-2.533,4.437h-0.748l-2.669-4.454l-0.748-1.887h-0.085
			l0.34,2.346v6.188h-2.21v-11.9h2.125l3.179,5.44l0.561,1.36h0.068l0.51-1.394l3.01-5.406h2.107v11.9h-2.328V77.964z"/>
		<path fill="#494949" d="M120.164,72.235h7.056v2.074h-4.727v2.771h4.301v2.074h-4.301v2.907h4.811v2.074h-7.14V72.235z"/>
		<path fill="#494949" d="M129.038,72.235c0.238-0.034,0.507-0.062,0.808-0.085c0.3-0.023,0.608-0.04,0.927-0.051
			c0.316-0.011,0.625-0.02,0.926-0.025c0.301-0.005,0.57-0.008,0.808-0.008c1.054,0,1.955,0.147,2.703,0.442
			c0.748,0.295,1.354,0.708,1.819,1.241c0.465,0.533,0.805,1.167,1.02,1.904s0.323,1.547,0.323,2.431
			c0,0.805-0.103,1.581-0.306,2.329c-0.205,0.748-0.545,1.411-1.021,1.989s-1.103,1.043-1.878,1.394
			c-0.777,0.351-1.737,0.527-2.882,0.527c-0.182,0-0.423-0.006-0.723-0.017s-0.612-0.025-0.935-0.042
			c-0.323-0.017-0.633-0.034-0.927-0.051c-0.295-0.017-0.517-0.037-0.663-0.06V72.235z M132.692,74.139
			c-0.248,0-0.501,0.006-0.756,0.017s-0.445,0.028-0.569,0.051v7.973c0.045,0.012,0.122,0.02,0.229,0.025
			c0.107,0.006,0.224,0.012,0.348,0.017c0.125,0.006,0.244,0.012,0.357,0.017c0.113,0.006,0.198,0.008,0.256,0.008
			c0.656,0,1.203-0.116,1.641-0.348c0.436-0.232,0.781-0.541,1.036-0.927c0.255-0.385,0.434-0.83,0.536-1.334
			c0.102-0.504,0.152-1.022,0.152-1.555c0-0.465-0.045-0.932-0.136-1.403c-0.091-0.47-0.258-0.893-0.501-1.267
			c-0.244-0.374-0.576-0.68-0.995-0.918C133.872,74.258,133.338,74.139,132.692,74.139z"/>
		<path fill="#494949" d="M140.274,72.235h2.329v11.9h-2.329V72.235z"/>
		<path fill="#494949" d="M151.341,72.235h2.21v7.684c0,0.771-0.102,1.434-0.307,1.989c-0.203,0.556-0.486,1.015-0.85,1.377
			c-0.362,0.363-0.805,0.629-1.326,0.799c-0.521,0.17-1.094,0.255-1.717,0.255c-3.015,0-4.521-1.377-4.521-4.131v-7.973h2.328v7.514
			c0,0.465,0.043,0.859,0.128,1.182c0.085,0.323,0.218,0.584,0.399,0.782s0.408,0.34,0.68,0.425c0.272,0.085,0.59,0.127,0.953,0.127
			c0.713,0,1.229-0.198,1.547-0.595c0.316-0.397,0.476-1.037,0.476-1.921V72.235z"/>
		<path fill="#494949" d="M164.771,77.964l0.255-2.363h-0.102l-0.731,1.904l-2.532,4.437h-0.748l-2.67-4.454l-0.748-1.887h-0.084
			l0.34,2.346v6.188h-2.211v-11.9h2.125l3.18,5.44l0.561,1.36h0.068l0.51-1.394l3.01-5.406h2.107v11.9h-2.329V77.964z"/>
		<path fill="#494949" d="M110.653,88.235c0.237-0.034,0.506-0.062,0.807-0.085s0.609-0.04,0.927-0.051
			c0.317-0.011,0.626-0.02,0.927-0.025c0.3-0.005,0.569-0.008,0.807-0.008c1.055,0,1.955,0.147,2.703,0.442
			c0.748,0.295,1.354,0.708,1.819,1.241c0.465,0.533,0.805,1.167,1.021,1.904c0.215,0.737,0.322,1.547,0.322,2.431
			c0,0.805-0.102,1.581-0.306,2.329s-0.544,1.411-1.021,1.989c-0.476,0.578-1.102,1.043-1.878,1.394s-1.737,0.527-2.882,0.527
			c-0.182,0-0.422-0.006-0.723-0.017c-0.3-0.011-0.611-0.025-0.935-0.042s-0.632-0.034-0.927-0.051
			c-0.295-0.017-0.516-0.037-0.662-0.06V88.235z M114.307,90.139c-0.249,0-0.502,0.006-0.756,0.017
			c-0.256,0.011-0.445,0.028-0.57,0.051v7.973c0.045,0.012,0.122,0.02,0.23,0.025c0.107,0.006,0.223,0.012,0.348,0.017
			c0.125,0.006,0.244,0.012,0.357,0.017c0.113,0.006,0.197,0.008,0.255,0.008c0.657,0,1.204-0.116,1.641-0.348
			s0.782-0.541,1.036-0.927c0.256-0.385,0.434-0.83,0.536-1.334c0.103-0.504,0.153-1.022,0.153-1.555
			c0-0.465-0.046-0.932-0.137-1.403c-0.09-0.47-0.258-0.893-0.501-1.267c-0.244-0.374-0.575-0.68-0.995-0.918
			C115.486,90.258,114.954,90.139,114.307,90.139z"/>
		<path fill="#494949" d="M121.651,88.235h7.056v2.074h-4.726v2.771h4.301v2.074h-4.301v2.907h4.811v2.074h-7.141V88.235z"/>
		<path fill="#494949" d="M138.055,100.135h-7.53v-11.9h2.329v9.826h5.201V100.135z"/>
		<path fill="#494949" d="M143.053,97.5h-3.654l-0.9,2.635h-2.33l4.285-11.985h1.717l4.283,11.985h-2.447L143.053,97.5z
			 M139.995,95.63h2.549l-0.883-2.652l-0.357-1.87h-0.086l-0.356,1.887L139.995,95.63z"/>
		<path fill="#494949" d="M148.834,95.715l-3.91-7.48h2.771l2.177,4.471l0.237,1.258h0.085l0.256-1.292l2.107-4.437h2.499
			l-3.894,7.463v4.437h-2.328V95.715z"/>
		<path fill="#494949" d="M161.176,96.939c0-0.363-0.134-0.657-0.4-0.884c-0.266-0.227-0.6-0.434-1.002-0.621
			s-0.84-0.379-1.31-0.578s-0.907-0.442-1.31-0.731c-0.402-0.289-0.736-0.649-1.002-1.08c-0.267-0.431-0.4-0.98-0.4-1.649
			c0-0.578,0.097-1.08,0.289-1.505c0.193-0.425,0.468-0.779,0.825-1.062c0.356-0.283,0.778-0.493,1.267-0.629
			c0.486-0.136,1.031-0.204,1.632-0.204c0.69,0,1.343,0.06,1.955,0.179s1.116,0.292,1.513,0.519l-0.73,1.955
			c-0.25-0.159-0.624-0.303-1.123-0.434c-0.498-0.13-1.037-0.196-1.614-0.196c-0.544,0-0.96,0.108-1.249,0.323
			s-0.434,0.504-0.434,0.867c0,0.34,0.133,0.623,0.398,0.85c0.267,0.227,0.602,0.437,1.004,0.629s0.838,0.391,1.309,0.595
			s0.906,0.451,1.309,0.74s0.736,0.646,1.004,1.071c0.266,0.425,0.398,0.955,0.398,1.589c0,0.635-0.104,1.182-0.314,1.641
			c-0.209,0.459-0.504,0.841-0.883,1.147c-0.381,0.306-0.84,0.533-1.377,0.68c-0.539,0.147-1.131,0.221-1.777,0.221
			c-0.85,0-1.598-0.079-2.244-0.238c-0.646-0.159-1.121-0.317-1.428-0.476l0.748-1.989c0.125,0.068,0.286,0.142,0.484,0.221
			c0.198,0.08,0.422,0.153,0.672,0.221c0.249,0.068,0.512,0.125,0.79,0.17c0.278,0.045,0.563,0.068,0.858,0.068
			c0.691,0,1.221-0.116,1.59-0.348C160.992,97.769,161.176,97.415,161.176,96.939z"/>
	</g>
	<g>
		<g>
			<polyline fill-rule="evenodd" clip-rule="evenodd" fill="#FFFFFF" points="109.225,58.869 135.54,12.404 162.465,59 
				109.225,58.869 			"/>
			<path fill-rule="evenodd" clip-rule="evenodd" fill="#FF8B00" d="M110.488,61.893c-1.423,0.014-2.714-0.711-3.41-1.941
				c-0.712-1.229-0.712-2.699,0.033-3.928l25.227-43.57c0.696-1.18,1.956-1.906,3.329-1.906c1.358,0,2.619,0.727,3.314,1.906
				l25.295,43.619c0.66,1.197,0.648,2.633-0.032,3.814c-0.698,1.213-2.005,1.957-3.414,1.936L110.488,61.893 M158.666,56.734
				h-46.011L135.7,16.963L158.666,56.734z"/>
		</g>
		<path fill-rule="evenodd" clip-rule="evenodd" fill="#1A1718" d="M131.822,34.271c0.111,0,0.242,0,0.371,0c0.13,0,0.259,0,0.39,0
			c0.031,0.031,0.08,0.08,0.128,0.129c0.016,0.127,0.034,0.256,0.064,0.389c-0.08,0.08-0.161,0.16-0.259,0.256
			c-0.113,0.148-0.243,0.293-0.373,0.438c-0.129,0.146-0.258,0.291-0.387,0.453c-0.097,0.242-0.209,0.5-0.324,0.76
			c0,0.242,0,0.5,0,0.758c0.033,0.275,0.08,0.549,0.131,0.842c0.062,0.436,0.129,0.873,0.193,1.326
			c0.082,0.404,0.16,0.807,0.258,1.211c-0.016,0.064-0.031,0.131-0.062,0.193c-0.082,0.178-0.163,0.373-0.26,0.566
			c-0.129,0.275-0.26,0.551-0.387,0.84c-0.146,0.273-0.291,0.551-0.438,0.824c-0.064,0.307-0.129,0.631-0.195,0.957
			c-0.062,0.207-0.127,0.416-0.191,0.627c-0.019,0.26-0.031,0.516-0.065,0.777c-0.696,0.42-1.391,0.84-2.101,1.262
			c-0.066-0.148-0.131-0.295-0.195-0.438c-0.048-0.066-0.112-0.131-0.178-0.195c-0.032-0.031-0.079-0.08-0.127-0.129
			c-0.1-0.014-0.213-0.031-0.325-0.064c-0.145-0.064-0.292-0.131-0.452-0.193c-0.097-0.031-0.193-0.082-0.307-0.129
			c-0.066-0.08-0.129-0.164-0.193-0.242c-0.066-0.133-0.129-0.26-0.195-0.389c-0.129-0.178-0.258-0.373-0.387-0.566
			c-0.113-0.131-0.244-0.258-0.372-0.387c-0.194-0.066-0.389-0.129-0.583-0.195c-0.16,0-0.323,0-0.502,0
			c-0.16-0.064-0.338-0.129-0.516-0.195c-0.209-0.014-0.422-0.029-0.629-0.062c-0.244,0.016-0.502,0.033-0.76,0.062
			c-2.068,3.719-4.154,7.438-6.24,11.154c4.786,0,9.585,0,14.385,0c-0.129-0.615-0.258-1.229-0.389-1.857
			c-0.16-0.682-0.322-1.359-0.5-2.039c-0.26-0.693-0.518-1.391-0.775-2.1c-0.179-0.355-0.371-0.713-0.566-1.082
			c0.695-0.422,1.39-0.84,2.102-1.262c0.226,0,0.453,0,0.695,0c0.127-0.016,0.258-0.031,0.387-0.066
			c0.178-0.08,0.372-0.16,0.565-0.258c0.099-0.08,0.212-0.16,0.325-0.258c0.015-0.066,0.031-0.129,0.062-0.195
			c0-0.096,0-0.191,0-0.305c0.824-0.535,1.648-1.068,2.489-1.602c-0.274,0.629-0.549,1.262-0.841,1.906c0,0.227,0,0.471,0,0.711
			c-0.048,0.891-0.113,1.777-0.177,2.666c-0.064,1.455-0.13,2.926-0.193,4.398c-0.534,0.178-1.068,0.373-1.601,0.566
			c-0.146,0.08-0.293,0.16-0.438,0.256c-0.063,0.018-0.129,0.033-0.193,0.066c0,0.08,0,0.162,0,0.258c0,0.033,0,0.082,0,0.129
			c0.081,0.016,0.162,0.033,0.26,0.066c1.533,0,3.086,0,4.638,0c0.436-2.246,0.889-4.492,1.341-6.756c-0.064,0-0.129,0-0.193,0
			c0-0.277,0-0.551,0-0.826c0.774-1.371,1.567-2.744,2.357-4.135c0.082,0.482,0.164,0.969,0.26,1.471
			c0.048,0.223,0.113,0.451,0.177,0.691c0.097,0.227,0.211,0.455,0.324,0.697c0.148,0.275,0.293,0.551,0.453,0.826
			c0.097,0.225,0.196,0.465,0.308,0.709c0.146,0.176,0.289,0.373,0.453,0.566c0.16,0.16,0.321,0.336,0.5,0.516
			c0.289,0.244,0.599,0.5,0.906,0.76c0.791,0.678,1.602,1.357,2.406,2.035c0.358,0.291,0.713,0.584,1.084,0.891
			c0.031,0.082,0.08,0.162,0.127,0.26c-0.015,0.127-0.031,0.258-0.064,0.387c-0.031,0.098-0.079,0.193-0.129,0.307
			c-0.062,0.146-0.127,0.293-0.191,0.453c-0.339,0.34-0.681,0.68-1.02,1.02c0,0.031,0,0.078,0,0.129c0.531,0,1.066,0,1.602,0
			c0.112-0.066,0.242-0.129,0.371-0.195c0.129-0.031,0.258-0.08,0.386-0.129c0.067-0.129,0.131-0.258,0.196-0.387
			c0.484-0.793,0.97-1.6,1.471-2.41c0.096-0.256,0.193-0.518,0.307-0.775c-0.227-0.08-0.453-0.16-0.695-0.242
			c-0.131-0.082-0.258-0.162-0.389-0.258c-0.096-0.096-0.193-0.209-0.308-0.324c-0.501-0.566-1.017-1.131-1.536-1.713
			c-0.677-0.775-1.357-1.566-2.036-2.359c-0.078,0.064-0.161,0.129-0.259,0.193c-0.145-0.145-0.291-0.291-0.433-0.451
			c-0.081-0.098-0.163-0.193-0.261-0.307c-0.031-0.146-0.081-0.291-0.128-0.453c-0.031-0.357-0.081-0.713-0.132-1.082
			c-0.031-0.438-0.08-0.891-0.129-1.344c-0.112-0.434-0.24-0.871-0.372-1.324c-0.095-0.291-0.208-0.58-0.321-0.889
			c-0.127-0.34-0.26-0.68-0.39-1.02c0.097-0.08,0.212-0.16,0.325-0.258c0.146,0.082,0.291,0.162,0.452,0.258
			c0.03-0.033,0.065-0.08,0.113-0.125c0.128-0.082,0.256-0.164,0.388-0.262c0.098-0.062,0.21-0.129,0.322-0.193
			c0.082-0.096,0.16-0.209,0.26-0.322c0.049-0.049,0.111-0.113,0.176-0.18c-0.016-0.131-0.029-0.258-0.064-0.387
			c-0.031-0.068-0.062-0.131-0.111-0.195c-0.08-0.082-0.164-0.162-0.26-0.256c-0.062-0.035-0.129-0.082-0.193-0.133
			c-0.08-0.289-0.162-0.58-0.261-0.889c-0.063-0.418-0.128-0.84-0.191-1.26c-0.034-0.129-0.064-0.26-0.112-0.387
			c-0.132-0.309-0.258-0.631-0.391-0.955c-0.127-0.291-0.256-0.58-0.387-0.889c-0.113-0.211-0.24-0.418-0.371-0.645
			c-0.226-0.213-0.469-0.422-0.711-0.633c-0.179-0.145-0.373-0.289-0.564-0.453c-0.211-0.047-0.424-0.113-0.649-0.176
			c-0.226-0.018-0.45-0.033-0.693-0.066c-0.228,0-0.454,0-0.695,0c-0.21,0.018-0.419,0.033-0.63,0.066
			c-0.211,0.047-0.42,0.113-0.646,0.176c-0.548,0.197-1.098,0.389-1.649,0.584c-0.354,0.16-0.709,0.322-1.081,0.502
			c-0.227,0.129-0.471,0.256-0.713,0.387c-0.081-0.033-0.161-0.082-0.241-0.131c0-0.064,0-0.127,0-0.193c0,0.018,0,0.033,0,0.066
			c0.128-0.373,0.064-0.324,0.064-0.697c0-1.275-1.083-2.424-2.425-2.424s-2.424,1.148-2.424,2.424c0,1.342,1.082,2.475,2.424,2.475
			c0.064-0.016,0.13-0.033,0.193-0.049C131.87,34.238,131.854,34.256,131.822,34.271"/>
	</g>
</g>
<path fill-rule="evenodd" clip-rule="evenodd" fill="#FFFFFF" d="M41.012,126.517c16.31,0,29.548,13.237,29.548,29.544
	c0,16.308-13.238,29.544-29.548,29.544c-16.305,0-29.539-13.236-29.539-29.544C11.473,139.754,24.707,126.517,41.012,126.517"/>
<path fill-rule="evenodd" clip-rule="evenodd" fill="#E4001C" d="M41.012,126.636c16.229,0,29.427,13.199,29.427,29.425
	s-13.198,29.425-29.427,29.425c-16.224,0-29.421-13.199-29.421-29.425S24.788,126.636,41.012,126.636V126.4
	c-16.352,0-29.66,13.306-29.66,29.66c0,16.358,13.309,29.66,29.66,29.66c16.359,0,29.662-13.302,29.662-29.66
	c0-16.354-13.303-29.66-29.662-29.66V126.636"/>
<path fill-rule="evenodd" clip-rule="evenodd" fill="#E4001C" d="M41.065,131.658c13.443,0,24.354,10.911,24.354,24.351
	c0,13.447-10.911,24.356-24.354,24.356c-13.446,0-24.355-10.909-24.355-24.356C16.71,142.569,27.619,131.658,41.065,131.658"/>
<path fill-rule="evenodd" clip-rule="evenodd" fill="#FFFFFF" d="M20.75,161.098c-0.748,0-1.355-0.605-1.355-1.354v-7.441
	c0-0.742,0.607-1.344,1.355-1.344h40.608c0.739,0.006,1.327,0.607,1.327,1.344v7.441c0,0.745-0.588,1.35-1.327,1.354H20.75"/>
<g>
	<path fill="#494949" d="M21.636,195.84c0.261-0.045,0.541-0.088,0.841-0.128c0.3-0.04,0.601-0.07,0.901-0.093
		c0.3-0.022,0.592-0.04,0.875-0.051c0.283-0.011,0.544-0.017,0.782-0.017c0.555,0,1.102,0.051,1.641,0.153
		c0.538,0.102,1.02,0.278,1.445,0.527c0.425,0.25,0.765,0.592,1.02,1.029c0.255,0.436,0.383,0.983,0.383,1.64
		c0,0.975-0.227,1.768-0.68,2.38c-0.454,0.612-1.06,1.037-1.819,1.275l0.833,0.527l2.72,4.539h-2.686l-2.703-4.658l-1.224-0.221
		v4.879h-2.329V195.84z M25.206,197.625c-0.238,0-0.473,0.006-0.706,0.017s-0.411,0.034-0.535,0.068v3.451h0.986
		c0.646,0,1.162-0.147,1.547-0.442s0.578-0.782,0.578-1.462c0-0.51-0.159-0.91-0.476-1.199S25.818,197.625,25.206,197.625z"/>
	<path fill="#494949" d="M30.935,201.67c0-1.983,0.436-3.51,1.309-4.582c0.873-1.071,2.119-1.606,3.74-1.606
		c0.85,0,1.592,0.147,2.227,0.442c0.635,0.294,1.162,0.714,1.581,1.258s0.731,1.196,0.935,1.955s0.306,1.604,0.306,2.533
		c0,1.983-0.439,3.511-1.318,4.582c-0.878,1.071-2.122,1.606-3.731,1.606c-0.861,0-1.609-0.147-2.244-0.442
		c-0.635-0.294-1.159-0.714-1.573-1.258s-0.723-1.196-0.926-1.955C31.037,203.444,30.935,202.6,30.935,201.67z M33.383,201.67
		c0,0.601,0.051,1.153,0.153,1.658s0.258,0.938,0.467,1.3c0.21,0.363,0.479,0.646,0.808,0.85s0.72,0.306,1.173,0.306
		c0.827,0,1.468-0.323,1.921-0.969c0.453-0.646,0.68-1.694,0.68-3.145c0-0.578-0.048-1.116-0.145-1.615
		c-0.096-0.499-0.247-0.935-0.45-1.309c-0.204-0.374-0.471-0.666-0.799-0.875c-0.329-0.209-0.731-0.314-1.207-0.314
		c-0.827,0-1.468,0.332-1.921,0.995C33.609,199.214,33.383,200.254,33.383,201.67z"/>
	<path fill="#494949" d="M48.087,204.986h-3.655l-0.901,2.635h-2.329l4.284-11.985h1.717l4.284,11.985H49.04L48.087,204.986z
		 M45.028,203.116h2.55l-0.884-2.652l-0.357-1.87h-0.085l-0.357,1.887L45.028,203.116z"/>
	<path fill="#494949" d="M52.508,195.721c0.238-0.034,0.507-0.062,0.808-0.085c0.3-0.023,0.609-0.04,0.926-0.051
		c0.317-0.011,0.626-0.02,0.927-0.025c0.3-0.005,0.569-0.008,0.807-0.008c1.054,0,1.955,0.147,2.703,0.442
		c0.748,0.295,1.354,0.708,1.819,1.241c0.465,0.533,0.805,1.167,1.02,1.904s0.323,1.547,0.323,2.431
		c0,0.805-0.102,1.581-0.306,2.329s-0.544,1.411-1.02,1.989s-1.102,1.043-1.878,1.394s-1.737,0.527-2.881,0.527
		c-0.182,0-0.422-0.006-0.723-0.017s-0.612-0.025-0.935-0.042c-0.323-0.017-0.632-0.034-0.926-0.051
		c-0.295-0.017-0.516-0.037-0.663-0.06V195.721z M56.163,197.625c-0.249,0-0.501,0.006-0.756,0.017s-0.445,0.028-0.569,0.051v7.973
		c0.045,0.012,0.122,0.02,0.229,0.025c0.107,0.006,0.224,0.012,0.348,0.017c0.125,0.006,0.244,0.012,0.357,0.017
		c0.113,0.006,0.198,0.008,0.255,0.008c0.657,0,1.204-0.116,1.641-0.348c0.436-0.232,0.782-0.541,1.037-0.927
		c0.255-0.385,0.434-0.83,0.536-1.334c0.102-0.504,0.153-1.022,0.153-1.555c0-0.465-0.045-0.932-0.136-1.403
		c-0.091-0.47-0.258-0.893-0.501-1.267c-0.244-0.374-0.575-0.68-0.995-0.918C57.341,197.744,56.809,197.625,56.163,197.625z"/>
	<path fill="#494949" d="M22.163,223.133c-0.363,0.259-0.825,0.444-1.386,0.557s-1.136,0.168-1.726,0.168
		c-0.714,0-1.391-0.11-2.031-0.331c-0.641-0.221-1.205-0.578-1.691-1.071c-0.488-0.493-0.875-1.133-1.165-1.921
		s-0.434-1.743-0.434-2.865c0-1.167,0.162-2.145,0.484-2.932c0.323-0.788,0.742-1.422,1.258-1.904
		c0.516-0.481,1.09-0.827,1.725-1.037c0.635-0.209,1.27-0.314,1.904-0.314c0.68,0,1.255,0.045,1.726,0.136
		c0.47,0.091,0.858,0.198,1.165,0.323l-0.459,1.972c-0.261-0.125-0.57-0.215-0.927-0.272s-0.791-0.085-1.3-0.085
		c-0.941,0-1.698,0.335-2.27,1.005c-0.573,0.67-0.858,1.709-0.858,3.118c0,0.613,0.068,1.173,0.204,1.678
		c0.136,0.505,0.343,0.937,0.621,1.295c0.278,0.357,0.623,0.636,1.037,0.835c0.414,0.198,0.893,0.298,1.437,0.298
		c0.51,0,0.94-0.051,1.292-0.153c0.351-0.102,0.657-0.232,0.918-0.391L22.163,223.133z"/>
	<path fill="#494949" d="M31.139,223.621h-7.531v-11.9h2.329v9.826h5.202V223.621z"/>
	<path fill="#494949" d="M30.391,217.67c0-1.983,0.436-3.51,1.309-4.582c0.873-1.071,2.119-1.606,3.74-1.606
		c0.85,0,1.592,0.147,2.227,0.442c0.635,0.294,1.162,0.714,1.581,1.258s0.731,1.196,0.935,1.955s0.306,1.604,0.306,2.533
		c0,1.983-0.439,3.511-1.318,4.582c-0.878,1.071-2.122,1.606-3.731,1.606c-0.861,0-1.609-0.147-2.244-0.442
		c-0.635-0.294-1.159-0.714-1.573-1.258s-0.723-1.196-0.926-1.955C30.493,219.444,30.391,218.6,30.391,217.67z M32.839,217.67
		c0,0.601,0.051,1.153,0.153,1.658s0.258,0.938,0.467,1.3c0.21,0.363,0.479,0.646,0.808,0.85s0.72,0.306,1.173,0.306
		c0.827,0,1.468-0.323,1.921-0.969c0.453-0.646,0.68-1.694,0.68-3.145c0-0.578-0.048-1.116-0.145-1.615
		c-0.096-0.499-0.247-0.935-0.45-1.309c-0.204-0.374-0.471-0.666-0.799-0.875c-0.329-0.209-0.731-0.314-1.207-0.314
		c-0.827,0-1.468,0.332-1.921,0.995C33.066,215.214,32.839,216.254,32.839,217.67z"/>
	<path fill="#494949" d="M47.289,220.425c0-0.363-0.133-0.657-0.399-0.884c-0.266-0.227-0.601-0.434-1.003-0.621
		s-0.839-0.379-1.309-0.578s-0.907-0.442-1.309-0.731c-0.402-0.289-0.737-0.649-1.003-1.08s-0.399-0.98-0.399-1.649
		c0-0.578,0.096-1.08,0.289-1.505c0.192-0.425,0.467-0.779,0.825-1.062c0.357-0.283,0.779-0.493,1.266-0.629
		c0.487-0.136,1.031-0.204,1.632-0.204c0.691,0,1.343,0.06,1.955,0.179c0.612,0.119,1.116,0.292,1.513,0.519l-0.731,1.955
		c-0.25-0.159-0.624-0.303-1.122-0.434s-1.037-0.196-1.615-0.196c-0.544,0-0.96,0.108-1.25,0.323s-0.434,0.504-0.434,0.867
		c0,0.34,0.133,0.623,0.399,0.85c0.266,0.227,0.601,0.437,1.003,0.629s0.839,0.391,1.309,0.595s0.907,0.451,1.309,0.74
		c0.402,0.289,0.736,0.646,1.003,1.071c0.266,0.425,0.399,0.955,0.399,1.589c0,0.635-0.105,1.182-0.314,1.641
		c-0.21,0.459-0.504,0.841-0.884,1.147c-0.38,0.306-0.839,0.533-1.377,0.68c-0.539,0.147-1.131,0.221-1.777,0.221
		c-0.85,0-1.598-0.079-2.244-0.238s-1.122-0.317-1.428-0.476l0.748-1.989c0.125,0.068,0.286,0.142,0.484,0.221
		c0.198,0.08,0.422,0.153,0.671,0.221c0.25,0.068,0.513,0.125,0.791,0.17c0.278,0.045,0.564,0.068,0.859,0.068
		c0.691,0,1.221-0.116,1.589-0.348C47.104,221.255,47.289,220.9,47.289,220.425z"/>
	<path fill="#494949" d="M51.165,211.721h7.055v2.074h-4.726v2.771h4.301v2.074h-4.301v2.907h4.811v2.074h-7.14V211.721z"/>
	<path fill="#494949" d="M60.039,211.721c0.238-0.034,0.507-0.062,0.808-0.085c0.3-0.023,0.609-0.04,0.926-0.051
		c0.317-0.011,0.626-0.02,0.927-0.025c0.3-0.005,0.569-0.008,0.807-0.008c1.054,0,1.955,0.147,2.703,0.442
		c0.748,0.295,1.354,0.708,1.819,1.241c0.465,0.533,0.805,1.167,1.02,1.904s0.323,1.547,0.323,2.431
		c0,0.805-0.102,1.581-0.306,2.329s-0.544,1.411-1.02,1.989s-1.102,1.043-1.878,1.394s-1.737,0.527-2.881,0.527
		c-0.182,0-0.422-0.006-0.723-0.017s-0.612-0.025-0.935-0.042c-0.323-0.017-0.632-0.034-0.926-0.051
		c-0.295-0.017-0.516-0.037-0.663-0.06V211.721z M63.693,213.625c-0.249,0-0.501,0.006-0.756,0.017s-0.445,0.028-0.569,0.051v7.973
		c0.045,0.012,0.122,0.02,0.229,0.025c0.107,0.006,0.224,0.012,0.348,0.017c0.125,0.006,0.244,0.012,0.357,0.017
		c0.113,0.006,0.198,0.008,0.255,0.008c0.657,0,1.204-0.116,1.641-0.348c0.436-0.232,0.782-0.541,1.037-0.927
		c0.255-0.385,0.434-0.83,0.536-1.334c0.102-0.504,0.153-1.022,0.153-1.555c0-0.465-0.045-0.932-0.136-1.403
		c-0.091-0.47-0.258-0.893-0.501-1.267c-0.244-0.374-0.575-0.68-0.995-0.918C64.872,213.744,64.339,213.625,63.693,213.625z"/>
</g>
<g>
	<path fill="#494949" d="M305.636,194.84c0.261-0.045,0.541-0.088,0.841-0.128c0.3-0.04,0.601-0.07,0.901-0.093
		c0.3-0.022,0.592-0.04,0.875-0.051c0.283-0.011,0.544-0.017,0.782-0.017c0.555,0,1.102,0.051,1.641,0.153
		c0.538,0.102,1.02,0.278,1.445,0.527c0.425,0.25,0.765,0.592,1.02,1.029c0.255,0.436,0.383,0.983,0.383,1.64
		c0,0.975-0.227,1.768-0.68,2.38c-0.454,0.612-1.06,1.037-1.819,1.275l0.833,0.527l2.72,4.539h-2.686l-2.703-4.658l-1.224-0.221
		v4.879h-2.329V194.84z M309.206,196.625c-0.238,0-0.473,0.006-0.706,0.017s-0.411,0.034-0.535,0.068v3.451h0.986
		c0.646,0,1.162-0.147,1.547-0.442s0.578-0.782,0.578-1.462c0-0.51-0.159-0.91-0.476-1.199S309.818,196.625,309.206,196.625z"/>
	<path fill="#494949" d="M314.935,200.67c0-1.983,0.436-3.51,1.309-4.582c0.873-1.071,2.119-1.606,3.74-1.606
		c0.85,0,1.592,0.147,2.227,0.442c0.635,0.294,1.162,0.714,1.581,1.258s0.731,1.196,0.935,1.955s0.306,1.604,0.306,2.533
		c0,1.983-0.439,3.511-1.318,4.582c-0.878,1.071-2.122,1.606-3.731,1.606c-0.861,0-1.609-0.147-2.244-0.442
		c-0.635-0.294-1.159-0.714-1.573-1.258s-0.723-1.196-0.926-1.955C315.037,202.444,314.935,201.6,314.935,200.67z M317.383,200.67
		c0,0.601,0.051,1.153,0.153,1.658s0.258,0.938,0.467,1.3c0.21,0.363,0.479,0.646,0.808,0.85s0.72,0.306,1.173,0.306
		c0.827,0,1.468-0.323,1.921-0.969c0.453-0.646,0.68-1.694,0.68-3.145c0-0.578-0.048-1.116-0.145-1.615
		c-0.096-0.499-0.247-0.935-0.45-1.309c-0.204-0.374-0.471-0.666-0.799-0.875c-0.329-0.209-0.731-0.314-1.207-0.314
		c-0.827,0-1.468,0.332-1.921,0.995C317.609,198.214,317.383,199.254,317.383,200.67z"/>
	<path fill="#494949" d="M332.087,203.986h-3.655l-0.901,2.635h-2.329l4.284-11.985h1.717l4.284,11.985h-2.448L332.087,203.986z
		 M329.028,202.116h2.55l-0.884-2.652l-0.357-1.87h-0.085l-0.357,1.887L329.028,202.116z"/>
	<path fill="#494949" d="M336.508,194.721c0.238-0.034,0.507-0.062,0.808-0.085c0.3-0.023,0.609-0.04,0.926-0.051
		c0.317-0.011,0.626-0.02,0.927-0.025c0.3-0.005,0.569-0.008,0.807-0.008c1.054,0,1.955,0.147,2.703,0.442
		c0.748,0.295,1.354,0.708,1.819,1.241c0.465,0.533,0.805,1.167,1.02,1.904s0.323,1.547,0.323,2.431
		c0,0.805-0.102,1.581-0.306,2.329s-0.544,1.411-1.02,1.989s-1.102,1.043-1.878,1.394s-1.737,0.527-2.881,0.527
		c-0.182,0-0.422-0.006-0.723-0.017s-0.612-0.025-0.935-0.042c-0.323-0.017-0.632-0.034-0.926-0.051
		c-0.295-0.017-0.516-0.037-0.663-0.06V194.721z M340.163,196.625c-0.249,0-0.501,0.006-0.756,0.017s-0.445,0.028-0.569,0.051v7.973
		c0.045,0.012,0.122,0.02,0.229,0.025c0.107,0.006,0.224,0.012,0.348,0.017c0.125,0.006,0.244,0.012,0.357,0.017
		c0.113,0.006,0.198,0.008,0.255,0.008c0.657,0,1.204-0.116,1.641-0.348c0.436-0.232,0.782-0.541,1.037-0.927
		c0.255-0.385,0.434-0.83,0.536-1.334c0.102-0.504,0.153-1.022,0.153-1.555c0-0.465-0.045-0.932-0.136-1.403
		c-0.091-0.47-0.258-0.893-0.501-1.267c-0.244-0.374-0.575-0.68-0.995-0.918C341.341,196.744,340.809,196.625,340.163,196.625z"/>
	<path fill="#494949" d="M301.879,217.368l0.221,2.108h0.068l0.238-2.142l2.074-6.613h1.53l2.04,6.647l0.238,2.108h0.068
		l0.255-2.142l1.445-6.613h2.363l-3.281,11.985h-1.564l-2.125-6.613l-0.289-1.819h-0.085l-0.289,1.836l-2.108,6.596h-1.649
		l-3.264-11.985h2.533L301.879,217.368z"/>
	<path fill="#494949" d="M312.589,216.67c0-1.983,0.436-3.51,1.309-4.582c0.873-1.071,2.119-1.606,3.74-1.606
		c0.85,0,1.592,0.147,2.227,0.442c0.635,0.294,1.162,0.714,1.581,1.258s0.731,1.196,0.935,1.955s0.306,1.604,0.306,2.533
		c0,1.983-0.439,3.511-1.318,4.582c-0.878,1.071-2.122,1.606-3.731,1.606c-0.861,0-1.609-0.147-2.244-0.442
		c-0.635-0.294-1.159-0.714-1.573-1.258s-0.723-1.196-0.926-1.955C312.691,218.444,312.589,217.6,312.589,216.67z M315.038,216.67
		c0,0.601,0.051,1.153,0.153,1.658s0.258,0.938,0.467,1.3c0.21,0.363,0.479,0.646,0.808,0.85s0.72,0.306,1.173,0.306
		c0.827,0,1.468-0.323,1.921-0.969c0.453-0.646,0.68-1.694,0.68-3.145c0-0.578-0.048-1.116-0.145-1.615
		c-0.096-0.499-0.247-0.935-0.45-1.309c-0.204-0.374-0.471-0.666-0.799-0.875c-0.329-0.209-0.731-0.314-1.207-0.314
		c-0.827,0-1.468,0.332-1.921,0.995C315.264,214.214,315.038,215.254,315.038,216.67z"/>
	<path fill="#494949" d="M324.353,210.84c0.261-0.045,0.541-0.088,0.841-0.128c0.3-0.04,0.601-0.07,0.901-0.093
		c0.3-0.022,0.592-0.04,0.875-0.051c0.283-0.011,0.544-0.017,0.782-0.017c0.555,0,1.102,0.051,1.641,0.153
		c0.538,0.102,1.02,0.278,1.445,0.527c0.425,0.25,0.765,0.592,1.02,1.029c0.255,0.436,0.383,0.983,0.383,1.64
		c0,0.975-0.227,1.768-0.68,2.38c-0.454,0.612-1.06,1.037-1.819,1.275l0.833,0.527l2.72,4.539h-2.686l-2.703-4.658l-1.224-0.221
		v4.879h-2.329V210.84z M327.923,212.625c-0.238,0-0.473,0.006-0.706,0.017s-0.411,0.034-0.535,0.068v3.451h0.986
		c0.646,0,1.162-0.147,1.547-0.442s0.578-0.782,0.578-1.462c0-0.51-0.159-0.91-0.476-1.199S328.535,212.625,327.923,212.625z"/>
	<path fill="#494949" d="M337.528,217.538h-0.612v5.083h-2.329v-11.9h2.329v5.27l0.544-0.238l3.281-5.032h2.652l-3.468,4.998
		l-0.918,0.646l0.952,0.663l3.961,5.593h-2.873L337.528,217.538z"/>
	<path fill="#494949" d="M350.261,219.425c0-0.363-0.133-0.657-0.399-0.884c-0.266-0.227-0.601-0.434-1.003-0.621
		s-0.839-0.379-1.309-0.578s-0.907-0.442-1.309-0.731c-0.402-0.289-0.737-0.649-1.003-1.08s-0.399-0.98-0.399-1.649
		c0-0.578,0.096-1.08,0.289-1.505c0.192-0.425,0.467-0.779,0.825-1.062c0.357-0.283,0.779-0.493,1.266-0.629
		c0.487-0.136,1.031-0.204,1.632-0.204c0.691,0,1.343,0.06,1.955,0.179c0.612,0.119,1.116,0.292,1.513,0.519l-0.731,1.955
		c-0.25-0.159-0.624-0.303-1.122-0.434s-1.037-0.196-1.615-0.196c-0.544,0-0.96,0.108-1.25,0.323s-0.434,0.504-0.434,0.867
		c0,0.34,0.133,0.623,0.399,0.85c0.266,0.227,0.601,0.437,1.003,0.629s0.839,0.391,1.309,0.595s0.907,0.451,1.309,0.74
		c0.402,0.289,0.736,0.646,1.003,1.071c0.266,0.425,0.399,0.955,0.399,1.589c0,0.635-0.105,1.182-0.314,1.641
		c-0.21,0.459-0.504,0.841-0.884,1.147c-0.38,0.306-0.839,0.533-1.377,0.68c-0.539,0.147-1.131,0.221-1.777,0.221
		c-0.85,0-1.598-0.079-2.244-0.238s-1.122-0.317-1.428-0.476l0.748-1.989c0.125,0.068,0.286,0.142,0.484,0.221
		c0.198,0.08,0.422,0.153,0.671,0.221c0.25,0.068,0.513,0.125,0.791,0.17c0.278,0.045,0.564,0.068,0.859,0.068
		c0.691,0,1.221-0.116,1.589-0.348C350.077,220.255,350.261,219.9,350.261,219.425z"/>
</g>
<g>
	<path fill="#494949" d="M414.496,207.621h-7.531v-11.9h2.33v9.826h5.201V207.621z"/>
	<path fill="#494949" d="M419.494,204.986h-3.654l-0.901,2.635h-2.329l4.284-11.985h1.717l4.284,11.985h-2.448L419.494,204.986z
		 M416.435,203.116h2.55l-0.884-2.652l-0.357-1.87h-0.085l-0.357,1.887L416.435,203.116z"/>
	<path fill="#494949" d="M426.872,201.416l-0.935-1.87h-0.086l0.272,1.87v6.205h-2.21v-11.985h1.7l4.505,6.341l0.9,1.819h0.086
		l-0.272-1.819v-6.256h2.21v11.985h-1.699L426.872,201.416z"/>
	<path fill="#494949" d="M435.083,195.721h7.056v2.074h-4.727v2.771h4.301v2.074h-4.301v2.907h4.811v2.074h-7.14V195.721z"/>
	<path fill="#494949" d="M400.105,223.133c-0.362,0.259-0.824,0.444-1.385,0.557c-0.562,0.112-1.137,0.168-1.727,0.168
		c-0.713,0-1.391-0.11-2.031-0.331c-0.641-0.221-1.204-0.578-1.691-1.071s-0.875-1.133-1.164-1.921s-0.434-1.743-0.434-2.865
		c0-1.167,0.162-2.145,0.484-2.932c0.323-0.788,0.742-1.422,1.258-1.904c0.516-0.481,1.091-0.827,1.726-1.037
		c0.635-0.209,1.27-0.314,1.904-0.314c0.681,0,1.255,0.045,1.726,0.136s0.858,0.198,1.164,0.323l-0.459,1.972
		c-0.261-0.125-0.569-0.215-0.926-0.272c-0.357-0.057-0.791-0.085-1.301-0.085c-0.941,0-1.697,0.335-2.27,1.005
		c-0.572,0.67-0.858,1.709-0.858,3.118c0,0.613,0.067,1.173,0.204,1.678c0.136,0.505,0.342,0.937,0.62,1.295
		c0.278,0.357,0.623,0.636,1.037,0.835c0.413,0.198,0.893,0.298,1.437,0.298c0.51,0,0.94-0.051,1.292-0.153
		c0.351-0.102,0.657-0.232,0.918-0.391L400.105,223.133z"/>
	<path fill="#494949" d="M409.082,223.621h-7.531v-11.9h2.329v9.826h5.202V223.621z"/>
	<path fill="#494949" d="M408.334,217.67c0-1.983,0.436-3.51,1.309-4.582c0.873-1.071,2.119-1.606,3.74-1.606
		c0.85,0,1.592,0.147,2.227,0.442c0.635,0.294,1.162,0.714,1.582,1.258c0.419,0.544,0.73,1.196,0.935,1.955s0.306,1.604,0.306,2.533
		c0,1.983-0.439,3.511-1.317,4.582c-0.878,1.071-2.122,1.606-3.731,1.606c-0.861,0-1.609-0.147-2.244-0.442
		c-0.635-0.294-1.158-0.714-1.572-1.258s-0.723-1.196-0.926-1.955C408.436,219.444,408.334,218.6,408.334,217.67z M410.782,217.67
		c0,0.601,0.051,1.153,0.153,1.658c0.102,0.504,0.258,0.938,0.467,1.3c0.21,0.363,0.479,0.646,0.808,0.85s0.72,0.306,1.173,0.306
		c0.827,0,1.468-0.323,1.922-0.969c0.453-0.646,0.68-1.694,0.68-3.145c0-0.578-0.049-1.116-0.145-1.615
		c-0.097-0.499-0.247-0.935-0.451-1.309c-0.203-0.374-0.471-0.666-0.799-0.875c-0.328-0.209-0.73-0.314-1.207-0.314
		c-0.827,0-1.468,0.332-1.921,0.995C411.009,215.214,410.782,216.254,410.782,217.67z"/>
	<path fill="#494949" d="M425.231,220.425c0-0.363-0.134-0.657-0.399-0.884c-0.266-0.227-0.601-0.434-1.003-0.621
		s-0.839-0.379-1.31-0.578c-0.47-0.198-0.906-0.442-1.309-0.731c-0.402-0.289-0.736-0.649-1.003-1.08s-0.399-0.98-0.399-1.649
		c0-0.578,0.096-1.08,0.289-1.505c0.192-0.425,0.467-0.779,0.824-1.062c0.357-0.283,0.779-0.493,1.267-0.629
		c0.487-0.136,1.031-0.204,1.632-0.204c0.691,0,1.344,0.06,1.955,0.179c0.612,0.119,1.116,0.292,1.514,0.519l-0.731,1.955
		c-0.249-0.159-0.624-0.303-1.122-0.434s-1.037-0.196-1.615-0.196c-0.543,0-0.96,0.108-1.249,0.323s-0.434,0.504-0.434,0.867
		c0,0.34,0.133,0.623,0.399,0.85c0.266,0.227,0.601,0.437,1.003,0.629s0.839,0.391,1.31,0.595c0.47,0.204,0.906,0.451,1.309,0.74
		s0.736,0.646,1.003,1.071s0.399,0.955,0.399,1.589c0,0.635-0.105,1.182-0.314,1.641c-0.21,0.459-0.504,0.841-0.884,1.147
		s-0.839,0.533-1.377,0.68c-0.538,0.147-1.131,0.221-1.776,0.221c-0.851,0-1.598-0.079-2.244-0.238s-1.122-0.317-1.428-0.476
		l0.748-1.989c0.124,0.068,0.285,0.142,0.484,0.221c0.197,0.08,0.422,0.153,0.671,0.221s0.513,0.125,0.79,0.17
		c0.278,0.045,0.564,0.068,0.859,0.068c0.691,0,1.221-0.116,1.59-0.348C425.047,221.255,425.231,220.9,425.231,220.425z"/>
	<path fill="#494949" d="M435.568,211.721h2.209v7.684c0,0.771-0.102,1.434-0.306,1.989c-0.204,0.556-0.487,1.015-0.85,1.377
		c-0.362,0.363-0.806,0.629-1.326,0.799c-0.521,0.17-1.094,0.255-1.717,0.255c-3.015,0-4.522-1.377-4.522-4.131v-7.973h2.329v7.514
		c0,0.465,0.042,0.859,0.128,1.182c0.085,0.323,0.218,0.584,0.399,0.782c0.181,0.198,0.407,0.34,0.68,0.425s0.589,0.127,0.952,0.127
		c0.714,0,1.229-0.198,1.547-0.595c0.317-0.397,0.477-1.037,0.477-1.921V211.721z"/>
	<path fill="#494949" d="M439.767,211.84c0.261-0.045,0.541-0.088,0.841-0.128c0.301-0.04,0.602-0.07,0.902-0.093
		c0.299-0.022,0.592-0.04,0.875-0.051c0.283-0.011,0.544-0.017,0.781-0.017c0.556,0,1.103,0.051,1.641,0.153
		c0.539,0.102,1.021,0.278,1.445,0.527c0.426,0.25,0.766,0.592,1.02,1.029c0.256,0.436,0.383,0.983,0.383,1.64
		c0,0.975-0.227,1.768-0.68,2.38c-0.453,0.612-1.061,1.037-1.818,1.275l0.832,0.527l2.721,4.539h-2.687l-2.702-4.658l-1.225-0.221
		v4.879h-2.329V211.84z M443.336,213.625c-0.237,0-0.473,0.006-0.705,0.017s-0.41,0.034-0.535,0.068v3.451h0.986
		c0.646,0,1.161-0.147,1.547-0.442c0.385-0.295,0.578-0.782,0.578-1.462c0-0.51-0.159-0.91-0.477-1.199
		S443.949,213.625,443.336,213.625z"/>
	<path fill="#494949" d="M450,211.721h7.056v2.074h-4.726v2.771h4.301v2.074h-4.301v2.907h4.811v2.074H450V211.721z"/>
</g>
<g>
	<path fill="#494949" d="M103.793,209.986h-3.655l-0.901,2.635h-2.329l4.284-11.985h1.717l4.284,11.985h-2.448L103.793,209.986z
		 M100.733,208.116h2.55l-0.884-2.652l-0.357-1.87h-0.085l-0.357,1.887L100.733,208.116z"/>
	<path fill="#494949" d="M115.745,212.133c-0.363,0.259-0.825,0.444-1.386,0.557s-1.136,0.168-1.726,0.168
		c-0.714,0-1.391-0.11-2.031-0.331c-0.641-0.221-1.205-0.578-1.691-1.071c-0.488-0.493-0.875-1.133-1.165-1.921
		s-0.434-1.743-0.434-2.865c0-1.167,0.162-2.145,0.484-2.932c0.323-0.788,0.742-1.422,1.258-1.904
		c0.516-0.481,1.09-0.827,1.725-1.037c0.635-0.209,1.27-0.314,1.904-0.314c0.68,0,1.255,0.045,1.726,0.136
		c0.47,0.091,0.858,0.198,1.165,0.323l-0.459,1.972c-0.261-0.125-0.57-0.215-0.927-0.272s-0.791-0.085-1.3-0.085
		c-0.941,0-1.698,0.335-2.27,1.005c-0.573,0.67-0.858,1.709-0.858,3.118c0,0.613,0.068,1.173,0.204,1.678
		c0.136,0.505,0.343,0.937,0.621,1.295c0.278,0.357,0.623,0.636,1.037,0.835c0.414,0.198,0.893,0.298,1.437,0.298
		c0.51,0,0.94-0.051,1.292-0.153c0.351-0.102,0.657-0.232,0.918-0.391L115.745,212.133z"/>
	<path fill="#494949" d="M124.687,212.133c-0.363,0.259-0.825,0.444-1.386,0.557s-1.136,0.168-1.726,0.168
		c-0.714,0-1.391-0.11-2.031-0.331c-0.641-0.221-1.205-0.578-1.691-1.071c-0.488-0.493-0.875-1.133-1.165-1.921
		s-0.434-1.743-0.434-2.865c0-1.167,0.162-2.145,0.484-2.932c0.323-0.788,0.742-1.422,1.258-1.904
		c0.516-0.481,1.09-0.827,1.725-1.037c0.635-0.209,1.27-0.314,1.904-0.314c0.68,0,1.255,0.045,1.726,0.136
		c0.47,0.091,0.858,0.198,1.165,0.323l-0.459,1.972c-0.261-0.125-0.57-0.215-0.927-0.272s-0.791-0.085-1.3-0.085
		c-0.941,0-1.698,0.335-2.27,1.005c-0.573,0.67-0.858,1.709-0.858,3.118c0,0.613,0.068,1.173,0.204,1.678
		c0.136,0.505,0.343,0.937,0.621,1.295c0.278,0.357,0.623,0.636,1.037,0.835c0.414,0.198,0.893,0.298,1.437,0.298
		c0.51,0,0.94-0.051,1.292-0.153c0.351-0.102,0.657-0.232,0.918-0.391L124.687,212.133z"/>
	<path fill="#494949" d="M126.369,200.721h2.329v11.9h-2.329V200.721z"/>
	<path fill="#494949" d="M130.976,200.721c0.238-0.034,0.507-0.062,0.808-0.085c0.3-0.023,0.609-0.04,0.926-0.051
		c0.317-0.011,0.626-0.02,0.927-0.025c0.3-0.005,0.569-0.008,0.807-0.008c1.054,0,1.955,0.147,2.703,0.442
		c0.748,0.295,1.354,0.708,1.819,1.241c0.465,0.533,0.805,1.167,1.02,1.904s0.323,1.547,0.323,2.431
		c0,0.805-0.102,1.581-0.306,2.329s-0.544,1.411-1.02,1.989s-1.102,1.043-1.878,1.394s-1.737,0.527-2.881,0.527
		c-0.182,0-0.422-0.006-0.723-0.017s-0.612-0.025-0.935-0.042c-0.323-0.017-0.632-0.034-0.926-0.051
		c-0.295-0.017-0.516-0.037-0.663-0.06V200.721z M134.631,202.625c-0.249,0-0.501,0.006-0.756,0.017s-0.445,0.028-0.569,0.051v7.973
		c0.045,0.012,0.122,0.02,0.229,0.025c0.107,0.006,0.224,0.012,0.348,0.017c0.125,0.006,0.244,0.012,0.357,0.017
		c0.113,0.006,0.198,0.008,0.255,0.008c0.657,0,1.204-0.116,1.641-0.348c0.436-0.232,0.782-0.541,1.037-0.927
		c0.255-0.385,0.434-0.83,0.536-1.334c0.102-0.504,0.153-1.022,0.153-1.555c0-0.465-0.045-0.932-0.136-1.403
		c-0.091-0.47-0.258-0.893-0.501-1.267c-0.244-0.374-0.575-0.68-0.995-0.918C135.81,202.744,135.277,202.625,134.631,202.625z"/>
	<path fill="#494949" d="M141.975,200.721h7.055v2.074h-4.726v2.771h4.301v2.074h-4.301v2.907h4.811v2.074h-7.14V200.721z"/>
	<path fill="#494949" d="M153.807,206.416l-0.935-1.87h-0.085l0.272,1.87v6.205h-2.21v-11.985h1.7l4.505,6.341l0.901,1.819h0.085
		l-0.272-1.819v-6.256h2.21v11.985h-1.7L153.807,206.416z"/>
	<path fill="#494949" d="M170.467,202.794h-3.468v9.826h-2.329v-9.826h-3.485v-2.074h9.282V202.794z"/>
</g>
<g>
	<path fill="#494949" d="M199.509,200.721h2.329v11.9h-2.329V200.721z"/>
	<path fill="#494949" d="M207.074,206.416l-0.935-1.87h-0.085l0.272,1.87v6.205h-2.21v-11.985h1.7l4.505,6.341l0.901,1.819h0.085
		l-0.272-1.819v-6.256h2.21v11.985h-1.7L207.074,206.416z"/>
	<path fill="#494949" d="M223.343,212.133c-0.363,0.259-0.825,0.444-1.386,0.557s-1.136,0.168-1.726,0.168
		c-0.714,0-1.391-0.11-2.031-0.331c-0.641-0.221-1.205-0.578-1.691-1.071c-0.488-0.493-0.875-1.133-1.165-1.921
		s-0.434-1.743-0.434-2.865c0-1.167,0.162-2.145,0.484-2.932c0.323-0.788,0.742-1.422,1.258-1.904
		c0.516-0.481,1.09-0.827,1.725-1.037c0.635-0.209,1.27-0.314,1.904-0.314c0.68,0,1.255,0.045,1.726,0.136
		c0.47,0.091,0.858,0.198,1.165,0.323l-0.459,1.972c-0.261-0.125-0.57-0.215-0.927-0.272s-0.791-0.085-1.3-0.085
		c-0.941,0-1.698,0.335-2.27,1.005c-0.573,0.67-0.858,1.709-0.858,3.118c0,0.613,0.068,1.173,0.204,1.678
		c0.136,0.505,0.343,0.937,0.621,1.295c0.278,0.357,0.623,0.636,1.037,0.835c0.414,0.198,0.893,0.298,1.437,0.298
		c0.51,0,0.94-0.051,1.292-0.153c0.351-0.102,0.657-0.232,0.918-0.391L223.343,212.133z"/>
	<path fill="#494949" d="M225.026,200.721h2.329v11.9h-2.329V200.721z"/>
	<path fill="#494949" d="M229.633,200.721c0.238-0.034,0.507-0.062,0.808-0.085c0.3-0.023,0.609-0.04,0.926-0.051
		c0.317-0.011,0.626-0.02,0.927-0.025c0.3-0.005,0.569-0.008,0.807-0.008c1.054,0,1.955,0.147,2.703,0.442
		c0.748,0.295,1.354,0.708,1.819,1.241c0.465,0.533,0.805,1.167,1.02,1.904s0.323,1.547,0.323,2.431
		c0,0.805-0.102,1.581-0.306,2.329s-0.544,1.411-1.02,1.989s-1.102,1.043-1.878,1.394s-1.737,0.527-2.881,0.527
		c-0.182,0-0.422-0.006-0.723-0.017s-0.612-0.025-0.935-0.042c-0.323-0.017-0.632-0.034-0.926-0.051
		c-0.295-0.017-0.516-0.037-0.663-0.06V200.721z M233.288,202.625c-0.249,0-0.501,0.006-0.756,0.017s-0.445,0.028-0.569,0.051v7.973
		c0.045,0.012,0.122,0.02,0.229,0.025c0.107,0.006,0.224,0.012,0.348,0.017c0.125,0.006,0.244,0.012,0.357,0.017
		c0.113,0.006,0.198,0.008,0.255,0.008c0.657,0,1.204-0.116,1.641-0.348c0.436-0.232,0.782-0.541,1.037-0.927
		c0.255-0.385,0.434-0.83,0.536-1.334c0.102-0.504,0.153-1.022,0.153-1.555c0-0.465-0.045-0.932-0.136-1.403
		c-0.091-0.47-0.258-0.893-0.501-1.267c-0.244-0.374-0.575-0.68-0.995-0.918C234.466,202.744,233.934,202.625,233.288,202.625z"/>
	<path fill="#494949" d="M240.632,200.721h7.055v2.074h-4.726v2.771h4.301v2.074h-4.301v2.907h4.811v2.074h-7.14V200.721z"/>
	<path fill="#494949" d="M252.463,206.416l-0.935-1.87h-0.085l0.272,1.87v6.205h-2.21v-11.985h1.7l4.505,6.341l0.901,1.819h0.085
		l-0.272-1.819v-6.256h2.21v11.985h-1.7L252.463,206.416z"/>
	<path fill="#494949" d="M269.124,202.794h-3.468v9.826h-2.329v-9.826h-3.485v-2.074h9.282V202.794z"/>
</g>
<g>
	<path fill-rule="evenodd" clip-rule="evenodd" fill="#E4001C" d="M133.595,127.548c16.104,0,29.168,13.076,29.168,29.196
		c0,16.11-13.063,29.19-29.168,29.19c-16.099,0-29.168-13.08-29.168-29.19C104.427,140.624,117.496,127.548,133.595,127.548"/>
	<path fill-rule="evenodd" clip-rule="evenodd" fill="#FFFFFF" d="M133.679,133.384c12.883,0,23.336,10.463,23.336,23.36
		c0,12.89-10.453,23.354-23.336,23.354c-12.881,0-23.336-10.465-23.336-23.354C110.343,143.847,120.798,133.384,133.679,133.384"/>
</g>
<g>
	<path fill-rule="evenodd" clip-rule="evenodd" fill="#1A1718" d="M121.324,163.843c1.07,0.089,1.865,1.039,1.775,2.122
		c-0.091,1.084-1.032,1.887-2.104,1.798c-1.073-0.09-1.873-1.039-1.782-2.123C119.304,164.557,120.251,163.753,121.324,163.843
		 M121.446,162.371c1.883,0.158,3.28,1.822,3.122,3.716s-1.812,3.307-3.695,3.149c-1.882-0.158-3.283-1.825-3.125-3.719
		S119.564,162.214,121.446,162.371z"/>
	<path fill-rule="evenodd" clip-rule="evenodd" fill="#1A1718" d="M119.307,152.844l-3.434-0.287l-0.407,4.879l7.836,0.655
		L119.307,152.844 M129.475,166.498c-0.023,0.275-0.261,0.476-0.521,0.454l-4.074,0.1l-0.013,0.02
		c0.103-0.31,0.171-0.618,0.198-0.942c0.18-2.156-1.421-4.055-3.579-4.234c-2.159-0.181-4.055,1.425-4.234,3.581
		c-0.027,0.324-0.014,0.641,0.038,0.963l-0.12,0.011l-3.88-0.324l-0.133-0.429l-0.107-0.22l-0.058-0.525l0.131-0.345l0.061-0.28
		l-0.068-0.398l0.185-0.428l0.277-0.352l-0.21-0.454l-0.161-0.301l0.165-0.304l-0.063-0.461l-0.005-0.396l0.247-0.235l0.279-0.328
		l0.032-0.39l-0.174-0.39l-0.008-0.44l-0.209-0.227l-0.082-0.523l0.04-0.476l0.171-0.552l0.243-0.663l-0.099-0.614l-0.022-0.461
		l0.252-0.5l-0.027-0.687l-0.196-0.369l0.174-0.586l0.18-0.471l-0.131-0.384l-0.013-0.604l0.23-0.499l-0.033-0.38l0.398-0.486
		l3.404,0.284c1.469,0.123,3.06,0.775,4.143,2.031l4.993,5.998c0.32,0.383,0.973,0.832,1.447,0.871
		c0.811,0.068,1.416,0.714,1.354,1.442l-0.328,3.931L129.475,166.498z"/>
</g>
<path fill-rule="evenodd" clip-rule="evenodd" fill="#1A1718" d="M141.644,160.56c2.332-0.264,4.437,1.402,4.698,3.727
	c0.262,2.321-1.42,4.418-3.752,4.682c-2.335,0.262-4.442-1.408-4.704-3.729C137.624,162.914,139.309,160.821,141.644,160.56
	 M141.878,162.646c1.164-0.131,2.221,0.711,2.352,1.879c0.132,1.166-0.711,2.219-1.875,2.35c-1.169,0.132-2.223-0.708-2.354-1.874
	C139.869,163.833,140.709,162.777,141.878,162.646z"/>
<path fill-rule="evenodd" clip-rule="evenodd" fill="#1A1718" d="M153.487,163.499l-6.752,0.742
	c-0.287-2.553-2.604-4.387-5.167-4.098c-2.566,0.288-4.413,2.591-4.126,5.145l-1.672,0.188l-2.339-6.858l-0.02-0.023
	c-0.031-0.104-0.057-0.208-0.068-0.315c-0.088-0.776,0.414-1.499,1.178-1.706v0.006 M153.487,163.499 M150.802,142.442
	 M134.521,156.579l0.396-6.42c0.083-1.276,1.059-2.332,2.336-2.476l7.13-0.803c0.583-0.065,1.11,0.345,1.175,0.914
	c0.001,0.008,0.001,0.016,0.002,0.022l0.653,5.803l2.112-0.238l-1.068-9.486c-0.065-0.586,0.353-1.111,0.938-1.178l2.606-0.275
	l-0.041,0.75l0.037,0.331l-0.041,0.382l0.23,0.184l0.068,0.602l0.001,1.131l0.063,0.56l0.33,1.074l-0.136,1.399l0.406,0.625
	l0.094,0.828l-0.108,0.912l0.748,2.914l0.091,0.809l-0.206,0.588l0.414,1.631l-0.016,0.609l0.229,0.918l-0.239,0.656l0.521,1.094
	l0.012,0.67l-0.185,0.775l0.293,0.742l0.119,0.873 M141.916,148.854l0.583,5.185l-6.267,0.705l0.266-4.484
	c0.042-0.527,0.444-0.922,0.935-0.977l4.475-0.504L141.916,148.854z"/>
<polyline fill-rule="evenodd" clip-rule="evenodd" fill="#1A1718" points="122.743,143.033 124.993,147.542 124.713,147.688 
	121.435,142.967 122.6,143.562 122.743,143.033 "/>
<polyline fill-rule="evenodd" clip-rule="evenodd" fill="#1A1718" points="123.286,150.553 122.935,151.011 117.445,147.101 
	118.216,146.608 123.286,150.553 "/>
<polyline fill-rule="evenodd" clip-rule="evenodd" fill="#1A1718" points="130.233,142.268 130.303,147.306 130.619,147.308 
	131.365,141.608 130.604,142.672 130.233,142.268 "/>
<polyline fill-rule="evenodd" clip-rule="evenodd" fill="#1A1718" points="133.455,148.606 133.978,148.853 137.061,142.859 
	136.15,142.775 133.455,148.606 "/>
<polyline fill-rule="evenodd" clip-rule="evenodd" fill="#1A1718" points="139.746,156.527 139.5,155.896 134.605,156.67 
	134.677,157.024 139.746,156.527 "/>
<polygon fill-rule="evenodd" clip-rule="evenodd" fill="#1A1718" points="132.174,156.655 132.567,155.128 131.888,154.834 
	132.78,152.954 131.011,153.01 131.194,150.835 129.678,151.821 129.136,150.481 128.433,151.992 127.568,150.884 127.569,152.401 
	126.616,152.514 127.613,154.776 126.441,155.188 127.26,156.885 127.259,156.911 124.861,154.946 126.677,154.192 124.932,151.399 
	126.989,151.532 126.471,148.404 128.226,150.573 129.366,147.657 129.977,150.557 132.069,149.129 131.72,152.312 134.04,152.087 
	132.932,154.563 133.899,154.693 132.272,156.454 "/>
<polyline fill-rule="evenodd" clip-rule="evenodd" fill="#FFFFFF" points="221.138,180.6 206.851,180.6 232.999,134.581 
	259.388,180.6 221.138,180.6 "/>
<path fill-rule="evenodd" clip-rule="evenodd" fill="#E4001C" d="M258.23,183.664c1.373-0.018,2.643-0.752,3.322-1.94
	c0.686-1.188,0.686-2.655,0-3.842l-25.175-43.589c-0.685-1.194-1.952-1.932-3.333-1.932c-1.369,0-2.637,0.732-3.326,1.919
	l-25.182,43.602c-0.684,1.187-0.684,2.654,0,3.842c0.699,1.188,1.972,1.923,3.34,1.923L258.23,183.664 M210.093,178.516h45.909
	l-22.957-39.735L210.093,178.516z"/>
<path fill-rule="evenodd" clip-rule="evenodd" fill="#1A1718" d="M232.883,169.47c1.889,0,3.422,1.534,3.422,3.421
	c0,1.89-1.533,3.421-3.422,3.421c-1.887,0-3.419-1.531-3.419-3.421C229.464,171.004,230.996,169.47,232.883,169.47"/>
<path fill-rule="evenodd" clip-rule="evenodd" fill="#1A1718" d="M232.395,167.764h1.025l3.833-15.165
	c0.062-0.302,0.093-0.607,0.093-0.913c0-2.446-1.991-4.435-4.445-4.435c-2.456,0-4.446,1.988-4.446,4.435
	c0,0.306,0.032,0.611,0.095,0.913L232.395,167.764"/>
<g>
	<polyline fill-rule="evenodd" clip-rule="evenodd" fill="#FFFFFF" points="299.122,180.316 325.436,133.852 352.361,180.447 
		299.122,180.316 	"/>
	<path fill-rule="evenodd" clip-rule="evenodd" fill="#E4001C" d="M300.384,183.34c-1.422,0.014-2.713-0.711-3.41-1.941
		c-0.711-1.229-0.711-2.699,0.033-3.928l25.227-43.57c0.696-1.18,1.957-1.906,3.33-1.906c1.357,0,2.618,0.727,3.314,1.906
		l25.294,43.619c0.66,1.197,0.648,2.633-0.032,3.814c-0.698,1.213-2.004,1.957-3.414,1.936L300.384,183.34 M348.562,178.182h-46.011
		l23.046-39.771L348.562,178.182z"/>
</g>
<path fill-rule="evenodd" clip-rule="evenodd" fill="#1A1718" d="M321.718,155.719c0.111,0,0.242,0,0.371,0c0.131,0,0.26,0,0.39,0
	c0.031,0.031,0.08,0.08,0.128,0.129c0.016,0.127,0.034,0.256,0.064,0.389c-0.08,0.08-0.161,0.16-0.258,0.256
	c-0.113,0.148-0.244,0.293-0.373,0.438c-0.129,0.146-0.258,0.291-0.387,0.453c-0.098,0.242-0.21,0.5-0.324,0.76
	c0,0.242,0,0.5,0,0.758c0.033,0.275,0.08,0.549,0.131,0.842c0.062,0.436,0.129,0.873,0.193,1.326
	c0.082,0.404,0.16,0.807,0.258,1.211c-0.016,0.064-0.031,0.131-0.062,0.193c-0.082,0.178-0.164,0.373-0.26,0.566
	c-0.129,0.275-0.26,0.551-0.387,0.84c-0.146,0.273-0.292,0.551-0.438,0.824c-0.064,0.307-0.13,0.631-0.195,0.957
	c-0.063,0.207-0.127,0.416-0.192,0.627c-0.019,0.26-0.031,0.516-0.065,0.777c-0.695,0.42-1.391,0.84-2.101,1.262
	c-0.065-0.148-0.13-0.295-0.194-0.438c-0.049-0.066-0.113-0.131-0.179-0.195c-0.032-0.031-0.079-0.08-0.126-0.129
	c-0.1-0.014-0.213-0.031-0.326-0.064c-0.145-0.064-0.291-0.131-0.451-0.193c-0.098-0.031-0.193-0.082-0.307-0.129
	c-0.066-0.08-0.129-0.164-0.194-0.242c-0.065-0.133-0.129-0.26-0.194-0.389c-0.129-0.178-0.258-0.373-0.387-0.566
	c-0.114-0.131-0.244-0.258-0.373-0.387c-0.194-0.066-0.389-0.129-0.582-0.195c-0.16,0-0.324,0-0.502,0
	c-0.16-0.064-0.338-0.129-0.516-0.195c-0.209-0.014-0.422-0.029-0.629-0.062c-0.244,0.016-0.502,0.033-0.76,0.062
	c-2.068,3.719-4.155,7.438-6.24,11.154c4.785,0,9.584,0,14.384,0c-0.129-0.615-0.258-1.229-0.389-1.857
	c-0.159-0.682-0.321-1.359-0.499-2.039c-0.26-0.693-0.518-1.391-0.775-2.1c-0.18-0.355-0.372-0.713-0.566-1.082
	c0.694-0.422,1.389-0.84,2.101-1.262c0.226,0,0.454,0,0.696,0c0.127-0.016,0.258-0.031,0.387-0.066
	c0.178-0.08,0.371-0.16,0.564-0.258c0.1-0.08,0.212-0.16,0.325-0.258c0.015-0.066,0.031-0.129,0.063-0.195c0-0.096,0-0.191,0-0.305
	c0.824-0.535,1.648-1.068,2.488-1.602c-0.273,0.629-0.549,1.262-0.84,1.906c0,0.227,0,0.471,0,0.711
	c-0.049,0.891-0.113,1.777-0.178,2.666c-0.064,1.455-0.129,2.926-0.193,4.398c-0.533,0.178-1.068,0.373-1.6,0.566
	c-0.146,0.08-0.293,0.16-0.438,0.256c-0.064,0.018-0.129,0.033-0.193,0.066c0,0.08,0,0.162,0,0.258c0,0.033,0,0.082,0,0.129
	c0.08,0.016,0.162,0.033,0.26,0.066c1.533,0,3.085,0,4.637,0c0.436-2.246,0.889-4.492,1.341-6.756c-0.064,0-0.128,0-0.192,0
	c0-0.277,0-0.551,0-0.826c0.773-1.371,1.566-2.744,2.357-4.135c0.082,0.482,0.163,0.969,0.26,1.471
	c0.047,0.223,0.113,0.451,0.176,0.691c0.098,0.227,0.211,0.455,0.324,0.697c0.148,0.275,0.293,0.551,0.453,0.826
	c0.098,0.225,0.196,0.465,0.309,0.709c0.146,0.176,0.289,0.373,0.452,0.566c0.161,0.16,0.321,0.336,0.501,0.516
	c0.289,0.244,0.598,0.5,0.905,0.76c0.792,0.678,1.602,1.357,2.407,2.035c0.357,0.291,0.712,0.584,1.083,0.891
	c0.032,0.082,0.081,0.162,0.128,0.26c-0.016,0.127-0.031,0.258-0.064,0.387c-0.031,0.098-0.08,0.193-0.129,0.307
	c-0.063,0.146-0.128,0.293-0.192,0.453c-0.339,0.34-0.681,0.68-1.019,1.02c0,0.031,0,0.078,0,0.129c0.531,0,1.066,0,1.601,0
	c0.112-0.066,0.243-0.129,0.371-0.195c0.129-0.031,0.258-0.08,0.386-0.129c0.067-0.129,0.131-0.258,0.196-0.387
	c0.485-0.793,0.97-1.6,1.472-2.41c0.095-0.256,0.193-0.518,0.307-0.775c-0.227-0.08-0.453-0.16-0.695-0.242
	c-0.131-0.082-0.259-0.162-0.389-0.258c-0.096-0.096-0.194-0.209-0.309-0.324c-0.5-0.566-1.016-1.131-1.535-1.713
	c-0.678-0.775-1.357-1.566-2.037-2.359c-0.078,0.064-0.16,0.129-0.258,0.193c-0.145-0.145-0.291-0.291-0.434-0.451
	c-0.081-0.098-0.162-0.193-0.261-0.307c-0.03-0.146-0.081-0.291-0.128-0.453c-0.031-0.357-0.081-0.713-0.131-1.082
	c-0.031-0.438-0.081-0.891-0.129-1.344c-0.113-0.434-0.241-0.871-0.373-1.324c-0.094-0.291-0.207-0.58-0.321-0.889
	c-0.127-0.34-0.259-0.68-0.39-1.02c0.097-0.08,0.213-0.16,0.326-0.258c0.146,0.082,0.291,0.162,0.451,0.258
	c0.031-0.033,0.065-0.08,0.113-0.125c0.128-0.082,0.256-0.164,0.389-0.262c0.097-0.062,0.209-0.129,0.322-0.193
	c0.082-0.096,0.16-0.209,0.259-0.322c0.049-0.049,0.112-0.113,0.177-0.18c-0.016-0.131-0.029-0.258-0.064-0.387
	c-0.032-0.068-0.063-0.131-0.112-0.195c-0.08-0.082-0.163-0.162-0.259-0.256c-0.063-0.035-0.13-0.082-0.193-0.133
	c-0.08-0.289-0.162-0.58-0.262-0.889c-0.062-0.418-0.128-0.84-0.191-1.26c-0.033-0.129-0.064-0.26-0.112-0.387
	c-0.132-0.309-0.257-0.631-0.39-0.955c-0.127-0.291-0.256-0.58-0.388-0.889c-0.112-0.211-0.24-0.418-0.37-0.645
	c-0.227-0.213-0.469-0.422-0.711-0.633c-0.18-0.145-0.374-0.289-0.565-0.453c-0.21-0.047-0.423-0.113-0.649-0.176
	c-0.225-0.018-0.449-0.033-0.693-0.066c-0.228,0-0.453,0-0.695,0c-0.21,0.018-0.418,0.033-0.63,0.066
	c-0.21,0.047-0.42,0.113-0.646,0.176c-0.549,0.197-1.099,0.389-1.65,0.584c-0.354,0.16-0.709,0.322-1.081,0.502
	c-0.226,0.129-0.47,0.256-0.712,0.387c-0.082-0.033-0.162-0.082-0.242-0.131c0-0.064,0-0.127,0-0.193c0,0.018,0,0.033,0,0.066
	c0.129-0.373,0.064-0.324,0.064-0.697c0-1.275-1.083-2.424-2.424-2.424c-1.343,0-2.424,1.148-2.424,2.424
	c0,1.342,1.081,2.475,2.424,2.475c0.064-0.016,0.129-0.033,0.193-0.049C321.767,155.686,321.751,155.703,321.718,155.719"/>
<g>
	<path fill-rule="evenodd" clip-rule="evenodd" fill="#1A1718" d="M401.064,183.651c-2.321,0-4.235-1.918-4.235-4.237
		c0-13.04,0-26.106,0-39.173c0-2.319,1.914-4.237,4.235-4.237c16.217,0,32.432,0,48.675,0c2.326,0,4.237,1.918,4.237,4.237
		c0,13.04,0,26.106,0,39.173c0,2.319-1.911,4.237-4.237,4.237C433.522,183.651,417.308,183.651,401.064,183.651"/>
	<path fill-rule="evenodd" clip-rule="evenodd" fill="#FFE20B" d="M401.038,181.6c-1.158,0-2.105-0.945-2.105-2.103
		c0-13.094,0-26.189,0-39.281c0-1.161,0.947-2.106,2.105-2.106c16.243,0,32.516,0,48.786,0c1.159,0,2.132,0.945,2.132,2.106
		c0,13.092,0,26.188,0,39.281c0,1.157-0.973,2.103-2.132,2.103C433.577,181.6,417.308,181.6,401.038,181.6"/>
	<polyline fill-rule="evenodd" clip-rule="evenodd" fill="#1A1718" points="407.757,176.257 407.757,151.555 404.222,155.091 
		404.222,149.798 409.51,144.507 414.826,149.798 414.826,155.091 411.294,151.555 411.294,176.257 407.757,176.257 	"/>
	<polyline fill-rule="evenodd" clip-rule="evenodd" fill="#1A1718" points="423.677,176.257 423.677,151.555 420.143,155.091 
		420.143,149.798 425.432,144.507 430.744,149.798 430.744,155.091 427.212,151.555 427.212,176.257 423.677,176.257 	"/>
	<rect x="435.953" y="157.683" fill="#E4001C" width="10.606" height="5.317"/>
	<rect x="439.486" y="164.108" fill="#1A1718" width="3.59" height="12.148"/>
</g>
</svg>
