<?xml version="1.0" encoding="utf-8"?>
<!-- Generator: Adobe Illustrator 16.0.0, SVG Export Plug-In . SVG Version: 6.00 Build 0)  -->
<!DOCTYPE svg PUBLIC "-//W3C//DTD SVG 1.1//EN" "http://www.w3.org/Graphics/SVG/1.1/DTD/svg11.dtd">
<svg version="1.1" id="Layer_1" xmlns="http://www.w3.org/2000/svg" xmlns:xlink="http://www.w3.org/1999/xlink" x="0px" y="0px"
	 width="495px" height="242px" viewBox="0 0 495 242" enable-background="new 0 0 495 242" xml:space="preserve">
<g>
	<path fill="#494949" d="M21.167,80.943c0-0.362-0.133-0.657-0.399-0.884s-0.601-0.434-1.003-0.621
		c-0.402-0.187-0.839-0.379-1.309-0.578c-0.47-0.197-0.907-0.441-1.309-0.73s-0.737-0.648-1.003-1.08
		c-0.266-0.43-0.399-0.98-0.399-1.648c0-0.578,0.096-1.08,0.289-1.505c0.192-0.425,0.467-0.778,0.825-1.062
		c0.357-0.283,0.779-0.493,1.266-0.629C18.612,72.07,19.156,72,19.757,72c0.691,0,1.343,0.06,1.955,0.179
		c0.612,0.119,1.116,0.292,1.513,0.519l-0.731,1.955c-0.25-0.158-0.624-0.303-1.122-0.434c-0.498-0.131-1.037-0.195-1.615-0.195
		c-0.544,0-0.96,0.107-1.25,0.322c-0.289,0.216-0.434,0.505-0.434,0.867c0,0.34,0.133,0.623,0.399,0.85
		c0.266,0.228,0.601,0.438,1.003,0.63s0.839,0.391,1.309,0.595c0.47,0.204,0.907,0.451,1.309,0.74
		c0.402,0.289,0.736,0.646,1.003,1.07c0.266,0.425,0.399,0.955,0.399,1.59s-0.105,1.182-0.314,1.641
		c-0.21,0.459-0.504,0.841-0.884,1.146c-0.38,0.307-0.839,0.533-1.377,0.681c-0.539,0.146-1.131,0.221-1.777,0.221
		c-0.85,0-1.598-0.079-2.244-0.237c-0.646-0.159-1.122-0.318-1.428-0.477l0.748-1.988c0.125,0.067,0.286,0.141,0.484,0.221
		c0.198,0.079,0.422,0.152,0.671,0.221c0.25,0.068,0.513,0.125,0.791,0.17s0.564,0.068,0.859,0.068c0.691,0,1.221-0.116,1.589-0.349
		C20.983,81.773,21.167,81.418,21.167,80.943z"/>
	<path fill="#494949" d="M25.043,72.239h7.055v2.074h-4.726v2.771h4.301v2.074h-4.301v2.907h4.811v2.074h-7.14V72.239z"/>
	<path fill="#494949" d="M37.828,79.225l0.306,2.023h0.085l0.34-2.04l2.278-6.97h2.448l-4.42,11.984h-1.666l-4.454-11.984h2.703
		L37.828,79.225z"/>
	<path fill="#494949" d="M44.151,72.239h7.055v2.074H46.48v2.771h4.301v2.074H46.48v2.907h4.812v2.074h-7.141V72.239z"/>
	<path fill="#494949" d="M53.025,72.358c0.261-0.045,0.541-0.088,0.841-0.128c0.301-0.04,0.602-0.07,0.902-0.093
		c0.299-0.023,0.592-0.04,0.875-0.052c0.283-0.011,0.544-0.017,0.781-0.017c0.556,0,1.103,0.051,1.641,0.152
		c0.539,0.104,1.021,0.278,1.445,0.527c0.426,0.25,0.766,0.592,1.02,1.029c0.256,0.436,0.383,0.982,0.383,1.64
		c0,0.976-0.227,1.769-0.68,2.38c-0.453,0.612-1.061,1.037-1.818,1.275l0.832,0.527l2.721,4.539h-2.687l-2.702-4.658l-1.225-0.221
		v4.879h-2.329V72.358z M56.595,74.143c-0.237,0-0.473,0.006-0.705,0.017c-0.232,0.011-0.41,0.034-0.535,0.067v3.451h0.986
		c0.646,0,1.161-0.146,1.547-0.441c0.385-0.295,0.578-0.782,0.578-1.462c0-0.511-0.159-0.909-0.477-1.198
		C57.671,74.288,57.208,74.143,56.595,74.143z"/>
	<path fill="#494949" d="M63.259,72.239h7.056v2.074h-4.726v2.771h4.301v2.074h-4.301v2.907H70.4v2.074h-7.141V72.239z"/>
	<path fill="#494949" d="M16.883,88.239c0.238-0.034,0.507-0.062,0.808-0.085c0.3-0.022,0.609-0.04,0.926-0.052
		c0.317-0.011,0.626-0.02,0.927-0.025c0.3-0.005,0.569-0.008,0.807-0.008c1.054,0,1.955,0.147,2.703,0.441
		c0.748,0.295,1.354,0.709,1.819,1.241c0.465,0.533,0.805,1.167,1.02,1.904c0.215,0.737,0.323,1.547,0.323,2.431
		c0,0.805-0.102,1.581-0.306,2.329c-0.204,0.748-0.544,1.411-1.02,1.989c-0.476,0.578-1.102,1.043-1.878,1.395
		c-0.776,0.351-1.737,0.526-2.881,0.526c-0.182,0-0.422-0.006-0.723-0.017c-0.3-0.012-0.612-0.025-0.935-0.043
		c-0.323-0.018-0.632-0.034-0.926-0.051c-0.295-0.018-0.516-0.037-0.663-0.06L16.883,88.239L16.883,88.239z M20.538,90.143
		c-0.249,0-0.501,0.006-0.756,0.017c-0.255,0.011-0.445,0.028-0.569,0.051v7.974c0.045,0.012,0.122,0.02,0.229,0.025
		c0.107,0.006,0.224,0.012,0.348,0.017c0.125,0.006,0.244,0.012,0.357,0.017c0.113,0.006,0.198,0.009,0.255,0.009
		c0.657,0,1.204-0.116,1.641-0.349c0.436-0.232,0.782-0.541,1.037-0.926c0.255-0.386,0.434-0.83,0.536-1.335
		c0.102-0.504,0.153-1.022,0.153-1.556c0-0.465-0.045-0.932-0.136-1.402c-0.091-0.471-0.258-0.893-0.501-1.267
		c-0.244-0.374-0.575-0.68-0.995-0.918C21.717,90.262,21.184,90.143,20.538,90.143z"/>
	<path fill="#494949" d="M27.882,88.239h7.055v2.074h-4.726v2.771h4.301v2.074h-4.301v2.907h4.811v2.074h-7.14V88.239z"/>
	<path fill="#494949" d="M44.287,100.139h-7.531v-11.9h2.329v9.826h5.202V100.139z"/>
	<path fill="#494949" d="M49.285,97.504H45.63l-0.9,2.635H42.4l4.284-11.985h1.717l4.284,11.985h-2.448L49.285,97.504z
		 M46.226,95.633h2.55l-0.884-2.652l-0.357-1.869H47.45l-0.356,1.887L46.226,95.633z"/>
	<path fill="#494949" d="M55.065,95.719l-3.91-7.479h2.771l2.176,4.471l0.238,1.258h0.084l0.256-1.291l2.107-4.438h2.5l-3.894,7.463
		v4.438h-2.329L55.065,95.719L55.065,95.719z"/>
	<path fill="#494949" d="M67.407,96.943c0-0.362-0.133-0.657-0.399-0.884c-0.266-0.227-0.601-0.434-1.003-0.621
		c-0.402-0.187-0.839-0.379-1.309-0.578c-0.471-0.197-0.907-0.441-1.31-0.73c-0.403-0.289-0.737-0.648-1.003-1.08
		c-0.266-0.43-0.399-0.98-0.399-1.648c0-0.578,0.097-1.08,0.289-1.505s0.468-0.778,0.825-1.062c0.356-0.283,0.778-0.493,1.266-0.629
		C64.852,88.07,65.396,88,65.997,88c0.69,0,1.342,0.06,1.955,0.179c0.611,0.119,1.115,0.292,1.512,0.519l-0.73,1.955
		c-0.25-0.158-0.623-0.303-1.122-0.434c-0.499-0.131-1.037-0.195-1.614-0.195c-0.545,0-0.961,0.107-1.25,0.322
		c-0.289,0.216-0.434,0.505-0.434,0.867c0,0.34,0.133,0.623,0.399,0.85c0.267,0.228,0.601,0.438,1.003,0.63
		c0.402,0.192,0.839,0.391,1.309,0.595c0.471,0.204,0.907,0.451,1.31,0.74c0.401,0.289,0.736,0.646,1.003,1.07
		c0.266,0.425,0.399,0.955,0.399,1.59s-0.104,1.182-0.314,1.641s-0.505,0.841-0.884,1.146c-0.38,0.307-0.839,0.533-1.377,0.681
		c-0.539,0.146-1.131,0.221-1.777,0.221c-0.85,0-1.598-0.079-2.243-0.237c-0.646-0.159-1.122-0.318-1.429-0.477l0.748-1.988
		c0.125,0.067,0.287,0.141,0.484,0.221c0.199,0.079,0.423,0.152,0.672,0.221c0.25,0.068,0.513,0.125,0.791,0.17
		c0.277,0.045,0.563,0.068,0.858,0.068c0.69,0,1.221-0.116,1.589-0.349C67.224,97.773,67.407,97.418,67.407,96.943z"/>
</g>
<polyline fill="#FFFFFF" points="15.457,58.87 41.77,12.404 68.696,59 15.457,58.87 "/>
<path fill="#E4001C" d="M16.719,61.893c-1.422,0.014-2.714-0.711-3.41-1.941c-0.711-1.229-0.711-2.699,0.033-3.928l25.227-43.57
	c0.696-1.18,1.957-1.906,3.33-1.906c1.358,0,2.619,0.727,3.314,1.906l25.295,43.619c0.66,1.198,0.648,2.633-0.032,3.815
	c-0.698,1.213-2.005,1.957-3.414,1.936L16.719,61.893"/>
<polygon fill="#FFFFFF" points="64.896,56.735 18.885,56.735 41.931,16.963 "/>
<path fill="#1A1718" d="M38.053,34.271c0.111,0,0.242,0,0.371,0c0.13,0,0.259,0,0.389,0c0.031,0.031,0.08,0.08,0.128,0.129
	c0.016,0.127,0.034,0.256,0.064,0.389c-0.08,0.08-0.162,0.16-0.259,0.256c-0.113,0.148-0.243,0.293-0.373,0.438
	c-0.128,0.146-0.257,0.291-0.386,0.453c-0.097,0.242-0.21,0.5-0.324,0.76c0,0.242,0,0.5,0,0.758c0.033,0.275,0.08,0.549,0.13,0.842
	c0.063,0.436,0.129,0.873,0.194,1.326c0.082,0.404,0.16,0.807,0.258,1.211c-0.016,0.064-0.032,0.131-0.063,0.193
	c-0.082,0.178-0.163,0.373-0.26,0.566c-0.129,0.275-0.259,0.551-0.386,0.84c-0.147,0.273-0.292,0.551-0.438,0.824
	c-0.064,0.307-0.13,0.631-0.196,0.957c-0.063,0.207-0.127,0.416-0.192,0.627c-0.018,0.26-0.031,0.516-0.065,0.777
	c-0.696,0.42-1.391,0.84-2.101,1.262c-0.066-0.148-0.13-0.295-0.195-0.438c-0.048-0.066-0.112-0.131-0.178-0.195
	c-0.032-0.031-0.079-0.08-0.126-0.129c-0.1-0.014-0.213-0.031-0.326-0.064c-0.145-0.063-0.292-0.131-0.452-0.193
	c-0.097-0.031-0.194-0.082-0.307-0.129c-0.066-0.08-0.129-0.164-0.194-0.242c-0.066-0.133-0.129-0.26-0.195-0.389
	c-0.128-0.178-0.257-0.373-0.386-0.566c-0.114-0.131-0.244-0.258-0.373-0.387c-0.195-0.066-0.389-0.129-0.583-0.195
	c-0.16,0-0.323,0-0.502,0c-0.16-0.064-0.337-0.129-0.516-0.195c-0.209-0.014-0.422-0.029-0.629-0.062
	c-0.244,0.016-0.502,0.033-0.759,0.062c-2.069,3.719-4.155,7.438-6.241,11.154c4.786,0,9.585,0,14.384,0
	c-0.129-0.615-0.258-1.229-0.389-1.857c-0.159-0.682-0.321-1.359-0.499-2.039c-0.26-0.693-0.518-1.391-0.776-2.1
	c-0.179-0.355-0.372-0.713-0.566-1.082c0.694-0.422,1.389-0.84,2.101-1.262c0.226,0,0.454,0,0.696,0
	c0.127-0.016,0.257-0.031,0.386-0.066c0.178-0.08,0.372-0.16,0.565-0.258c0.099-0.08,0.211-0.16,0.325-0.258
	c0.015-0.066,0.031-0.129,0.063-0.195c0-0.096,0-0.191,0-0.305c0.824-0.535,1.649-1.068,2.489-1.603
	c-0.274,0.629-0.549,1.262-0.84,1.906c0,0.227,0,0.471,0,0.711c-0.048,0.891-0.113,1.777-0.177,2.666
	c-0.064,1.455-0.13,2.926-0.193,4.398c-0.534,0.178-1.068,0.373-1.6,0.566c-0.146,0.08-0.293,0.16-0.438,0.256
	c-0.064,0.018-0.129,0.033-0.194,0.066c0,0.08,0,0.162,0,0.258c0,0.033,0,0.082,0,0.129c0.081,0.016,0.162,0.033,0.26,0.066
	c1.534,0,3.085,0,4.638,0c0.436-2.246,0.889-4.492,1.341-6.756c-0.064,0-0.129,0-0.193,0c0-0.277,0-0.551,0-0.826
	c0.774-1.371,1.567-2.744,2.357-4.135c0.082,0.482,0.164,0.969,0.26,1.471c0.048,0.223,0.113,0.451,0.177,0.691
	c0.097,0.227,0.211,0.455,0.324,0.697c0.148,0.275,0.293,0.551,0.453,0.826c0.097,0.225,0.196,0.465,0.308,0.709
	c0.146,0.176,0.289,0.373,0.453,0.566c0.16,0.16,0.321,0.336,0.5,0.516c0.289,0.244,0.599,0.5,0.906,0.76
	c0.791,0.678,1.602,1.357,2.406,2.035c0.358,0.291,0.713,0.584,1.084,0.891c0.031,0.082,0.08,0.162,0.127,0.26
	c-0.015,0.127-0.031,0.258-0.064,0.387c-0.031,0.098-0.079,0.193-0.129,0.307c-0.062,0.146-0.127,0.293-0.191,0.453
	c-0.339,0.34-0.681,0.68-1.02,1.021c0,0.031,0,0.078,0,0.129c0.531,0,1.066,0,1.602,0c0.112-0.066,0.242-0.129,0.371-0.195
	c0.129-0.031,0.258-0.08,0.386-0.129c0.067-0.129,0.131-0.258,0.196-0.387c0.484-0.793,0.97-1.6,1.471-2.41
	c0.096-0.256,0.193-0.518,0.307-0.775c-0.227-0.08-0.453-0.16-0.695-0.242c-0.131-0.082-0.258-0.162-0.389-0.258
	c-0.096-0.096-0.193-0.209-0.308-0.324c-0.501-0.566-1.017-1.131-1.536-1.713c-0.677-0.775-1.357-1.566-2.036-2.359
	c-0.078,0.064-0.161,0.129-0.259,0.193c-0.145-0.145-0.291-0.291-0.433-0.451c-0.081-0.098-0.163-0.193-0.261-0.307
	c-0.031-0.146-0.081-0.291-0.128-0.453c-0.031-0.357-0.081-0.713-0.132-1.082c-0.031-0.438-0.08-0.891-0.129-1.344
	c-0.112-0.434-0.24-0.871-0.372-1.324c-0.095-0.291-0.208-0.58-0.321-0.889c-0.127-0.34-0.26-0.68-0.39-1.02
	c0.097-0.08,0.212-0.16,0.325-0.258c0.146,0.082,0.291,0.162,0.452,0.258c0.03-0.033,0.065-0.08,0.113-0.125
	c0.128-0.082,0.256-0.164,0.388-0.262c0.098-0.062,0.21-0.129,0.322-0.193c0.082-0.096,0.16-0.209,0.26-0.322
	c0.049-0.049,0.111-0.113,0.176-0.18c-0.016-0.131-0.029-0.258-0.064-0.387c-0.031-0.068-0.062-0.131-0.111-0.195
	c-0.08-0.082-0.164-0.162-0.26-0.256c-0.062-0.035-0.129-0.082-0.193-0.133c-0.08-0.289-0.162-0.58-0.261-0.889
	c-0.063-0.418-0.128-0.84-0.191-1.26c-0.034-0.129-0.064-0.26-0.112-0.387c-0.132-0.309-0.258-0.631-0.391-0.955
	c-0.127-0.291-0.256-0.58-0.387-0.889c-0.113-0.211-0.24-0.418-0.371-0.645c-0.226-0.213-0.469-0.422-0.711-0.633
	c-0.179-0.145-0.373-0.289-0.564-0.453c-0.211-0.047-0.424-0.113-0.649-0.176c-0.226-0.018-0.45-0.033-0.693-0.066
	c-0.228,0-0.454,0-0.695,0c-0.21,0.018-0.419,0.033-0.63,0.066c-0.211,0.047-0.42,0.113-0.646,0.176
	c-0.548,0.197-1.098,0.389-1.649,0.584c-0.354,0.16-0.709,0.322-1.082,0.502c-0.226,0.129-0.47,0.256-0.712,0.387
	c-0.082-0.033-0.162-0.082-0.242-0.131c0-0.064,0-0.127,0-0.193c0,0.018,0,0.033,0,0.066c0.128-0.373,0.064-0.324,0.064-0.697
	c0-1.275-1.083-2.424-2.425-2.424c-1.342,0-2.424,1.148-2.424,2.424c0,1.342,1.082,2.475,2.424,2.475
	c0.065-0.016,0.13-0.033,0.194-0.049C38.101,34.238,38.085,34.256,38.053,34.271"/>
<path fill="#494949" d="M417.229,94.551c-0.362,0.26-0.823,0.445-1.386,0.557c-0.562,0.113-1.136,0.169-1.726,0.169
	c-0.714,0-1.392-0.11-2.031-0.331c-0.64-0.221-1.205-0.578-1.691-1.071c-0.487-0.493-0.875-1.134-1.163-1.921
	c-0.289-0.787-0.435-1.742-0.435-2.865c0-1.166,0.161-2.145,0.484-2.932c0.321-0.787,0.742-1.422,1.258-1.904
	c0.516-0.481,1.09-0.827,1.725-1.037c0.636-0.209,1.271-0.314,1.904-0.314c0.681,0,1.256,0.045,1.727,0.137
	c0.471,0.09,0.857,0.197,1.164,0.322l-0.459,1.973c-0.262-0.125-0.569-0.216-0.927-0.272c-0.356-0.056-0.79-0.085-1.3-0.085
	c-0.941,0-1.698,0.335-2.271,1.005c-0.572,0.671-0.858,1.71-0.858,3.118c0,0.613,0.067,1.172,0.204,1.678
	c0.136,0.505,0.343,0.937,0.62,1.295c0.277,0.357,0.623,0.636,1.037,0.834c0.413,0.199,0.893,0.299,1.438,0.299
	c0.51,0,0.939-0.052,1.291-0.153c0.352-0.103,0.658-0.232,0.918-0.392L417.229,94.551z"/>
<path fill="#494949" d="M426.204,95.039h-7.53v-11.9h2.328v9.826h5.202V95.039z"/>
<path fill="#494949" d="M427.411,83.139h7.056v2.074h-4.727v2.771h4.301v2.074h-4.301v2.907h4.811v2.074h-7.14V83.139z"/>
<path fill="#494949" d="M442.15,92.404h-3.655l-0.901,2.635h-2.328l4.283-11.985h1.717l4.284,11.985h-2.447L442.15,92.404z
	 M439.09,90.533h2.551l-0.885-2.652l-0.356-1.869h-0.084l-0.357,1.887L439.09,90.533z"/>
<path fill="#494949" d="M446.57,83.258c0.261-0.045,0.541-0.088,0.841-0.128c0.301-0.04,0.602-0.07,0.902-0.093
	c0.299-0.023,0.592-0.04,0.875-0.052c0.282-0.011,0.544-0.017,0.78-0.017c0.557,0,1.104,0.051,1.642,0.152
	c0.539,0.103,1.021,0.278,1.444,0.527c0.427,0.25,0.767,0.592,1.021,1.029c0.256,0.436,0.383,0.982,0.383,1.64
	c0,0.976-0.227,1.769-0.68,2.38c-0.453,0.612-1.062,1.037-1.818,1.275l0.832,0.527l2.721,4.539h-2.687l-2.702-4.658l-1.225-0.221
	v4.879h-2.329V83.258z M450.14,85.043c-0.236,0-0.473,0.006-0.705,0.017c-0.231,0.011-0.409,0.034-0.534,0.067v3.451h0.985
	c0.646,0,1.161-0.146,1.547-0.441c0.386-0.295,0.578-0.782,0.578-1.462c0-0.511-0.159-0.909-0.477-1.198
	C451.216,85.188,450.753,85.043,450.14,85.043z"/>
<path fill="#494949" d="M456.804,83.139h7.057v2.074h-4.727v2.771h4.301v2.074h-4.301v2.907h4.812v2.074h-7.142V83.139z"/>
<path fill="#494949" d="M465.679,83.139c0.237-0.034,0.506-0.062,0.808-0.085c0.301-0.023,0.608-0.04,0.927-0.052
	c0.317-0.011,0.626-0.02,0.927-0.025c0.3-0.005,0.569-0.008,0.807-0.008c1.056,0,1.955,0.147,2.703,0.441
	c0.748,0.295,1.354,0.709,1.819,1.241c0.465,0.533,0.805,1.167,1.021,1.904c0.215,0.737,0.321,1.547,0.321,2.431
	c0,0.805-0.102,1.581-0.306,2.329s-0.544,1.411-1.021,1.989c-0.476,0.578-1.102,1.043-1.878,1.395
	c-0.775,0.351-1.736,0.526-2.882,0.526c-0.182,0-0.422-0.006-0.723-0.017c-0.3-0.012-0.611-0.025-0.936-0.043
	c-0.323-0.018-0.632-0.034-0.927-0.051c-0.295-0.018-0.516-0.037-0.662-0.06L465.679,83.139L465.679,83.139z M469.333,85.043
	c-0.249,0-0.502,0.006-0.756,0.017c-0.256,0.011-0.445,0.028-0.57,0.051v7.974c0.045,0.012,0.122,0.02,0.23,0.025
	c0.106,0.006,0.223,0.012,0.348,0.017c0.125,0.006,0.244,0.012,0.357,0.017c0.112,0.006,0.196,0.009,0.255,0.009
	c0.656,0,1.204-0.116,1.641-0.349c0.438-0.233,0.782-0.541,1.036-0.926c0.256-0.386,0.434-0.83,0.536-1.335
	c0.103-0.504,0.152-1.022,0.152-1.556c0-0.465-0.046-0.932-0.137-1.402c-0.09-0.471-0.258-0.893-0.501-1.267
	c-0.244-0.374-0.575-0.68-0.995-0.918C470.512,85.162,469.979,85.043,469.333,85.043z"/>
<path fill="#00A900" d="M443.63,10.547c16.104,0,29.168,13.076,29.168,29.197c0,16.109-13.062,29.189-29.168,29.189
	c-16.099,0-29.168-13.08-29.168-29.189C414.462,23.623,427.531,10.547,443.63,10.547"/>
<path fill="#FFFFFF" d="M443.714,16.383c12.883,0,23.336,10.463,23.336,23.361c0,12.889-10.453,23.354-23.336,23.354
	c-12.881,0-23.336-10.465-23.336-23.354C420.378,26.846,430.833,16.383,443.714,16.383"/>
<path fill="#1A1718" d="M437.859,39.98c0.171,0,2.388-0.975,2.388-4.127s-2.823-5.969-7.521-5.969c-4.694,0-7.549,2.316-7.883,6.203
	l4.26,0.471c0.304-1.877,1.277-3.016,3.896-3.016c2.646,0,2.983,1.844,2.983,2.512c-0.032,1.814-1.106,2.482-4.493,2.482v3.426
	c0.971,0.064,3.017,0.033,3.621,0.402c1.14,0.77,1.14,1.338,1.14,2.078c0,0.471-0.032,2.818-3.088,2.818
	c-3.081,0-3.755-1.645-4.059-3.221l-4.26,0.773c0.504,3.486,2.92,6.203,8.221,6.203c5.336,0,7.55-3.557,7.55-6.373
	C440.614,41.857,438.903,40.182,437.859,39.98"/>
<path fill="#1A1718" d="M453.63,29.918c2.92-0.033,8.553,1.643,8.553,10.498c0,8.82-5.334,10.602-8.553,10.602
	c-3.222,0-8.555-1.781-8.555-10.602C445.075,31.561,450.745,29.885,453.63,29.918z"/>
<path fill="#494949" d="M316.605,80.946c0-0.363-0.133-0.657-0.399-0.884s-0.601-0.434-1.003-0.621s-0.839-0.379-1.309-0.578
	c-0.471-0.199-0.908-0.442-1.31-0.731s-0.737-0.649-1.003-1.08c-0.266-0.431-0.398-0.98-0.398-1.649c0-0.578,0.096-1.08,0.289-1.505
	c0.191-0.425,0.467-0.779,0.824-1.062s0.779-0.493,1.266-0.629c0.488-0.136,1.031-0.204,1.633-0.204c0.691,0,1.343,0.06,1.955,0.179
	c0.611,0.119,1.115,0.292,1.513,0.519l-0.731,1.955c-0.25-0.159-0.623-0.303-1.121-0.434c-0.498-0.131-1.037-0.196-1.615-0.196
	c-0.545,0-0.961,0.108-1.25,0.323c-0.29,0.215-0.434,0.504-0.434,0.867c0,0.34,0.133,0.623,0.398,0.85s0.602,0.437,1.003,0.629
	s0.839,0.391,1.31,0.595c0.469,0.204,0.906,0.451,1.309,0.74c0.402,0.289,0.736,0.646,1.003,1.071
	c0.266,0.425,0.399,0.955,0.399,1.589c0,0.635-0.105,1.182-0.314,1.641c-0.21,0.459-0.504,0.841-0.885,1.147
	c-0.379,0.306-0.838,0.533-1.377,0.68c-0.539,0.147-1.131,0.221-1.776,0.221c-0.851,0-1.599-0.079-2.244-0.238
	c-0.646-0.159-1.122-0.317-1.428-0.476l0.748-1.989c0.125,0.068,0.286,0.142,0.483,0.221c0.198,0.08,0.422,0.153,0.672,0.221
	c0.25,0.068,0.513,0.125,0.791,0.17c0.277,0.045,0.563,0.068,0.858,0.068c0.69,0,1.222-0.116,1.589-0.348
	C316.421,81.776,316.605,81.422,316.605,80.946z"/>
<path fill="#494949" d="M320.481,72.361c0.476-0.091,1-0.162,1.571-0.213c0.572-0.051,1.143-0.076,1.708-0.076
	c0.589,0,1.183,0.048,1.777,0.145c0.595,0.096,1.13,0.289,1.605,0.578c0.477,0.289,0.864,0.691,1.165,1.207s0.45,1.188,0.45,2.015
	c0,0.748-0.13,1.38-0.391,1.896s-0.606,0.938-1.037,1.267c-0.431,0.329-0.921,0.567-1.471,0.714
	c-0.551,0.147-1.119,0.221-1.708,0.221c-0.058,0-0.147,0-0.272,0s-0.255-0.003-0.391-0.009c-0.136-0.005-0.27-0.014-0.399-0.025
	c-0.13-0.011-0.224-0.022-0.28-0.034v4.097h-2.328V72.361L320.481,72.361z M323.949,74.078c-0.228,0-0.442,0.008-0.646,0.025
	s-0.368,0.037-0.493,0.06v3.859c0.046,0.012,0.113,0.023,0.204,0.034c0.09,0.011,0.188,0.02,0.289,0.025
	c0.103,0.006,0.201,0.009,0.298,0.009s0.167,0,0.213,0c0.306,0,0.608-0.028,0.909-0.085c0.301-0.056,0.569-0.161,0.808-0.314
	c0.237-0.153,0.428-0.365,0.569-0.637c0.143-0.272,0.213-0.629,0.213-1.071c0-0.374-0.068-0.683-0.204-0.926
	c-0.137-0.244-0.314-0.439-0.536-0.586s-0.474-0.25-0.756-0.306C324.533,74.109,324.244,74.078,323.949,74.078z"/>
<path fill="#494949" d="M330.205,72.242h7.055v2.074h-4.726v2.771h4.301v2.074h-4.301v2.907h4.811v2.074h-7.14V72.242
	L330.205,72.242z"/>
<path fill="#494949" d="M347.137,83.655c-0.362,0.259-0.825,0.444-1.386,0.557c-0.561,0.113-1.136,0.168-1.726,0.168
	c-0.715,0-1.392-0.11-2.031-0.331c-0.642-0.221-1.205-0.578-1.691-1.071c-0.487-0.493-0.875-1.133-1.165-1.921
	c-0.29-0.788-0.434-1.743-0.434-2.865c0-1.167,0.162-2.145,0.483-2.932c0.323-0.788,0.742-1.422,1.259-1.904
	c0.516-0.481,1.09-0.827,1.725-1.037c0.635-0.209,1.271-0.314,1.904-0.314c0.68,0,1.255,0.045,1.726,0.136
	c0.471,0.091,0.858,0.198,1.165,0.323l-0.459,1.972c-0.261-0.125-0.57-0.215-0.927-0.272c-0.357-0.057-0.791-0.085-1.3-0.085
	c-0.941,0-1.698,0.335-2.271,1.005s-0.857,1.709-0.857,3.118c0,0.613,0.067,1.173,0.204,1.678c0.136,0.505,0.343,0.937,0.62,1.295
	c0.278,0.357,0.623,0.636,1.037,0.835c0.414,0.198,0.894,0.298,1.438,0.298c0.51,0,0.939-0.051,1.292-0.153
	c0.351-0.102,0.657-0.232,0.918-0.391L347.137,83.655z"/>
<path fill="#494949" d="M348.819,72.242h2.329v11.9h-2.329V72.242z"/>
<path fill="#494949" d="M359.292,81.507h-3.655l-0.9,2.635h-2.329l4.284-11.985h1.717l4.284,11.985h-2.448L359.292,81.507z
	 M356.231,79.637h2.55l-0.885-2.652l-0.357-1.87h-0.085l-0.357,1.887L356.231,79.637z"/>
<path fill="#494949" d="M371.243,84.142h-7.531v-11.9h2.329v9.826h5.202V84.142z"/>
<path fill="#494949" d="M317.464,88.242h7.055v2.074h-4.726v2.771h4.301v2.074h-4.301v2.907h4.811v2.074h-7.14V88.242
	L317.464,88.242z"/>
<path fill="#494949" d="M330.248,95.229l0.306,2.023h0.085l0.34-2.04l2.278-6.97h2.448l-4.42,11.985h-1.666l-4.454-11.985h2.703
	L330.248,95.229z"/>
<path fill="#494949" d="M336.572,88.242h7.055v2.074h-4.726v2.771h4.301v2.074h-4.301v2.907h4.811v2.074h-7.14V88.242
	L336.572,88.242z"/>
<path fill="#494949" d="M348.404,93.937l-0.936-1.87h-0.085l0.272,1.87v6.205h-2.21V88.157h1.7l4.505,6.341l0.9,1.819h0.085
	l-0.271-1.819v-6.256h2.21v11.985h-1.7L348.404,93.937z"/>
<path fill="#494949" d="M365.064,90.316h-3.469v9.826h-2.329v-9.826h-3.484v-2.074h9.282V90.316L365.064,90.316z"/>
<polyline fill="#FFFFFF" points="327.538,58.785 313.25,58.785 339.399,12.767 365.788,58.785 327.538,58.785 "/>
<path fill="#007ADF" d="M364.631,61.85c1.372-0.018,2.643-0.752,3.321-1.94c0.686-1.188,0.686-2.656,0-3.842l-25.175-43.589
	c-0.686-1.194-1.953-1.931-3.333-1.931c-1.369,0-2.638,0.732-3.327,1.919l-25.182,43.602c-0.685,1.186-0.685,2.654,0,3.842
	c0.699,1.188,1.972,1.923,3.34,1.923L364.631,61.85"/>
<polygon fill="#FFFFFF" points="316.493,56.701 362.403,56.701 339.445,16.966 "/>
<path fill="#1A1718" d="M339.282,47.655c1.89,0,3.422,1.535,3.422,3.421c0,1.89-1.532,3.421-3.422,3.421
	c-1.886,0-3.418-1.531-3.418-3.421C335.864,49.19,337.396,47.655,339.282,47.655"/>
<path fill="#1A1718" d="M338.795,45.949h1.025l3.833-15.165c0.062-0.301,0.093-0.607,0.093-0.913c0-2.446-1.992-4.435-4.446-4.435
	c-2.456,0-4.446,1.988-4.446,4.435c0,0.306,0.033,0.612,0.096,0.913L338.795,45.949"/>
<path fill="#494949" d="M228.571,77.967l0.255-2.363h-0.102l-0.731,1.904l-2.533,4.437h-0.748l-2.669-4.454l-0.748-1.887h-0.085
	l0.34,2.346v6.188h-2.21v-11.9h2.125l3.179,5.44l0.561,1.36h0.068l0.51-1.394l3.009-5.406h2.108v11.9h-2.329V77.967z"/>
<path fill="#494949" d="M233.177,72.238h2.329v11.9h-2.329V72.238z"/>
<path fill="#494949" d="M240.743,77.933l-0.935-1.87h-0.085l0.272,1.87v6.205h-2.21V72.153h1.7l4.505,6.341l0.9,1.819h0.086
	l-0.272-1.819v-6.256h2.21v11.985h-1.7L240.743,77.933z"/>
<path fill="#494949" d="M248.58,78.188c0-1.983,0.436-3.51,1.309-4.582c0.873-1.071,2.119-1.606,3.74-1.606
	c0.85,0,1.592,0.147,2.227,0.442c0.636,0.294,1.162,0.714,1.582,1.258c0.418,0.544,0.73,1.196,0.935,1.955
	c0.204,0.759,0.306,1.604,0.306,2.533c0,1.983-0.438,3.511-1.318,4.582c-0.877,1.071-2.121,1.606-3.73,1.606
	c-0.861,0-1.609-0.147-2.244-0.442c-0.635-0.294-1.158-0.714-1.572-1.258c-0.414-0.544-0.724-1.196-0.926-1.955
	C248.682,79.962,248.58,79.118,248.58,78.188z M251.027,78.188c0,0.601,0.052,1.153,0.154,1.658c0.102,0.505,0.258,0.938,0.467,1.3
	c0.209,0.363,0.479,0.646,0.808,0.85s0.72,0.306,1.173,0.306c0.827,0,1.469-0.323,1.921-0.969c0.453-0.646,0.681-1.694,0.681-3.145
	c0-0.578-0.049-1.116-0.146-1.615c-0.096-0.499-0.247-0.935-0.45-1.309s-0.471-0.666-0.799-0.875
	c-0.329-0.209-0.73-0.314-1.207-0.314c-0.827,0-1.468,0.332-1.921,0.995C251.254,75.731,251.027,76.771,251.027,78.188z"/>
<path fill="#494949" d="M260.343,72.357c0.261-0.045,0.541-0.088,0.841-0.128c0.301-0.04,0.602-0.07,0.901-0.093
	c0.3-0.021,0.592-0.04,0.875-0.051c0.283-0.011,0.544-0.017,0.782-0.017c0.555,0,1.102,0.051,1.641,0.153
	c0.538,0.102,1.02,0.278,1.445,0.527c0.425,0.25,0.765,0.592,1.02,1.029c0.256,0.436,0.383,0.983,0.383,1.64
	c0,0.975-0.227,1.768-0.68,2.38c-0.453,0.612-1.06,1.037-1.818,1.275l0.832,0.527l2.721,4.539H266.6l-2.703-4.658l-1.225-0.221
	v4.879h-2.329V72.357z M263.913,74.142c-0.238,0-0.474,0.006-0.706,0.017c-0.232,0.011-0.411,0.034-0.535,0.068v3.451h0.986
	c0.646,0,1.162-0.146,1.547-0.442c0.385-0.295,0.578-0.782,0.578-1.462c0-0.51-0.159-0.91-0.477-1.199
	C264.99,74.286,264.525,74.142,263.913,74.142z"/>
<path fill="#494949" d="M217.759,88.238c0.238-0.034,0.507-0.062,0.808-0.085c0.3-0.023,0.609-0.04,0.926-0.051
	c0.317-0.011,0.626-0.02,0.927-0.025c0.3-0.005,0.569-0.008,0.807-0.008c1.054,0,1.955,0.147,2.703,0.442
	c0.748,0.295,1.354,0.708,1.819,1.241s0.805,1.167,1.02,1.904c0.215,0.737,0.323,1.547,0.323,2.431c0,0.805-0.102,1.581-0.306,2.329
	s-0.544,1.411-1.02,1.989c-0.476,0.578-1.102,1.043-1.878,1.394c-0.776,0.351-1.737,0.527-2.881,0.527
	c-0.182,0-0.422-0.006-0.723-0.017c-0.301-0.011-0.612-0.025-0.935-0.042c-0.323-0.017-0.632-0.034-0.926-0.051
	c-0.295-0.017-0.516-0.037-0.663-0.06L217.759,88.238L217.759,88.238z M221.414,90.142c-0.249,0-0.501,0.006-0.756,0.017
	c-0.255,0.011-0.445,0.028-0.569,0.051v7.973c0.045,0.012,0.122,0.02,0.229,0.025c0.107,0.006,0.224,0.012,0.348,0.017
	c0.125,0.006,0.244,0.012,0.357,0.017c0.113,0.006,0.198,0.008,0.255,0.008c0.657,0,1.204-0.116,1.641-0.348
	c0.436-0.232,0.782-0.541,1.037-0.927c0.255-0.385,0.434-0.83,0.536-1.334s0.153-1.022,0.153-1.555c0-0.465-0.045-0.932-0.136-1.403
	c-0.091-0.47-0.258-0.893-0.501-1.267c-0.244-0.374-0.575-0.68-0.995-0.918C222.592,90.261,222.06,90.142,221.414,90.142z"/>
<path fill="#494949" d="M228.758,88.238h7.055v2.074h-4.726v2.771h4.301v2.074h-4.301v2.907h4.811v2.074h-7.14V88.238z"/>
<path fill="#494949" d="M245.162,100.138h-7.531v-11.9h2.329v9.826h5.202V100.138z"/>
<path fill="#494949" d="M250.16,97.503h-3.655l-0.901,2.635h-2.328l4.283-11.985h1.717l4.285,11.985h-2.449L250.16,97.503z
	 M247.102,95.633h2.549l-0.883-2.652l-0.357-1.87h-0.085l-0.357,1.887L247.102,95.633z"/>
<path fill="#494949" d="M255.939,95.718l-3.91-7.48h2.771l2.176,4.471l0.238,1.258h0.085l0.255-1.292l2.108-4.437h2.499
	l-3.893,7.463v4.437h-2.33V95.718z"/>
<path fill="#494949" d="M268.282,96.942c0-0.363-0.134-0.657-0.399-0.884s-0.601-0.434-1.003-0.621
	c-0.401-0.187-0.839-0.379-1.31-0.578c-0.469-0.199-0.906-0.442-1.309-0.731s-0.736-0.649-1.003-1.08
	c-0.266-0.431-0.399-0.98-0.399-1.649c0-0.578,0.097-1.08,0.289-1.505c0.192-0.425,0.468-0.779,0.826-1.062
	c0.356-0.283,0.778-0.493,1.266-0.629c0.486-0.136,1.031-0.204,1.632-0.204c0.69,0,1.343,0.06,1.955,0.179
	c0.612,0.119,1.116,0.292,1.513,0.52l-0.73,1.955c-0.25-0.159-0.625-0.303-1.123-0.434c-0.498-0.131-1.036-0.196-1.614-0.196
	c-0.544,0-0.96,0.108-1.25,0.323c-0.29,0.215-0.435,0.504-0.435,0.867c0,0.34,0.133,0.623,0.399,0.85s0.601,0.437,1.003,0.629
	s0.84,0.391,1.309,0.595c0.471,0.204,0.908,0.451,1.31,0.74s0.735,0.646,1.003,1.071c0.266,0.425,0.398,0.955,0.398,1.589
	c0,0.635-0.104,1.182-0.313,1.641c-0.21,0.459-0.504,0.841-0.884,1.147c-0.381,0.306-0.84,0.533-1.377,0.68
	c-0.539,0.147-1.131,0.221-1.777,0.221c-0.85,0-1.598-0.079-2.244-0.238c-0.646-0.159-1.121-0.317-1.428-0.476l0.748-1.989
	c0.125,0.068,0.286,0.142,0.484,0.221c0.197,0.08,0.422,0.153,0.67,0.221c0.25,0.068,0.514,0.125,0.791,0.17
	c0.279,0.045,0.564,0.068,0.859,0.068c0.691,0,1.221-0.116,1.59-0.348S268.282,97.418,268.282,96.942z"/>
<g>
	<polyline fill="#FFFFFF" points="216.332,58.871 242.646,12.404 269.572,59.002 216.332,58.871 	"/>
	<path fill="#FBC934" d="M217.594,61.895c-1.422,0.014-2.714-0.711-3.41-1.941c-0.711-1.229-0.711-2.699,0.033-3.928l25.227-43.572
		c0.697-1.18,1.957-1.906,3.33-1.906c1.358,0,2.619,0.727,3.314,1.906l25.294,43.621c0.66,1.197,0.647,2.633-0.032,3.814
		c-0.697,1.213-2.005,1.957-3.414,1.936L217.594,61.895"/>
	<polygon fill="#FFFFFF" points="265.771,56.736 219.761,56.736 242.807,16.963 	"/>
</g>
<path fill="#1A1718" d="M238.928,34.273c0.111,0,0.242,0,0.371,0c0.13,0,0.259,0,0.389,0c0.031,0.031,0.08,0.08,0.128,0.129
	c0.016,0.127,0.034,0.256,0.064,0.389c-0.08,0.08-0.162,0.16-0.259,0.256c-0.113,0.148-0.243,0.293-0.373,0.438
	c-0.128,0.146-0.257,0.291-0.386,0.453c-0.097,0.242-0.21,0.5-0.324,0.76c0,0.242,0,0.5,0,0.758c0.033,0.275,0.08,0.549,0.13,0.842
	c0.063,0.436,0.129,0.873,0.194,1.326c0.082,0.404,0.16,0.807,0.258,1.211c-0.016,0.064-0.032,0.131-0.063,0.193
	c-0.082,0.178-0.163,0.373-0.26,0.566c-0.129,0.275-0.259,0.551-0.386,0.84c-0.147,0.273-0.292,0.551-0.438,0.824
	c-0.064,0.307-0.13,0.631-0.196,0.957c-0.063,0.207-0.127,0.416-0.192,0.627c-0.018,0.26-0.031,0.516-0.065,0.777
	c-0.696,0.42-1.391,0.84-2.101,1.262c-0.066-0.148-0.13-0.295-0.195-0.438c-0.048-0.066-0.112-0.131-0.178-0.195
	c-0.032-0.031-0.079-0.08-0.126-0.129c-0.1-0.014-0.213-0.031-0.326-0.064c-0.145-0.064-0.292-0.131-0.452-0.193
	c-0.097-0.031-0.194-0.082-0.307-0.129c-0.066-0.08-0.129-0.164-0.194-0.242c-0.066-0.133-0.129-0.26-0.195-0.389
	c-0.128-0.178-0.257-0.373-0.386-0.566c-0.114-0.131-0.244-0.258-0.373-0.387c-0.195-0.066-0.389-0.129-0.583-0.195
	c-0.16,0-0.323,0-0.502,0c-0.16-0.064-0.337-0.129-0.516-0.195c-0.209-0.014-0.422-0.029-0.629-0.062
	c-0.244,0.016-0.502,0.033-0.759,0.062c-2.069,3.719-4.155,7.438-6.241,11.154c4.786,0,9.585,0,14.384,0
	c-0.129-0.615-0.258-1.229-0.389-1.857c-0.159-0.682-0.321-1.359-0.499-2.039c-0.26-0.693-0.518-1.391-0.776-2.1
	c-0.179-0.355-0.372-0.713-0.566-1.082c0.694-0.422,1.389-0.84,2.101-1.262c0.226,0,0.454,0,0.696,0
	c0.127-0.016,0.257-0.031,0.386-0.066c0.178-0.08,0.372-0.16,0.565-0.258c0.099-0.08,0.211-0.16,0.325-0.258
	c0.015-0.066,0.031-0.129,0.063-0.195c0-0.096,0-0.191,0-0.305c0.823-0.535,1.649-1.068,2.489-1.602
	c-0.274,0.629-0.549,1.262-0.84,1.906c0,0.227,0,0.471,0,0.711c-0.049,0.891-0.113,1.777-0.178,2.666
	c-0.064,1.455-0.13,2.926-0.193,4.398c-0.533,0.178-1.067,0.373-1.6,0.566c-0.146,0.08-0.293,0.16-0.438,0.256
	c-0.064,0.018-0.129,0.033-0.194,0.066c0,0.08,0,0.162,0,0.258c0,0.033,0,0.082,0,0.129c0.081,0.016,0.162,0.033,0.26,0.066
	c1.534,0,3.085,0,4.638,0c0.437-2.246,0.89-4.492,1.341-6.756c-0.064,0-0.128,0-0.193,0c0-0.277,0-0.551,0-0.826
	c0.774-1.371,1.567-2.744,2.358-4.135c0.082,0.482,0.162,0.969,0.26,1.471c0.047,0.223,0.113,0.451,0.176,0.691
	c0.098,0.227,0.211,0.455,0.324,0.697c0.148,0.275,0.293,0.551,0.453,0.826c0.097,0.225,0.195,0.465,0.308,0.709
	c0.146,0.176,0.289,0.373,0.452,0.566c0.161,0.16,0.322,0.336,0.501,0.516c0.289,0.244,0.599,0.5,0.905,0.76
	c0.792,0.678,1.602,1.357,2.406,2.035c0.358,0.291,0.713,0.584,1.084,0.891c0.031,0.082,0.08,0.162,0.127,0.26
	c-0.015,0.127-0.03,0.258-0.064,0.387c-0.031,0.098-0.079,0.193-0.129,0.307c-0.062,0.146-0.127,0.293-0.191,0.453
	c-0.339,0.34-0.681,0.68-1.02,1.02c0,0.031,0,0.078,0,0.129c0.531,0,1.066,0,1.602,0c0.112-0.066,0.242-0.129,0.37-0.195
	c0.13-0.031,0.259-0.08,0.386-0.129c0.067-0.129,0.131-0.258,0.196-0.387c0.485-0.793,0.97-1.6,1.472-2.41
	c0.096-0.256,0.193-0.518,0.307-0.775c-0.227-0.08-0.453-0.16-0.695-0.242c-0.131-0.082-0.259-0.162-0.389-0.258
	c-0.096-0.096-0.194-0.209-0.309-0.324c-0.5-0.566-1.017-1.131-1.535-1.713c-0.678-0.775-1.357-1.566-2.037-2.359
	c-0.078,0.064-0.161,0.129-0.258,0.193c-0.146-0.145-0.293-0.291-0.434-0.451c-0.082-0.098-0.163-0.193-0.261-0.307
	c-0.031-0.146-0.081-0.291-0.127-0.453c-0.031-0.357-0.082-0.713-0.132-1.082c-0.031-0.438-0.08-0.891-0.129-1.344
	c-0.112-0.434-0.24-0.871-0.373-1.324c-0.094-0.291-0.207-0.58-0.321-0.889c-0.127-0.34-0.259-0.68-0.39-1.02
	c0.097-0.08,0.213-0.16,0.326-0.258c0.146,0.082,0.291,0.162,0.451,0.258c0.031-0.033,0.065-0.08,0.113-0.125
	c0.127-0.082,0.256-0.164,0.388-0.262c0.097-0.062,0.21-0.129,0.322-0.193c0.082-0.096,0.161-0.209,0.259-0.322
	c0.049-0.049,0.112-0.113,0.178-0.18c-0.017-0.131-0.031-0.258-0.065-0.387c-0.032-0.068-0.063-0.131-0.112-0.195
	c-0.08-0.082-0.163-0.162-0.259-0.256c-0.063-0.035-0.129-0.082-0.192-0.133c-0.08-0.289-0.164-0.58-0.262-0.889
	c-0.062-0.418-0.128-0.84-0.191-1.26c-0.033-0.129-0.063-0.26-0.112-0.387c-0.132-0.309-0.257-0.631-0.39-0.957
	c-0.127-0.291-0.257-0.58-0.388-0.889c-0.112-0.211-0.239-0.418-0.37-0.645c-0.226-0.213-0.469-0.422-0.711-0.633
	c-0.179-0.145-0.374-0.289-0.564-0.453c-0.211-0.047-0.424-0.113-0.649-0.176c-0.226-0.018-0.45-0.033-0.692-0.066
	c-0.229,0-0.455,0-0.695,0c-0.211,0.018-0.42,0.033-0.631,0.066c-0.209,0.047-0.42,0.113-0.646,0.176
	c-0.548,0.197-1.098,0.389-1.649,0.584c-0.354,0.16-0.709,0.322-1.082,0.502c-0.226,0.129-0.469,0.256-0.711,0.387
	c-0.082-0.033-0.162-0.082-0.242-0.131c0-0.064,0-0.127,0-0.193c0,0.018,0,0.033,0,0.066c0.128-0.373,0.063-0.324,0.063-0.697
	c0-1.275-1.083-2.424-2.425-2.424s-2.424,1.148-2.424,2.424c0,1.342,1.082,2.477,2.424,2.477c0.065-0.016,0.13-0.033,0.194-0.049
	C238.977,34.24,238.96,34.258,238.928,34.273"/>
<path fill="#494949" d="M122.795,77.964l0.254-2.363h-0.102l-0.73,1.904l-2.533,4.437h-0.748l-2.669-4.454l-0.748-1.887h-0.085
	l0.34,2.346v6.188h-2.21v-11.9h2.125l3.179,5.44l0.561,1.36h0.068l0.51-1.394l3.01-5.406h2.107v11.9h-2.328L122.795,77.964
	L122.795,77.964z"/>
<path fill="#494949" d="M127.164,72.235h7.056v2.074h-4.727v2.771h4.301v2.074h-4.301v2.907h4.811v2.074h-7.14V72.235z"/>
<path fill="#494949" d="M136.038,72.235c0.238-0.034,0.507-0.062,0.808-0.085c0.3-0.023,0.608-0.04,0.927-0.051
	c0.316-0.011,0.625-0.02,0.926-0.025c0.301-0.005,0.57-0.008,0.808-0.008c1.054,0,1.955,0.147,2.703,0.442s1.354,0.708,1.819,1.241
	c0.465,0.533,0.805,1.167,1.02,1.904c0.215,0.737,0.323,1.547,0.323,2.431c0,0.805-0.103,1.581-0.306,2.329
	c-0.205,0.748-0.545,1.411-1.021,1.989c-0.476,0.578-1.103,1.043-1.878,1.394c-0.777,0.351-1.737,0.527-2.882,0.527
	c-0.182,0-0.423-0.006-0.723-0.017c-0.3-0.011-0.612-0.025-0.935-0.042c-0.323-0.017-0.633-0.034-0.927-0.051
	c-0.295-0.017-0.517-0.037-0.663-0.06L136.038,72.235L136.038,72.235z M139.692,74.139c-0.248,0-0.501,0.006-0.756,0.017
	c-0.255,0.011-0.445,0.028-0.569,0.051v7.973c0.045,0.012,0.122,0.02,0.229,0.025c0.107,0.006,0.224,0.012,0.348,0.017
	c0.125,0.006,0.244,0.012,0.357,0.017c0.113,0.006,0.198,0.008,0.256,0.008c0.656,0,1.203-0.116,1.641-0.348
	c0.436-0.232,0.781-0.541,1.036-0.927c0.255-0.385,0.434-0.83,0.536-1.334c0.102-0.504,0.152-1.022,0.152-1.555
	c0-0.465-0.045-0.932-0.136-1.403c-0.091-0.47-0.258-0.893-0.501-1.267c-0.244-0.374-0.576-0.68-0.995-0.918
	C140.872,74.258,140.338,74.139,139.692,74.139z"/>
<path fill="#494949" d="M147.274,72.235h2.329v11.9h-2.329V72.235z"/>
<path fill="#494949" d="M158.341,72.235h2.21v7.684c0,0.771-0.102,1.434-0.307,1.989c-0.203,0.556-0.486,1.015-0.85,1.377
	c-0.362,0.363-0.805,0.629-1.326,0.799s-1.094,0.255-1.717,0.255c-3.015,0-4.521-1.377-4.521-4.131v-7.973h2.328v7.514
	c0,0.465,0.043,0.859,0.128,1.182c0.085,0.323,0.218,0.584,0.399,0.782c0.181,0.198,0.408,0.34,0.68,0.425
	c0.272,0.085,0.59,0.127,0.953,0.127c0.713,0,1.229-0.198,1.547-0.595c0.316-0.397,0.476-1.037,0.476-1.921V72.235z"/>
<path fill="#494949" d="M171.771,77.964l0.255-2.363h-0.102l-0.731,1.904l-2.532,4.437h-0.748l-2.67-4.454l-0.748-1.887h-0.084
	l0.34,2.346v6.188h-2.211v-11.9h2.125l3.18,5.44l0.561,1.36h0.068l0.51-1.394l3.01-5.406h2.107v11.9h-2.329L171.771,77.964
	L171.771,77.964z"/>
<path fill="#494949" d="M117.653,88.235c0.237-0.034,0.506-0.062,0.807-0.085c0.301-0.023,0.609-0.04,0.927-0.051
	c0.317-0.011,0.626-0.02,0.927-0.025c0.3-0.005,0.569-0.008,0.807-0.008c1.055,0,1.955,0.147,2.703,0.442
	c0.748,0.295,1.354,0.708,1.819,1.241s0.805,1.167,1.021,1.904c0.215,0.737,0.322,1.547,0.322,2.431
	c0,0.805-0.102,1.581-0.306,2.329c-0.204,0.748-0.544,1.411-1.021,1.989c-0.476,0.578-1.102,1.043-1.878,1.394
	c-0.776,0.351-1.737,0.527-2.882,0.527c-0.182,0-0.422-0.006-0.723-0.017c-0.3-0.011-0.611-0.025-0.935-0.042
	c-0.324-0.017-0.632-0.034-0.927-0.051s-0.516-0.037-0.662-0.06L117.653,88.235L117.653,88.235z M121.307,90.139
	c-0.249,0-0.502,0.006-0.756,0.017c-0.256,0.011-0.445,0.028-0.57,0.051v7.973c0.045,0.012,0.122,0.02,0.23,0.025
	c0.107,0.006,0.223,0.012,0.348,0.017c0.125,0.006,0.244,0.012,0.357,0.017c0.113,0.006,0.197,0.008,0.255,0.008
	c0.657,0,1.204-0.116,1.641-0.348s0.782-0.541,1.036-0.927c0.256-0.385,0.434-0.83,0.536-1.334c0.103-0.504,0.153-1.022,0.153-1.555
	c0-0.465-0.046-0.932-0.137-1.403c-0.09-0.47-0.258-0.893-0.501-1.267c-0.244-0.374-0.575-0.68-0.995-0.918
	C122.486,90.258,121.954,90.139,121.307,90.139z"/>
<path fill="#494949" d="M128.651,88.235h7.056v2.074h-4.726v2.771h4.301v2.074h-4.301v2.907h4.811v2.074h-7.141V88.235z"/>
<path fill="#494949" d="M145.055,100.135h-7.53v-11.9h2.329v9.826h5.201V100.135z"/>
<path fill="#494949" d="M150.053,97.5h-3.654l-0.9,2.635h-2.33l4.285-11.985h1.717l4.283,11.985h-2.447L150.053,97.5z
	 M146.995,95.63h2.549l-0.883-2.652l-0.357-1.87h-0.086l-0.356,1.887L146.995,95.63z"/>
<path fill="#494949" d="M155.834,95.715l-3.91-7.48h2.771l2.177,4.471l0.237,1.258h0.085l0.256-1.292l2.107-4.437h2.499
	l-3.894,7.463v4.437h-2.328V95.715L155.834,95.715z"/>
<path fill="#494949" d="M168.176,96.939c0-0.363-0.134-0.657-0.4-0.884s-0.6-0.434-1.002-0.621s-0.84-0.379-1.31-0.578
	c-0.47-0.199-0.907-0.442-1.31-0.731c-0.402-0.289-0.736-0.649-1.002-1.08c-0.267-0.431-0.4-0.98-0.4-1.649
	c0-0.578,0.097-1.08,0.289-1.505c0.193-0.425,0.468-0.779,0.825-1.062c0.356-0.283,0.778-0.493,1.267-0.629
	c0.486-0.136,1.031-0.204,1.632-0.204c0.69,0,1.343,0.06,1.955,0.179c0.612,0.119,1.116,0.292,1.513,0.519l-0.73,1.955
	c-0.25-0.159-0.624-0.303-1.123-0.434c-0.498-0.13-1.037-0.196-1.614-0.196c-0.544,0-0.96,0.108-1.249,0.323
	c-0.289,0.215-0.434,0.504-0.434,0.867c0,0.34,0.133,0.623,0.398,0.85c0.267,0.227,0.602,0.437,1.004,0.629
	c0.402,0.192,0.838,0.391,1.309,0.595c0.471,0.204,0.906,0.451,1.309,0.74s0.736,0.646,1.004,1.071
	c0.266,0.425,0.398,0.955,0.398,1.589c0,0.635-0.104,1.182-0.314,1.641c-0.209,0.459-0.504,0.841-0.883,1.147
	c-0.381,0.306-0.84,0.533-1.377,0.68c-0.539,0.147-1.131,0.221-1.777,0.221c-0.85,0-1.598-0.079-2.244-0.238
	c-0.646-0.159-1.121-0.317-1.428-0.476l0.748-1.989c0.125,0.068,0.286,0.142,0.484,0.221c0.198,0.08,0.422,0.153,0.672,0.221
	c0.249,0.068,0.512,0.125,0.79,0.17c0.278,0.045,0.563,0.068,0.858,0.068c0.691,0,1.221-0.116,1.59-0.348
	C167.992,97.769,168.176,97.415,168.176,96.939z"/>
<polyline fill="#FFFFFF" points="116.225,58.869 142.54,12.404 169.465,59 116.225,58.869 "/>
<path fill="#FF8B00" d="M117.488,61.893c-1.423,0.014-2.714-0.711-3.41-1.941c-0.712-1.229-0.712-2.699,0.033-3.928l25.227-43.57
	c0.696-1.18,1.956-1.906,3.329-1.906c1.358,0,2.619,0.727,3.314,1.906l25.295,43.619c0.66,1.197,0.648,2.633-0.032,3.814
	c-0.698,1.213-2.005,1.957-3.414,1.936L117.488,61.893"/>
<polygon fill="#FFFFFF" points="165.666,56.734 119.655,56.734 142.7,16.963 "/>
<path fill="#1A1718" d="M138.822,34.271c0.111,0,0.242,0,0.371,0c0.13,0,0.259,0,0.39,0c0.031,0.031,0.08,0.08,0.128,0.129
	c0.016,0.127,0.034,0.256,0.064,0.389c-0.08,0.08-0.161,0.16-0.259,0.256c-0.113,0.148-0.243,0.293-0.373,0.438
	c-0.129,0.146-0.258,0.291-0.387,0.453c-0.097,0.242-0.209,0.5-0.324,0.76c0,0.242,0,0.5,0,0.758
	c0.033,0.275,0.08,0.549,0.131,0.842c0.062,0.436,0.129,0.873,0.193,1.326c0.082,0.404,0.16,0.807,0.258,1.211
	c-0.016,0.064-0.031,0.131-0.062,0.193c-0.082,0.178-0.163,0.373-0.26,0.566c-0.129,0.275-0.26,0.551-0.387,0.84
	c-0.146,0.273-0.291,0.551-0.438,0.824c-0.064,0.307-0.129,0.631-0.195,0.957c-0.062,0.207-0.127,0.416-0.191,0.627
	c-0.019,0.26-0.031,0.516-0.065,0.777c-0.696,0.42-1.391,0.84-2.101,1.262c-0.066-0.148-0.131-0.295-0.195-0.438
	c-0.048-0.066-0.112-0.131-0.178-0.195c-0.032-0.031-0.079-0.08-0.127-0.129c-0.1-0.014-0.213-0.031-0.325-0.064
	c-0.145-0.063-0.292-0.131-0.452-0.193c-0.097-0.031-0.193-0.082-0.307-0.129c-0.066-0.08-0.129-0.164-0.193-0.242
	c-0.066-0.133-0.129-0.26-0.195-0.389c-0.129-0.178-0.258-0.373-0.387-0.566c-0.113-0.131-0.244-0.258-0.372-0.387
	c-0.194-0.066-0.389-0.129-0.583-0.195c-0.16,0-0.323,0-0.502,0c-0.16-0.064-0.338-0.129-0.516-0.195
	c-0.209-0.014-0.422-0.029-0.629-0.062c-0.244,0.016-0.502,0.033-0.76,0.062c-2.068,3.719-4.154,7.438-6.24,11.154
	c4.786,0,9.585,0,14.385,0c-0.129-0.615-0.258-1.229-0.389-1.857c-0.16-0.682-0.322-1.359-0.5-2.039
	c-0.26-0.693-0.518-1.391-0.775-2.1c-0.179-0.355-0.371-0.713-0.566-1.082c0.695-0.422,1.39-0.84,2.102-1.262
	c0.226,0,0.453,0,0.695,0c0.127-0.016,0.258-0.031,0.387-0.066c0.178-0.08,0.372-0.16,0.565-0.258
	c0.099-0.08,0.212-0.16,0.325-0.258c0.015-0.066,0.031-0.129,0.062-0.195c0-0.096,0-0.191,0-0.305
	c0.824-0.535,1.648-1.068,2.489-1.603c-0.274,0.629-0.549,1.262-0.841,1.906c0,0.227,0,0.471,0,0.711
	c-0.048,0.891-0.113,1.777-0.177,2.666c-0.064,1.455-0.13,2.926-0.193,4.398c-0.534,0.178-1.068,0.373-1.601,0.566
	c-0.146,0.08-0.293,0.16-0.438,0.256c-0.063,0.018-0.129,0.033-0.193,0.066c0,0.08,0,0.162,0,0.258c0,0.033,0,0.082,0,0.129
	c0.081,0.016,0.162,0.033,0.26,0.066c1.533,0,3.086,0,4.638,0c0.436-2.246,0.889-4.492,1.341-6.756c-0.064,0-0.129,0-0.193,0
	c0-0.277,0-0.551,0-0.826c0.774-1.371,1.567-2.744,2.357-4.135c0.082,0.482,0.164,0.969,0.26,1.471
	c0.048,0.223,0.113,0.451,0.177,0.691c0.097,0.227,0.211,0.455,0.324,0.697c0.148,0.275,0.293,0.551,0.453,0.826
	c0.097,0.225,0.196,0.465,0.308,0.709c0.146,0.176,0.289,0.373,0.453,0.566c0.16,0.16,0.321,0.336,0.5,0.516
	c0.289,0.244,0.599,0.5,0.906,0.76c0.791,0.678,1.602,1.357,2.406,2.035c0.358,0.291,0.713,0.584,1.084,0.891
	c0.031,0.082,0.08,0.162,0.127,0.26c-0.015,0.127-0.031,0.258-0.064,0.387c-0.031,0.098-0.079,0.193-0.129,0.307
	c-0.062,0.146-0.127,0.293-0.191,0.453c-0.339,0.34-0.681,0.68-1.02,1.021c0,0.031,0,0.078,0,0.129c0.531,0,1.066,0,1.602,0
	c0.112-0.066,0.242-0.129,0.371-0.195c0.129-0.031,0.258-0.08,0.386-0.129c0.067-0.129,0.131-0.258,0.196-0.387
	c0.484-0.793,0.97-1.6,1.471-2.41c0.096-0.256,0.193-0.518,0.307-0.775c-0.227-0.08-0.453-0.16-0.695-0.242
	c-0.131-0.082-0.258-0.162-0.389-0.258c-0.096-0.096-0.193-0.209-0.308-0.324c-0.501-0.566-1.017-1.131-1.536-1.713
	c-0.677-0.775-1.357-1.566-2.036-2.359c-0.078,0.064-0.161,0.129-0.259,0.193c-0.145-0.145-0.291-0.291-0.433-0.451
	c-0.081-0.098-0.163-0.193-0.261-0.307c-0.031-0.146-0.081-0.291-0.128-0.453c-0.031-0.357-0.081-0.713-0.132-1.082
	c-0.031-0.438-0.08-0.891-0.129-1.344c-0.112-0.434-0.24-0.871-0.372-1.324c-0.095-0.291-0.208-0.58-0.321-0.889
	c-0.127-0.34-0.26-0.68-0.39-1.02c0.097-0.08,0.212-0.16,0.325-0.258c0.146,0.082,0.291,0.162,0.452,0.258
	c0.03-0.033,0.065-0.08,0.113-0.125c0.128-0.082,0.256-0.164,0.388-0.262c0.098-0.062,0.21-0.129,0.322-0.193
	c0.082-0.096,0.16-0.209,0.26-0.322c0.049-0.049,0.111-0.113,0.176-0.18c-0.016-0.131-0.029-0.258-0.064-0.387
	c-0.031-0.068-0.062-0.131-0.111-0.195c-0.08-0.082-0.164-0.162-0.26-0.256c-0.062-0.035-0.129-0.082-0.193-0.133
	c-0.08-0.289-0.162-0.58-0.261-0.889c-0.063-0.418-0.128-0.84-0.191-1.26c-0.034-0.129-0.064-0.26-0.112-0.387
	c-0.132-0.309-0.258-0.631-0.391-0.955c-0.127-0.291-0.256-0.58-0.387-0.889c-0.113-0.211-0.24-0.418-0.371-0.645
	c-0.226-0.213-0.469-0.422-0.711-0.633c-0.179-0.145-0.373-0.289-0.564-0.453c-0.211-0.047-0.424-0.113-0.649-0.176
	c-0.226-0.018-0.45-0.033-0.693-0.066c-0.228,0-0.454,0-0.695,0c-0.21,0.018-0.419,0.033-0.63,0.066
	c-0.211,0.047-0.42,0.113-0.646,0.176c-0.548,0.197-1.098,0.389-1.649,0.584c-0.354,0.16-0.709,0.322-1.081,0.502
	c-0.227,0.129-0.471,0.256-0.713,0.387c-0.081-0.033-0.161-0.082-0.241-0.131c0-0.064,0-0.127,0-0.193c0,0.018,0,0.033,0,0.066
	c0.128-0.373,0.064-0.324,0.064-0.697c0-1.275-1.083-2.424-2.425-2.424c-1.342,0-2.424,1.148-2.424,2.424
	c0,1.342,1.082,2.475,2.424,2.475c0.064-0.016,0.13-0.033,0.193-0.049C138.87,34.238,138.854,34.256,138.822,34.271"/>
<path fill="#FFFFFF" d="M41.012,129.518c16.31,0,29.548,13.236,29.548,29.543c0,16.309-13.238,29.545-29.548,29.545
	c-16.305,0-29.539-13.236-29.539-29.545C11.473,142.754,24.707,129.518,41.012,129.518"/>
<path fill="#E4001C" d="M41.012,129.636c16.229,0,29.427,13.199,29.427,29.425c0,16.227-13.198,29.426-29.427,29.426
	c-16.224,0-29.421-13.199-29.421-29.426C11.591,142.835,24.788,129.636,41.012,129.636V129.4c-16.352,0-29.66,13.306-29.66,29.66
	c0,16.357,13.309,29.659,29.66,29.659c16.359,0,29.662-13.302,29.662-29.659c0-16.354-13.303-29.66-29.662-29.66V129.636"/>
<path fill="#E4001C" d="M41.065,134.658c13.443,0,24.354,10.91,24.354,24.351c0,13.447-10.911,24.356-24.354,24.356
	c-13.446,0-24.355-10.909-24.355-24.356C16.71,145.568,27.619,134.658,41.065,134.658"/>
<path fill="#FFFFFF" d="M20.75,164.098c-0.748,0-1.355-0.604-1.355-1.354v-7.441c0-0.742,0.607-1.344,1.355-1.344h40.608
	c0.739,0.006,1.327,0.607,1.327,1.344v7.441c0,0.745-0.588,1.35-1.327,1.354H20.75"/>
<g>
	<path fill="#494949" d="M21.636,198.84c0.261-0.045,0.541-0.088,0.841-0.128c0.3-0.04,0.601-0.069,0.901-0.093
		c0.3-0.021,0.592-0.04,0.875-0.051c0.283-0.012,0.544-0.018,0.782-0.018c0.555,0,1.102,0.051,1.641,0.153
		c0.538,0.103,1.02,0.278,1.445,0.526c0.425,0.25,0.765,0.593,1.02,1.029c0.255,0.436,0.383,0.983,0.383,1.641
		c0,0.975-0.227,1.768-0.68,2.38c-0.454,0.612-1.06,1.036-1.819,1.274l0.833,0.527l2.72,4.539h-2.686l-2.703-4.658l-1.224-0.221
		v4.879h-2.329V198.84z M25.206,200.625c-0.238,0-0.473,0.006-0.706,0.018c-0.233,0.01-0.411,0.033-0.535,0.067v3.451h0.986
		c0.646,0,1.162-0.147,1.547-0.442c0.385-0.295,0.578-0.781,0.578-1.462c0-0.51-0.159-0.909-0.476-1.198
		S25.818,200.625,25.206,200.625z"/>
	<path fill="#494949" d="M30.935,204.67c0-1.982,0.436-3.51,1.309-4.582c0.873-1.07,2.119-1.605,3.74-1.605
		c0.85,0,1.592,0.146,2.227,0.441c0.635,0.294,1.162,0.715,1.581,1.258c0.419,0.545,0.731,1.196,0.935,1.955
		c0.204,0.76,0.306,1.604,0.306,2.533c0,1.982-0.439,3.512-1.318,4.582c-0.878,1.071-2.122,1.605-3.731,1.605
		c-0.861,0-1.609-0.146-2.244-0.441c-0.635-0.294-1.159-0.714-1.573-1.258s-0.723-1.196-0.926-1.955
		C31.037,206.443,30.935,205.6,30.935,204.67z M33.383,204.67c0,0.602,0.051,1.153,0.153,1.658s0.258,0.938,0.467,1.3
		c0.21,0.363,0.479,0.646,0.808,0.851c0.329,0.203,0.72,0.306,1.173,0.306c0.827,0,1.468-0.323,1.921-0.97
		c0.453-0.646,0.68-1.693,0.68-3.145c0-0.578-0.048-1.115-0.145-1.615c-0.096-0.498-0.247-0.935-0.45-1.309
		c-0.204-0.374-0.471-0.666-0.799-0.875c-0.329-0.209-0.731-0.314-1.207-0.314c-0.827,0-1.468,0.332-1.921,0.995
		C33.609,202.214,33.383,203.254,33.383,204.67z"/>
	<path fill="#494949" d="M48.087,207.986h-3.655l-0.901,2.635h-2.329l4.284-11.985h1.717l4.284,11.985H49.04L48.087,207.986z
		 M45.028,206.116h2.55l-0.884-2.652l-0.357-1.87h-0.085l-0.357,1.887L45.028,206.116z"/>
	<path fill="#494949" d="M52.508,198.721c0.238-0.033,0.507-0.062,0.808-0.085c0.3-0.022,0.609-0.04,0.926-0.051
		c0.317-0.011,0.626-0.021,0.927-0.024c0.3-0.006,0.569-0.009,0.807-0.009c1.054,0,1.955,0.147,2.703,0.442
		c0.748,0.295,1.354,0.708,1.819,1.24c0.465,0.533,0.805,1.168,1.02,1.904c0.215,0.737,0.323,1.547,0.323,2.432
		c0,0.805-0.102,1.58-0.306,2.328c-0.204,0.748-0.544,1.412-1.02,1.99c-0.476,0.577-1.102,1.043-1.878,1.394
		c-0.776,0.351-1.737,0.526-2.881,0.526c-0.182,0-0.422-0.006-0.723-0.017c-0.301-0.011-0.612-0.024-0.935-0.042
		c-0.323-0.018-0.632-0.034-0.926-0.051c-0.295-0.018-0.516-0.037-0.663-0.061L52.508,198.721L52.508,198.721z M56.163,200.625
		c-0.249,0-0.501,0.006-0.756,0.018c-0.255,0.01-0.445,0.027-0.569,0.051v7.973c0.045,0.012,0.122,0.02,0.229,0.025
		s0.224,0.012,0.348,0.017c0.125,0.006,0.244,0.012,0.357,0.017c0.113,0.006,0.198,0.008,0.255,0.008
		c0.657,0,1.204-0.115,1.641-0.348c0.436-0.232,0.782-0.541,1.037-0.927c0.255-0.385,0.434-0.83,0.536-1.334
		c0.102-0.504,0.153-1.022,0.153-1.556c0-0.465-0.045-0.932-0.136-1.402c-0.091-0.471-0.258-0.893-0.501-1.268
		c-0.244-0.373-0.575-0.68-0.995-0.918C57.341,200.744,56.809,200.625,56.163,200.625z"/>
	<path fill="#494949" d="M22.163,226.133c-0.363,0.26-0.825,0.444-1.386,0.557c-0.561,0.113-1.136,0.168-1.726,0.168
		c-0.714,0-1.391-0.109-2.031-0.33c-0.641-0.221-1.205-0.578-1.691-1.071c-0.488-0.493-0.875-1.133-1.165-1.921
		s-0.434-1.743-0.434-2.865c0-1.167,0.162-2.145,0.484-2.932c0.323-0.788,0.742-1.422,1.258-1.904
		c0.516-0.48,1.09-0.827,1.725-1.037c0.635-0.209,1.27-0.314,1.904-0.314c0.68,0,1.255,0.045,1.726,0.137
		c0.47,0.091,0.858,0.197,1.165,0.322l-0.459,1.973c-0.261-0.125-0.57-0.215-0.927-0.271c-0.357-0.058-0.791-0.086-1.3-0.086
		c-0.941,0-1.698,0.336-2.27,1.006c-0.573,0.67-0.858,1.709-0.858,3.117c0,0.613,0.068,1.174,0.204,1.678
		c0.136,0.506,0.343,0.938,0.621,1.295c0.278,0.357,0.623,0.637,1.037,0.836c0.414,0.197,0.893,0.298,1.437,0.298
		c0.51,0,0.94-0.052,1.292-0.153c0.351-0.102,0.657-0.232,0.918-0.391L22.163,226.133z"/>
	<path fill="#494949" d="M31.139,226.621h-7.531v-11.9h2.329v9.826h5.202V226.621z"/>
	<path fill="#494949" d="M30.391,220.67c0-1.982,0.436-3.51,1.309-4.582c0.873-1.07,2.119-1.605,3.74-1.605
		c0.85,0,1.592,0.146,2.227,0.441c0.635,0.294,1.162,0.715,1.581,1.258c0.419,0.545,0.731,1.196,0.935,1.955
		c0.204,0.76,0.306,1.604,0.306,2.533c0,1.982-0.439,3.512-1.318,4.582c-0.878,1.071-2.122,1.605-3.731,1.605
		c-0.861,0-1.609-0.146-2.244-0.441c-0.635-0.294-1.159-0.714-1.573-1.258s-0.723-1.196-0.926-1.955
		C30.493,222.443,30.391,221.6,30.391,220.67z M32.839,220.67c0,0.602,0.051,1.153,0.153,1.658s0.258,0.938,0.467,1.3
		c0.21,0.363,0.479,0.646,0.808,0.851c0.329,0.203,0.72,0.306,1.173,0.306c0.827,0,1.468-0.323,1.921-0.97
		c0.453-0.646,0.68-1.693,0.68-3.145c0-0.578-0.048-1.115-0.145-1.615c-0.096-0.498-0.247-0.935-0.45-1.309
		c-0.204-0.374-0.471-0.666-0.799-0.875c-0.329-0.209-0.731-0.314-1.207-0.314c-0.827,0-1.468,0.332-1.921,0.995
		C33.066,218.214,32.839,219.254,32.839,220.67z"/>
	<path fill="#494949" d="M47.289,223.425c0-0.362-0.133-0.657-0.399-0.884s-0.601-0.434-1.003-0.621
		c-0.402-0.188-0.839-0.379-1.309-0.578c-0.47-0.199-0.907-0.441-1.309-0.73s-0.737-0.649-1.003-1.08
		c-0.266-0.432-0.399-0.98-0.399-1.649c0-0.578,0.096-1.08,0.289-1.505c0.192-0.425,0.467-0.779,0.825-1.062
		c0.357-0.282,0.779-0.492,1.266-0.629c0.487-0.136,1.031-0.203,1.632-0.203c0.691,0,1.343,0.06,1.955,0.179
		s1.116,0.292,1.513,0.519l-0.731,1.955c-0.25-0.158-0.624-0.303-1.122-0.434s-1.037-0.196-1.615-0.196
		c-0.544,0-0.96,0.108-1.25,0.323s-0.434,0.504-0.434,0.867c0,0.34,0.133,0.623,0.399,0.85c0.266,0.227,0.601,0.438,1.003,0.629
		c0.402,0.192,0.839,0.391,1.309,0.596c0.47,0.203,0.907,0.45,1.309,0.739c0.402,0.289,0.736,0.646,1.003,1.071
		c0.266,0.425,0.399,0.955,0.399,1.589c0,0.636-0.105,1.183-0.314,1.642c-0.21,0.459-0.504,0.84-0.884,1.146
		s-0.839,0.533-1.377,0.68c-0.539,0.147-1.131,0.221-1.777,0.221c-0.85,0-1.598-0.078-2.244-0.237s-1.122-0.317-1.428-0.476
		l0.748-1.989c0.125,0.067,0.286,0.142,0.484,0.221c0.198,0.08,0.422,0.153,0.671,0.222c0.25,0.067,0.513,0.125,0.791,0.17
		c0.278,0.045,0.564,0.067,0.859,0.067c0.691,0,1.221-0.116,1.589-0.349C47.104,224.255,47.289,223.9,47.289,223.425z"/>
	<path fill="#494949" d="M51.165,214.721h7.055v2.074h-4.726v2.771h4.301v2.074h-4.301v2.906h4.811v2.074h-7.14V214.721z"/>
	<path fill="#494949" d="M60.039,214.721c0.238-0.033,0.507-0.062,0.808-0.085c0.3-0.022,0.609-0.04,0.926-0.051
		s0.626-0.021,0.927-0.024c0.3-0.006,0.569-0.009,0.807-0.009c1.054,0,1.955,0.147,2.703,0.442s1.354,0.708,1.819,1.24
		c0.465,0.533,0.805,1.168,1.02,1.904c0.215,0.737,0.323,1.547,0.323,2.432c0,0.805-0.102,1.58-0.306,2.328s-0.544,1.412-1.02,1.99
		c-0.476,0.577-1.102,1.043-1.878,1.394s-1.737,0.526-2.881,0.526c-0.182,0-0.422-0.006-0.723-0.017
		c-0.301-0.011-0.612-0.024-0.935-0.042c-0.323-0.018-0.632-0.034-0.926-0.051c-0.295-0.018-0.516-0.037-0.663-0.061L60.039,214.721
		L60.039,214.721z M63.693,216.625c-0.249,0-0.501,0.006-0.756,0.018c-0.255,0.01-0.445,0.027-0.569,0.051v7.973
		c0.045,0.012,0.122,0.02,0.229,0.025s0.224,0.012,0.348,0.017c0.125,0.006,0.244,0.012,0.357,0.017
		c0.113,0.006,0.198,0.008,0.255,0.008c0.657,0,1.204-0.115,1.641-0.348c0.436-0.232,0.782-0.541,1.037-0.927
		c0.255-0.385,0.434-0.83,0.536-1.334s0.153-1.022,0.153-1.556c0-0.465-0.045-0.932-0.136-1.402
		c-0.091-0.471-0.258-0.893-0.501-1.268c-0.244-0.373-0.575-0.68-0.995-0.918C64.872,216.744,64.339,216.625,63.693,216.625z"/>
</g>
<g>
	<path fill="#494949" d="M319.636,194.84c0.261-0.045,0.541-0.088,0.841-0.128c0.301-0.04,0.602-0.069,0.901-0.093
		c0.3-0.021,0.592-0.04,0.875-0.051c0.283-0.012,0.544-0.018,0.782-0.018c0.555,0,1.102,0.051,1.641,0.153
		c0.538,0.103,1.021,0.278,1.445,0.526c0.425,0.25,0.765,0.593,1.02,1.029c0.256,0.436,0.384,0.983,0.384,1.641
		c0,0.975-0.228,1.768-0.681,2.38c-0.454,0.612-1.06,1.036-1.818,1.274l0.833,0.527l2.72,4.539h-2.687l-2.702-4.658l-1.225-0.221
		v4.879h-2.329V194.84z M323.206,196.625c-0.238,0-0.473,0.006-0.706,0.018c-0.233,0.01-0.411,0.033-0.535,0.067v3.451h0.986
		c0.646,0,1.162-0.147,1.547-0.442s0.578-0.781,0.578-1.462c0-0.51-0.159-0.909-0.477-1.198
		C324.283,196.77,323.818,196.625,323.206,196.625z"/>
	<path fill="#494949" d="M328.935,200.67c0-1.982,0.437-3.51,1.31-4.582c0.873-1.07,2.119-1.605,3.74-1.605
		c0.85,0,1.592,0.146,2.227,0.441c0.635,0.294,1.162,0.715,1.581,1.258c0.419,0.545,0.731,1.196,0.935,1.955
		c0.204,0.76,0.307,1.604,0.307,2.533c0,1.982-0.439,3.512-1.318,4.582c-0.878,1.071-2.122,1.605-3.73,1.605
		c-0.861,0-1.609-0.146-2.244-0.441c-0.635-0.294-1.159-0.714-1.573-1.258s-0.723-1.196-0.926-1.955
		C329.037,202.443,328.935,201.6,328.935,200.67z M331.383,200.67c0,0.602,0.051,1.153,0.153,1.658
		c0.102,0.505,0.258,0.938,0.467,1.3c0.21,0.363,0.479,0.646,0.808,0.851c0.329,0.203,0.721,0.306,1.174,0.306
		c0.826,0,1.468-0.323,1.921-0.97c0.453-0.646,0.68-1.693,0.68-3.145c0-0.578-0.048-1.115-0.145-1.615
		c-0.097-0.498-0.247-0.935-0.45-1.309c-0.204-0.374-0.472-0.666-0.799-0.875c-0.329-0.209-0.731-0.314-1.207-0.314
		c-0.827,0-1.469,0.332-1.921,0.995C331.609,198.214,331.383,199.254,331.383,200.67z"/>
	<path fill="#494949" d="M346.087,203.986h-3.655l-0.9,2.635h-2.329l4.284-11.985h1.717l4.284,11.985h-2.448L346.087,203.986z
		 M343.028,202.116h2.55l-0.884-2.652l-0.357-1.87h-0.085l-0.357,1.887L343.028,202.116z"/>
	<path fill="#494949" d="M350.508,194.721c0.238-0.033,0.507-0.062,0.809-0.085c0.3-0.022,0.608-0.04,0.926-0.051
		c0.316-0.011,0.626-0.021,0.927-0.024c0.3-0.006,0.569-0.009,0.807-0.009c1.055,0,1.955,0.147,2.703,0.442s1.354,0.708,1.819,1.24
		c0.465,0.533,0.805,1.168,1.02,1.904c0.216,0.737,0.323,1.547,0.323,2.432c0,0.805-0.102,1.58-0.306,2.328s-0.544,1.412-1.021,1.99
		c-0.476,0.577-1.102,1.043-1.878,1.394c-0.775,0.351-1.736,0.526-2.881,0.526c-0.182,0-0.422-0.006-0.723-0.017
		s-0.612-0.024-0.936-0.042c-0.322-0.018-0.632-0.034-0.926-0.051c-0.295-0.018-0.516-0.037-0.663-0.061L350.508,194.721
		L350.508,194.721z M354.163,196.625c-0.249,0-0.501,0.006-0.756,0.018c-0.255,0.01-0.445,0.027-0.569,0.051v7.973
		c0.045,0.012,0.122,0.02,0.229,0.025c0.106,0.006,0.224,0.012,0.348,0.017c0.125,0.006,0.244,0.012,0.356,0.017
		c0.113,0.006,0.198,0.008,0.256,0.008c0.656,0,1.204-0.115,1.641-0.348c0.436-0.232,0.782-0.541,1.037-0.927
		c0.255-0.385,0.434-0.83,0.536-1.334c0.102-0.504,0.152-1.022,0.152-1.556c0-0.465-0.045-0.932-0.136-1.402
		s-0.258-0.893-0.501-1.268c-0.244-0.373-0.575-0.68-0.995-0.918C355.341,196.744,354.809,196.625,354.163,196.625z"/>
	<path fill="#494949" d="M315.879,217.368l0.221,2.108h0.068l0.238-2.143l2.074-6.613h1.529l2.04,6.647l0.238,2.108h0.068
		l0.255-2.143l1.444-6.613h2.363l-3.281,11.985h-1.563l-2.125-6.613l-0.289-1.819h-0.085l-0.289,1.836l-2.108,6.597h-1.648
		l-3.264-11.985h2.532L315.879,217.368z"/>
	<path fill="#494949" d="M326.589,216.67c0-1.982,0.437-3.51,1.31-4.582c0.872-1.07,2.118-1.605,3.739-1.605
		c0.851,0,1.593,0.146,2.228,0.441c0.635,0.294,1.162,0.715,1.581,1.258c0.419,0.545,0.73,1.196,0.935,1.955
		c0.204,0.76,0.306,1.604,0.306,2.533c0,1.982-0.438,3.512-1.317,4.582c-0.878,1.071-2.122,1.605-3.731,1.605
		c-0.86,0-1.608-0.146-2.244-0.441c-0.635-0.294-1.158-0.714-1.572-1.258s-0.724-1.196-0.927-1.955
		C326.691,218.443,326.589,217.6,326.589,216.67z M329.038,216.67c0,0.602,0.051,1.153,0.153,1.658
		c0.102,0.505,0.258,0.938,0.467,1.3c0.21,0.363,0.479,0.646,0.808,0.851c0.329,0.203,0.72,0.306,1.173,0.306
		c0.827,0,1.469-0.323,1.921-0.97c0.453-0.646,0.681-1.693,0.681-3.145c0-0.578-0.048-1.115-0.146-1.615
		c-0.096-0.498-0.247-0.935-0.45-1.309s-0.471-0.666-0.799-0.875c-0.329-0.209-0.73-0.314-1.207-0.314
		c-0.826,0-1.468,0.332-1.921,0.995C329.264,214.214,329.038,215.254,329.038,216.67z"/>
	<path fill="#494949" d="M338.353,210.84c0.262-0.045,0.541-0.088,0.842-0.128c0.3-0.04,0.601-0.069,0.9-0.093
		c0.3-0.021,0.593-0.04,0.875-0.051c0.283-0.012,0.544-0.018,0.782-0.018c0.555,0,1.102,0.051,1.641,0.153
		c0.538,0.103,1.021,0.278,1.445,0.526c0.425,0.25,0.766,0.593,1.021,1.029c0.255,0.436,0.383,0.983,0.383,1.641
		c0,0.975-0.228,1.768-0.681,2.38s-1.06,1.036-1.818,1.274l0.833,0.527l2.72,4.539h-2.686l-2.703-4.658l-1.225-0.221v4.879h-2.329
		V210.84z M341.923,212.625c-0.238,0-0.473,0.006-0.706,0.018c-0.232,0.01-0.411,0.033-0.535,0.067v3.451h0.986
		c0.646,0,1.162-0.147,1.547-0.442s0.578-0.781,0.578-1.462c0-0.51-0.159-0.909-0.476-1.198
		C343,212.77,342.535,212.625,341.923,212.625z"/>
	<path fill="#494949" d="M351.528,217.538h-0.612v5.083h-2.329v-11.9h2.329v5.271l0.544-0.238l3.281-5.032h2.651l-3.468,4.998
		l-0.918,0.646l0.952,0.662l3.961,5.594h-2.873L351.528,217.538z"/>
	<path fill="#494949" d="M364.261,219.425c0-0.362-0.133-0.657-0.398-0.884c-0.267-0.227-0.602-0.434-1.003-0.621
		c-0.402-0.188-0.84-0.379-1.31-0.578s-0.907-0.441-1.309-0.73c-0.402-0.289-0.737-0.649-1.003-1.08
		c-0.267-0.432-0.399-0.98-0.399-1.649c0-0.578,0.097-1.08,0.289-1.505s0.467-0.779,0.825-1.062
		c0.357-0.282,0.779-0.492,1.266-0.629c0.487-0.136,1.031-0.203,1.632-0.203c0.691,0,1.344,0.06,1.955,0.179
		c0.612,0.119,1.116,0.292,1.514,0.519l-0.731,1.955c-0.25-0.158-0.624-0.303-1.122-0.434s-1.037-0.196-1.615-0.196
		c-0.544,0-0.96,0.108-1.25,0.323s-0.434,0.504-0.434,0.867c0,0.34,0.133,0.623,0.399,0.85c0.266,0.227,0.601,0.438,1.003,0.629
		c0.401,0.192,0.839,0.391,1.309,0.596c0.47,0.203,0.907,0.45,1.31,0.739c0.401,0.289,0.735,0.646,1.003,1.071
		c0.266,0.425,0.398,0.955,0.398,1.589c0,0.636-0.104,1.183-0.313,1.642c-0.21,0.459-0.504,0.84-0.885,1.146
		c-0.38,0.307-0.839,0.533-1.377,0.68c-0.539,0.147-1.131,0.221-1.776,0.221c-0.851,0-1.599-0.078-2.244-0.237
		c-0.646-0.159-1.122-0.317-1.428-0.476l0.747-1.989c0.125,0.067,0.286,0.142,0.484,0.221c0.198,0.08,0.422,0.153,0.671,0.222
		c0.25,0.067,0.513,0.125,0.791,0.17s0.564,0.067,0.859,0.067c0.69,0,1.221-0.116,1.589-0.349
		C364.077,220.255,364.261,219.9,364.261,219.425z"/>
</g>
<g>
	<path fill="#494949" d="M429.496,207.621h-7.531v-11.9h2.33v9.826h5.201V207.621L429.496,207.621z"/>
	<path fill="#494949" d="M434.494,204.986h-3.654l-0.9,2.635h-2.329l4.283-11.985h1.718l4.283,11.985h-2.447L434.494,204.986z
		 M431.435,203.116h2.551l-0.885-2.652l-0.356-1.87h-0.085l-0.357,1.887L431.435,203.116z"/>
	<path fill="#494949" d="M441.872,201.416l-0.935-1.87h-0.087l0.272,1.87v6.205h-2.21v-11.985h1.7l4.505,6.341l0.899,1.819h0.087
		l-0.272-1.819v-6.256h2.21v11.985h-1.699L441.872,201.416z"/>
	<path fill="#494949" d="M450.083,195.721h7.056v2.074h-4.727v2.771h4.301v2.074h-4.301v2.906h4.811v2.074h-7.14V195.721z"/>
	<path fill="#494949" d="M415.105,223.133c-0.362,0.26-0.824,0.444-1.386,0.557s-1.137,0.168-1.727,0.168
		c-0.713,0-1.392-0.109-2.031-0.33c-0.641-0.221-1.204-0.578-1.69-1.071c-0.487-0.493-0.875-1.133-1.164-1.921
		s-0.435-1.743-0.435-2.865c0-1.167,0.162-2.145,0.484-2.932c0.323-0.788,0.742-1.422,1.258-1.904
		c0.516-0.48,1.091-0.827,1.726-1.037c0.636-0.209,1.271-0.314,1.904-0.314c0.681,0,1.255,0.045,1.727,0.137
		c0.471,0.091,0.857,0.197,1.163,0.322l-0.459,1.973c-0.261-0.125-0.568-0.215-0.926-0.271c-0.356-0.058-0.791-0.086-1.301-0.086
		c-0.941,0-1.697,0.336-2.27,1.006s-0.858,1.709-0.858,3.117c0,0.613,0.067,1.174,0.204,1.678c0.136,0.506,0.342,0.938,0.62,1.295
		c0.277,0.357,0.623,0.637,1.037,0.836c0.412,0.197,0.893,0.298,1.437,0.298c0.51,0,0.94-0.052,1.292-0.153s0.657-0.232,0.918-0.391
		L415.105,223.133z"/>
	<path fill="#494949" d="M424.082,223.621h-7.531v-11.9h2.329v9.826h5.202V223.621z"/>
	<path fill="#494949" d="M423.334,217.67c0-1.982,0.436-3.51,1.309-4.582c0.873-1.07,2.119-1.605,3.74-1.605
		c0.851,0,1.592,0.146,2.228,0.441c0.635,0.294,1.161,0.715,1.582,1.258c0.419,0.545,0.729,1.196,0.935,1.955
		c0.205,0.76,0.306,1.604,0.306,2.533c0,1.982-0.438,3.512-1.316,4.582c-0.878,1.071-2.122,1.605-3.731,1.605
		c-0.86,0-1.608-0.146-2.244-0.441c-0.635-0.294-1.157-0.714-1.571-1.258s-0.724-1.196-0.927-1.955
		C423.436,219.443,423.334,218.6,423.334,217.67z M425.782,217.67c0,0.602,0.051,1.153,0.152,1.658
		c0.103,0.504,0.259,0.938,0.468,1.3c0.21,0.363,0.479,0.646,0.808,0.851c0.329,0.203,0.72,0.306,1.173,0.306
		c0.827,0,1.468-0.323,1.922-0.97c0.453-0.646,0.681-1.693,0.681-3.145c0-0.578-0.05-1.115-0.146-1.615
		c-0.097-0.498-0.247-0.935-0.451-1.309c-0.202-0.374-0.471-0.666-0.799-0.875s-0.729-0.314-1.207-0.314
		c-0.827,0-1.468,0.332-1.921,0.995C426.009,215.214,425.782,216.254,425.782,217.67z"/>
	<path fill="#494949" d="M440.231,220.425c0-0.362-0.135-0.657-0.399-0.884c-0.266-0.227-0.601-0.434-1.003-0.621
		s-0.839-0.379-1.311-0.578c-0.47-0.197-0.905-0.441-1.309-0.73c-0.402-0.289-0.736-0.649-1.003-1.08
		c-0.267-0.432-0.399-0.98-0.399-1.649c0-0.578,0.097-1.08,0.289-1.505s0.468-0.779,0.824-1.062
		c0.357-0.282,0.779-0.492,1.268-0.629c0.486-0.136,1.03-0.203,1.632-0.203c0.69,0,1.344,0.06,1.955,0.179s1.115,0.292,1.514,0.519
		l-0.731,1.955c-0.249-0.158-0.624-0.303-1.122-0.434c-0.497-0.131-1.036-0.196-1.614-0.196c-0.543,0-0.96,0.108-1.249,0.323
		s-0.435,0.504-0.435,0.867c0,0.34,0.134,0.623,0.399,0.85s0.601,0.438,1.003,0.629c0.402,0.192,0.839,0.391,1.31,0.596
		c0.471,0.203,0.906,0.45,1.31,0.739s0.735,0.646,1.003,1.071c0.267,0.425,0.398,0.955,0.398,1.589c0,0.636-0.104,1.183-0.313,1.642
		c-0.21,0.459-0.504,0.84-0.884,1.146s-0.839,0.533-1.377,0.68c-0.538,0.147-1.131,0.221-1.776,0.221
		c-0.851,0-1.598-0.078-2.244-0.237c-0.646-0.159-1.122-0.317-1.428-0.476l0.748-1.989c0.124,0.067,0.285,0.142,0.483,0.221
		c0.197,0.08,0.423,0.153,0.672,0.222c0.249,0.067,0.513,0.125,0.79,0.17s0.563,0.067,0.858,0.067c0.691,0,1.221-0.116,1.59-0.349
		C440.047,221.255,440.231,220.9,440.231,220.425z"/>
	<path fill="#494949" d="M450.568,211.721h2.209v7.685c0,0.771-0.103,1.434-0.307,1.989s-0.486,1.015-0.85,1.377
		c-0.362,0.362-0.806,0.629-1.326,0.799s-1.094,0.255-1.717,0.255c-3.016,0-4.522-1.377-4.522-4.132v-7.973h2.329v7.514
		c0,0.466,0.042,0.859,0.128,1.183c0.085,0.323,0.219,0.584,0.399,0.782c0.181,0.197,0.407,0.34,0.68,0.425
		c0.273,0.085,0.589,0.127,0.952,0.127c0.714,0,1.229-0.198,1.547-0.595c0.317-0.397,0.478-1.037,0.478-1.922V211.721
		L450.568,211.721z"/>
	<path fill="#494949" d="M454.767,211.84c0.262-0.045,0.541-0.088,0.842-0.128s0.602-0.069,0.901-0.093
		c0.299-0.021,0.592-0.04,0.875-0.051c0.283-0.012,0.544-0.018,0.781-0.018c0.556,0,1.104,0.051,1.641,0.153
		c0.539,0.103,1.021,0.278,1.445,0.526c0.426,0.25,0.766,0.593,1.02,1.029c0.257,0.436,0.384,0.983,0.384,1.641
		c0,0.975-0.228,1.768-0.681,2.38s-1.061,1.036-1.817,1.274l0.832,0.527l2.721,4.539h-2.687l-2.702-4.658l-1.226-0.221v4.879h-2.329
		V211.84z M458.336,213.625c-0.237,0-0.473,0.006-0.705,0.018c-0.231,0.01-0.41,0.033-0.535,0.067v3.451h0.986
		c0.646,0,1.161-0.147,1.547-0.442c0.385-0.295,0.578-0.781,0.578-1.462c0-0.51-0.159-0.909-0.477-1.198
		C459.412,213.77,458.949,213.625,458.336,213.625z"/>
	<path fill="#494949" d="M465,211.721h7.056v2.074h-4.726v2.771h4.301v2.074h-4.301v2.906h4.811v2.074H465V211.721z"/>
</g>
<g>
	<path fill="#494949" d="M114.793,212.986h-3.655l-0.901,2.635h-2.329l4.284-11.985h1.717l4.284,11.985h-2.448L114.793,212.986z
		 M111.733,211.116h2.55l-0.884-2.652l-0.357-1.87h-0.085l-0.357,1.887L111.733,211.116z"/>
	<path fill="#494949" d="M126.745,215.133c-0.363,0.26-0.825,0.444-1.386,0.557c-0.561,0.113-1.136,0.168-1.726,0.168
		c-0.714,0-1.391-0.109-2.031-0.33c-0.641-0.221-1.205-0.578-1.691-1.071c-0.488-0.493-0.875-1.133-1.165-1.921
		s-0.434-1.743-0.434-2.865c0-1.167,0.162-2.145,0.484-2.932c0.323-0.788,0.742-1.422,1.258-1.904
		c0.516-0.48,1.09-0.827,1.725-1.037c0.635-0.209,1.27-0.314,1.904-0.314c0.68,0,1.255,0.045,1.726,0.137
		c0.47,0.091,0.858,0.197,1.165,0.322l-0.459,1.973c-0.261-0.125-0.57-0.215-0.927-0.271c-0.357-0.058-0.791-0.086-1.3-0.086
		c-0.941,0-1.698,0.336-2.27,1.006c-0.573,0.67-0.858,1.709-0.858,3.117c0,0.613,0.068,1.174,0.204,1.678
		c0.136,0.506,0.343,0.938,0.621,1.295s0.623,0.637,1.037,0.836c0.414,0.197,0.893,0.298,1.437,0.298c0.51,0,0.94-0.052,1.292-0.153
		c0.351-0.102,0.657-0.232,0.918-0.391L126.745,215.133z"/>
	<path fill="#494949" d="M135.687,215.133c-0.363,0.26-0.825,0.444-1.386,0.557c-0.561,0.113-1.136,0.168-1.726,0.168
		c-0.714,0-1.391-0.109-2.031-0.33c-0.641-0.221-1.205-0.578-1.691-1.071c-0.488-0.493-0.875-1.133-1.165-1.921
		s-0.434-1.743-0.434-2.865c0-1.167,0.162-2.145,0.484-2.932c0.323-0.788,0.742-1.422,1.258-1.904
		c0.516-0.48,1.09-0.827,1.725-1.037c0.635-0.209,1.27-0.314,1.904-0.314c0.68,0,1.255,0.045,1.726,0.137
		c0.47,0.091,0.858,0.197,1.165,0.322l-0.459,1.973c-0.261-0.125-0.57-0.215-0.927-0.271c-0.357-0.058-0.791-0.086-1.3-0.086
		c-0.941,0-1.698,0.336-2.27,1.006c-0.573,0.67-0.858,1.709-0.858,3.117c0,0.613,0.068,1.174,0.204,1.678
		c0.136,0.506,0.343,0.938,0.621,1.295c0.278,0.357,0.623,0.637,1.037,0.836c0.414,0.197,0.893,0.298,1.437,0.298
		c0.51,0,0.94-0.052,1.292-0.153c0.351-0.102,0.657-0.232,0.918-0.391L135.687,215.133z"/>
	<path fill="#494949" d="M137.369,203.721h2.329v11.9h-2.329V203.721L137.369,203.721z"/>
	<path fill="#494949" d="M141.976,203.721c0.238-0.033,0.507-0.062,0.808-0.085c0.3-0.022,0.609-0.04,0.926-0.051
		s0.626-0.021,0.927-0.024c0.3-0.006,0.569-0.009,0.807-0.009c1.054,0,1.955,0.147,2.703,0.442s1.354,0.708,1.819,1.24
		c0.465,0.533,0.805,1.168,1.02,1.904c0.215,0.737,0.323,1.547,0.323,2.432c0,0.805-0.102,1.58-0.306,2.328s-0.544,1.412-1.02,1.99
		c-0.476,0.577-1.102,1.043-1.878,1.394s-1.737,0.526-2.881,0.526c-0.182,0-0.422-0.006-0.723-0.017s-0.612-0.024-0.935-0.042
		c-0.323-0.018-0.632-0.034-0.926-0.051c-0.295-0.018-0.516-0.037-0.663-0.061L141.976,203.721L141.976,203.721z M145.631,205.625
		c-0.249,0-0.501,0.006-0.756,0.018c-0.255,0.01-0.445,0.027-0.569,0.051v7.973c0.045,0.012,0.122,0.02,0.229,0.025
		s0.224,0.012,0.348,0.017c0.125,0.006,0.244,0.012,0.357,0.017c0.113,0.006,0.198,0.008,0.255,0.008
		c0.657,0,1.204-0.115,1.641-0.348c0.436-0.232,0.782-0.541,1.037-0.927c0.255-0.385,0.434-0.83,0.536-1.334
		s0.153-1.022,0.153-1.556c0-0.465-0.045-0.932-0.136-1.402c-0.091-0.471-0.258-0.893-0.501-1.268
		c-0.244-0.373-0.575-0.68-0.995-0.918C146.81,205.744,146.277,205.625,145.631,205.625z"/>
	<path fill="#494949" d="M152.975,203.721h7.055v2.074h-4.726v2.771h4.301v2.074h-4.301v2.906h4.811v2.074h-7.14V203.721z"/>
	<path fill="#494949" d="M164.807,209.416l-0.935-1.87h-0.085l0.272,1.87v6.205h-2.21v-11.985h1.7l4.505,6.341l0.901,1.819h0.085
		l-0.272-1.819v-6.256h2.21v11.985h-1.7L164.807,209.416z"/>
	<path fill="#494949" d="M181.467,205.794h-3.468v9.826h-2.329v-9.826h-3.485v-2.074h9.282V205.794z"/>
</g>
<g>
	<path fill="#494949" d="M210.509,200.721h2.329v11.9h-2.329V200.721z"/>
	<path fill="#494949" d="M218.074,206.416l-0.935-1.87h-0.085l0.272,1.87v6.205h-2.21v-11.985h1.7l4.505,6.341l0.901,1.819h0.085
		l-0.272-1.819v-6.256h2.21v11.985h-1.7L218.074,206.416z"/>
	<path fill="#494949" d="M234.343,212.133c-0.363,0.26-0.825,0.444-1.386,0.557c-0.561,0.113-1.136,0.168-1.726,0.168
		c-0.714,0-1.391-0.109-2.031-0.33c-0.641-0.221-1.205-0.578-1.691-1.071c-0.488-0.493-0.875-1.133-1.165-1.921
		c-0.29-0.788-0.434-1.743-0.434-2.865c0-1.167,0.162-2.145,0.484-2.932c0.323-0.788,0.742-1.422,1.258-1.904
		c0.516-0.48,1.09-0.827,1.725-1.037c0.635-0.209,1.27-0.314,1.904-0.314c0.68,0,1.255,0.045,1.726,0.137
		c0.47,0.091,0.858,0.197,1.165,0.322l-0.459,1.973c-0.261-0.125-0.57-0.215-0.927-0.271c-0.357-0.058-0.791-0.086-1.3-0.086
		c-0.941,0-1.698,0.336-2.27,1.006c-0.573,0.67-0.858,1.709-0.858,3.117c0,0.613,0.068,1.174,0.204,1.678
		c0.136,0.506,0.343,0.938,0.621,1.295c0.278,0.357,0.623,0.637,1.037,0.836c0.414,0.197,0.893,0.298,1.438,0.298
		c0.51,0,0.94-0.052,1.292-0.153c0.351-0.102,0.657-0.232,0.918-0.391L234.343,212.133z"/>
	<path fill="#494949" d="M236.026,200.721h2.329v11.9h-2.329V200.721z"/>
	<path fill="#494949" d="M240.633,200.721c0.238-0.033,0.508-0.062,0.809-0.085c0.3-0.022,0.608-0.04,0.926-0.051
		c0.316-0.011,0.626-0.021,0.927-0.024c0.3-0.006,0.569-0.009,0.808-0.009c1.053,0,1.955,0.147,2.703,0.442
		c0.747,0.295,1.354,0.708,1.818,1.24c0.465,0.533,0.805,1.168,1.02,1.904c0.215,0.737,0.323,1.547,0.323,2.432
		c0,0.805-0.102,1.58-0.306,2.328s-0.544,1.412-1.02,1.99c-0.477,0.577-1.103,1.043-1.879,1.394
		c-0.775,0.351-1.736,0.526-2.881,0.526c-0.182,0-0.422-0.006-0.723-0.017s-0.612-0.024-0.936-0.042
		c-0.322-0.018-0.632-0.034-0.926-0.051c-0.295-0.018-0.516-0.037-0.663-0.061L240.633,200.721L240.633,200.721z M244.288,202.625
		c-0.249,0-0.501,0.006-0.756,0.018c-0.255,0.01-0.445,0.027-0.569,0.051v7.973c0.045,0.012,0.122,0.02,0.229,0.025
		c0.107,0.006,0.225,0.012,0.349,0.017c0.125,0.006,0.244,0.012,0.356,0.017c0.113,0.006,0.199,0.008,0.256,0.008
		c0.656,0,1.203-0.115,1.641-0.348c0.436-0.232,0.782-0.541,1.037-0.927c0.255-0.385,0.434-0.83,0.536-1.334
		c0.102-0.504,0.153-1.022,0.153-1.556c0-0.465-0.045-0.932-0.137-1.402c-0.091-0.471-0.258-0.893-0.501-1.268
		c-0.243-0.373-0.575-0.68-0.995-0.918C245.466,202.744,244.934,202.625,244.288,202.625z"/>
	<path fill="#494949" d="M251.632,200.721h7.056v2.074h-4.727v2.771h4.301v2.074h-4.301v2.906h4.811v2.074h-7.14V200.721z"/>
	<path fill="#494949" d="M263.463,206.416l-0.936-1.87h-0.084l0.271,1.87v6.205h-2.21v-11.985h1.7l4.505,6.341l0.901,1.819h0.084
		l-0.271-1.819v-6.256h2.21v11.985h-1.7L263.463,206.416z"/>
	<path fill="#494949" d="M280.124,202.794h-3.468v9.826h-2.329v-9.826h-3.485v-2.074h9.282V202.794L280.124,202.794z"/>
</g>
<g>
	<path fill="#E4001C" d="M144.595,130.548c16.104,0,29.168,13.076,29.168,29.196c0,16.109-13.063,29.189-29.168,29.189
		c-16.099,0-29.168-13.08-29.168-29.189C115.427,143.624,128.496,130.548,144.595,130.548"/>
	<path fill="#FFFFFF" d="M144.679,136.384c12.883,0,23.336,10.464,23.336,23.36c0,12.89-10.453,23.354-23.336,23.354
		c-12.881,0-23.336-10.465-23.336-23.354C121.343,146.848,131.798,136.384,144.679,136.384"/>
</g>
<g>
	<path fill="#1A1718" d="M132.324,166.843c1.07,0.089,1.865,1.039,1.775,2.122c-0.091,1.084-1.032,1.887-2.104,1.799
		c-1.073-0.091-1.873-1.039-1.782-2.123C130.304,167.557,131.251,166.753,132.324,166.843 M132.446,165.371
		c1.883,0.158,3.28,1.822,3.122,3.716c-0.158,1.894-1.812,3.308-3.695,3.149c-1.882-0.158-3.283-1.825-3.125-3.719
		C128.906,166.623,130.564,165.214,132.446,165.371z"/>
	<path fill="#1A1718" d="M130.307,155.844l-3.434-0.287l-0.407,4.879l7.836,0.655L130.307,155.844 M140.475,169.498
		c-0.023,0.275-0.261,0.477-0.521,0.454l-4.074,0.1l-0.013,0.021c0.103-0.311,0.171-0.618,0.198-0.942
		c0.18-2.155-1.421-4.055-3.579-4.233c-2.159-0.182-4.055,1.425-4.234,3.58c-0.027,0.324-0.014,0.642,0.038,0.963l-0.12,0.012
		l-3.88-0.324l-0.133-0.429l-0.107-0.22l-0.058-0.525l0.131-0.346l0.061-0.279l-0.068-0.398l0.185-0.428l0.277-0.352l-0.21-0.454
		l-0.161-0.302l0.165-0.304l-0.063-0.461l-0.005-0.396l0.247-0.235l0.279-0.328l0.032-0.39l-0.174-0.391l-0.008-0.439l-0.209-0.227
		l-0.082-0.523l0.04-0.477l0.171-0.552l0.243-0.663l-0.099-0.613l-0.022-0.461l0.252-0.5l-0.027-0.688l-0.196-0.369l0.174-0.586
		l0.18-0.471l-0.131-0.385l-0.013-0.604l0.23-0.499l-0.033-0.38l0.398-0.486l3.404,0.284c1.469,0.123,3.06,0.774,4.143,2.031
		l4.993,5.998c0.32,0.383,0.973,0.832,1.447,0.871c0.811,0.067,1.416,0.714,1.354,1.442l-0.328,3.93L140.475,169.498z"/>
</g>
<path fill="#1A1718" d="M152.644,163.561c2.332-0.265,4.437,1.401,4.698,3.727c0.262,2.32-1.42,4.418-3.752,4.682
	c-2.335,0.262-4.442-1.408-4.704-3.729C148.624,165.914,150.309,163.82,152.644,163.561 M152.878,165.646
	c1.164-0.131,2.221,0.711,2.352,1.879c0.132,1.166-0.711,2.219-1.875,2.35c-1.169,0.132-2.223-0.708-2.354-1.874
	C150.869,166.833,151.709,165.777,152.878,165.646z"/>
<path fill="#1A1718" d="M164.487,166.499l-6.752,0.742c-0.287-2.554-2.604-4.388-5.167-4.099c-2.566,0.289-4.413,2.592-4.126,5.146
	l-1.672,0.188l-2.339-6.858l-0.02-0.023c-0.031-0.104-0.057-0.208-0.068-0.314c-0.088-0.776,0.414-1.499,1.178-1.706v0.006
	 M145.521,159.579l0.396-6.42c0.083-1.276,1.059-2.332,2.336-2.476l7.13-0.804c0.583-0.065,1.11,0.345,1.175,0.914
	c0.001,0.008,0.001,0.017,0.002,0.022l0.653,5.803l2.112-0.238l-1.068-9.486c-0.065-0.586,0.353-1.11,0.938-1.178l2.606-0.275
	l-0.041,0.75l0.037,0.332l-0.041,0.382l0.23,0.184l0.068,0.603l0.001,1.131l0.063,0.56l0.33,1.074l-0.136,1.399l0.406,0.625
	l0.094,0.828l-0.108,0.912l0.748,2.913l0.091,0.81l-0.206,0.588l0.414,1.631l-0.016,0.609l0.229,0.918l-0.239,0.656l0.521,1.094
	l0.012,0.67l-0.185,0.774l0.293,0.742l0.119,0.873 M152.916,151.854l0.583,5.186l-6.267,0.705l0.266-4.484
	c0.042-0.527,0.444-0.922,0.935-0.977l4.475-0.504L152.916,151.854z"/>
<polyline fill="#1A1718" points="133.743,146.033 135.993,150.542 135.713,150.688 132.435,145.967 133.6,146.562 133.743,146.033 
	"/>
<polyline fill="#1A1718" points="134.286,153.553 133.935,154.011 128.445,150.102 129.216,149.607 134.286,153.553 "/>
<polyline fill="#1A1718" points="141.233,145.268 141.303,150.307 141.619,150.309 142.365,144.607 141.604,145.672 
	141.233,145.268 "/>
<polyline fill="#1A1718" points="144.455,151.605 144.978,151.854 148.061,145.859 147.15,145.775 144.455,151.605 "/>
<polyline fill="#1A1718" points="150.746,159.527 150.5,158.896 145.605,159.67 145.677,160.023 150.746,159.527 "/>
<polygon fill="#1A1718" points="143.174,159.655 143.567,158.128 142.888,157.834 143.78,155.954 142.011,156.01 142.194,153.835 
	140.678,154.82 140.136,153.48 139.433,154.992 138.568,153.884 138.569,155.4 137.616,155.514 138.613,157.775 137.441,158.188 
	138.26,159.885 138.259,159.911 135.861,157.945 137.677,157.191 135.932,154.398 137.989,154.532 137.471,151.404 139.226,153.573 
	140.366,150.657 140.977,153.557 143.069,152.129 142.72,155.312 145.04,155.087 143.932,157.562 144.899,157.693 143.272,159.454 
	"/>
<polyline fill="#FFFFFF" points="232.138,180.6 217.851,180.6 243.999,134.581 270.389,180.6 232.138,180.6 "/>
<path fill="#E4001C" d="M269.23,183.664c1.373-0.018,2.643-0.752,3.321-1.939c0.687-1.188,0.687-2.656,0-3.843l-25.175-43.589
	c-0.686-1.193-1.952-1.932-3.333-1.932c-1.369,0-2.637,0.731-3.326,1.919l-25.182,43.602c-0.684,1.187-0.684,2.654,0,3.843
	c0.699,1.188,1.972,1.922,3.34,1.922L269.23,183.664"/>
<polygon fill="#FFFFFF" points="221.093,178.516 267.002,178.516 244.045,138.781 "/>
<path fill="#1A1718" d="M243.883,169.47c1.889,0,3.422,1.534,3.422,3.421c0,1.891-1.533,3.422-3.422,3.422
	c-1.887,0-3.419-1.531-3.419-3.422C240.464,171.004,241.996,169.47,243.883,169.47"/>
<path fill="#1A1718" d="M243.395,167.764h1.025l3.833-15.164c0.062-0.303,0.093-0.607,0.093-0.914c0-2.445-1.99-4.435-4.445-4.435
	s-4.445,1.988-4.445,4.435c0,0.307,0.032,0.611,0.095,0.914L243.395,167.764"/>
<g>
	<polyline fill="#FFFFFF" points="313.122,180.316 339.436,133.852 366.361,180.447 313.122,180.316 	"/>
	<path fill="#E4001C" d="M314.384,183.34c-1.422,0.014-2.713-0.711-3.409-1.941c-0.711-1.229-0.711-2.698,0.032-3.928l25.228-43.57
		c0.695-1.18,1.957-1.905,3.33-1.905c1.356,0,2.617,0.728,3.313,1.905l25.294,43.619c0.66,1.197,0.648,2.633-0.032,3.814
		c-0.697,1.213-2.004,1.957-3.414,1.936L314.384,183.34"/>
	<polygon fill="#FFFFFF" points="362.562,178.182 316.551,178.182 339.597,138.411 	"/>
</g>
<path fill="#1A1718" d="M335.718,155.719c0.111,0,0.242,0,0.371,0c0.131,0,0.26,0,0.39,0c0.031,0.031,0.08,0.08,0.129,0.129
	c0.016,0.127,0.033,0.256,0.063,0.389c-0.08,0.08-0.161,0.16-0.258,0.257c-0.113,0.147-0.244,0.293-0.373,0.438
	s-0.258,0.291-0.387,0.452c-0.099,0.242-0.21,0.5-0.324,0.761c0,0.241,0,0.5,0,0.758c0.033,0.274,0.08,0.549,0.131,0.842
	c0.062,0.436,0.129,0.873,0.193,1.326c0.082,0.404,0.16,0.807,0.258,1.211c-0.017,0.063-0.031,0.131-0.062,0.193
	c-0.082,0.178-0.164,0.373-0.26,0.565c-0.129,0.274-0.26,0.551-0.387,0.84c-0.146,0.272-0.292,0.552-0.438,0.824
	c-0.063,0.307-0.13,0.631-0.194,0.957c-0.063,0.207-0.127,0.416-0.192,0.627c-0.019,0.26-0.031,0.516-0.064,0.776
	c-0.695,0.42-1.392,0.84-2.102,1.263c-0.064-0.148-0.13-0.295-0.194-0.438c-0.049-0.065-0.112-0.131-0.179-0.195
	c-0.032-0.03-0.079-0.08-0.126-0.129c-0.1-0.014-0.213-0.03-0.326-0.063c-0.145-0.063-0.291-0.131-0.451-0.192
	c-0.098-0.031-0.192-0.082-0.307-0.13c-0.065-0.079-0.129-0.163-0.194-0.241c-0.064-0.134-0.129-0.261-0.193-0.39
	c-0.129-0.178-0.258-0.373-0.387-0.565c-0.114-0.131-0.244-0.258-0.373-0.388c-0.194-0.065-0.39-0.129-0.582-0.194
	c-0.16,0-0.324,0-0.502,0c-0.16-0.064-0.339-0.129-0.517-0.195c-0.209-0.014-0.422-0.029-0.629-0.062
	c-0.244,0.017-0.502,0.033-0.76,0.062c-2.068,3.719-4.155,7.438-6.24,11.154c4.785,0,9.584,0,14.384,0
	c-0.129-0.615-0.258-1.229-0.389-1.857c-0.159-0.682-0.321-1.359-0.499-2.039c-0.26-0.693-0.518-1.391-0.775-2.1
	c-0.18-0.355-0.372-0.713-0.565-1.082c0.693-0.422,1.389-0.84,2.101-1.262c0.227,0,0.454,0,0.696,0
	c0.127-0.017,0.258-0.031,0.387-0.066c0.178-0.08,0.371-0.16,0.564-0.258c0.1-0.08,0.212-0.16,0.325-0.258
	c0.015-0.066,0.03-0.129,0.062-0.195c0-0.096,0-0.191,0-0.305c0.824-0.535,1.648-1.068,2.488-1.603
	c-0.273,0.629-0.549,1.263-0.84,1.906c0,0.227,0,0.471,0,0.711c-0.05,0.891-0.113,1.776-0.179,2.666
	c-0.063,1.455-0.129,2.926-0.192,4.397c-0.533,0.178-1.068,0.373-1.601,0.566c-0.146,0.08-0.293,0.16-0.438,0.256
	c-0.064,0.018-0.129,0.033-0.193,0.066c0,0.08,0,0.162,0,0.258c0,0.033,0,0.082,0,0.129c0.08,0.016,0.162,0.033,0.26,0.066
	c1.533,0,3.085,0,4.638,0c0.436-2.246,0.889-4.492,1.341-6.756c-0.064,0-0.128,0-0.192,0c0-0.277,0-0.552,0-0.826
	c0.773-1.371,1.566-2.744,2.357-4.135c0.082,0.481,0.163,0.969,0.26,1.471c0.047,0.223,0.113,0.451,0.176,0.69
	c0.099,0.228,0.211,0.455,0.324,0.697c0.148,0.274,0.293,0.551,0.453,0.826c0.098,0.225,0.196,0.465,0.309,0.709
	c0.146,0.176,0.289,0.373,0.452,0.565c0.161,0.16,0.321,0.336,0.501,0.517c0.289,0.243,0.599,0.5,0.905,0.76
	c0.792,0.678,1.602,1.356,2.407,2.035c0.356,0.291,0.712,0.584,1.083,0.891c0.032,0.082,0.081,0.162,0.128,0.261
	c-0.017,0.127-0.031,0.258-0.064,0.387c-0.03,0.098-0.08,0.193-0.129,0.307c-0.062,0.146-0.128,0.293-0.191,0.453
	c-0.339,0.34-0.682,0.68-1.02,1.02c0,0.031,0,0.078,0,0.129c0.531,0,1.066,0,1.602,0c0.111-0.065,0.242-0.129,0.37-0.194
	c0.13-0.031,0.259-0.08,0.387-0.129c0.066-0.13,0.131-0.259,0.195-0.388c0.485-0.793,0.971-1.6,1.473-2.41
	c0.095-0.256,0.192-0.518,0.307-0.774c-0.227-0.08-0.453-0.16-0.695-0.242c-0.131-0.082-0.259-0.161-0.389-0.258
	c-0.096-0.096-0.194-0.209-0.309-0.324c-0.5-0.565-1.017-1.131-1.535-1.713c-0.678-0.774-1.357-1.565-2.037-2.358
	c-0.078,0.063-0.16,0.129-0.258,0.192c-0.146-0.146-0.291-0.291-0.435-0.45c-0.081-0.099-0.161-0.193-0.261-0.308
	c-0.03-0.146-0.081-0.291-0.128-0.453c-0.031-0.356-0.081-0.713-0.131-1.082c-0.031-0.438-0.081-0.891-0.129-1.344
	c-0.113-0.435-0.241-0.871-0.373-1.324c-0.094-0.291-0.207-0.58-0.321-0.889c-0.127-0.341-0.259-0.681-0.39-1.021
	c0.097-0.08,0.213-0.16,0.326-0.258c0.146,0.082,0.291,0.162,0.45,0.258c0.031-0.033,0.065-0.08,0.113-0.125
	c0.128-0.082,0.256-0.164,0.389-0.262c0.098-0.062,0.21-0.129,0.322-0.193c0.082-0.096,0.16-0.209,0.259-0.322
	c0.05-0.049,0.112-0.112,0.178-0.18c-0.017-0.131-0.029-0.258-0.064-0.387c-0.032-0.068-0.062-0.131-0.112-0.195
	c-0.079-0.082-0.162-0.162-0.259-0.256c-0.062-0.035-0.13-0.082-0.192-0.133c-0.08-0.289-0.162-0.58-0.263-0.889
	c-0.062-0.418-0.128-0.84-0.19-1.26c-0.033-0.129-0.064-0.261-0.112-0.388c-0.132-0.309-0.257-0.631-0.39-0.955
	c-0.127-0.291-0.256-0.579-0.389-0.889c-0.111-0.211-0.239-0.418-0.369-0.646c-0.228-0.213-0.47-0.422-0.712-0.633
	c-0.18-0.145-0.374-0.289-0.564-0.453c-0.21-0.047-0.423-0.113-0.649-0.176c-0.225-0.018-0.448-0.033-0.692-0.066
	c-0.229,0-0.453,0-0.695,0c-0.21,0.019-0.418,0.033-0.63,0.066c-0.21,0.047-0.42,0.113-0.646,0.176
	c-0.549,0.197-1.099,0.389-1.649,0.584c-0.354,0.16-0.709,0.322-1.081,0.502c-0.227,0.129-0.47,0.256-0.712,0.387
	c-0.082-0.032-0.162-0.081-0.242-0.131c0-0.063,0-0.127,0-0.192c0,0.019,0,0.033,0,0.065c0.129-0.373,0.063-0.323,0.063-0.696
	c0-1.275-1.083-2.425-2.424-2.425c-1.343,0-2.424,1.148-2.424,2.425c0,1.342,1.081,2.475,2.424,2.475
	c0.064-0.016,0.129-0.032,0.193-0.049C335.767,155.686,335.751,155.703,335.718,155.719"/>
<g>
	<path fill="#1A1718" d="M416.064,183.65c-2.321,0-4.235-1.918-4.235-4.236c0-13.04,0-26.105,0-39.173
		c0-2.319,1.914-4.237,4.235-4.237c16.217,0,32.432,0,48.675,0c2.325,0,4.236,1.918,4.236,4.237c0,13.04,0,26.106,0,39.173
		c0,2.318-1.911,4.236-4.236,4.236C448.522,183.65,432.308,183.65,416.064,183.65"/>
	<path fill="#FFE20B" d="M416.038,181.6c-1.158,0-2.105-0.944-2.105-2.103c0-13.095,0-26.188,0-39.281
		c0-1.161,0.947-2.106,2.105-2.106c16.243,0,32.516,0,48.786,0c1.159,0,2.132,0.945,2.132,2.106c0,13.093,0,26.188,0,39.281
		c0,1.157-0.973,2.103-2.132,2.103C448.577,181.6,432.308,181.6,416.038,181.6"/>
	<polyline fill="#1A1718" points="422.757,176.257 422.757,151.555 419.222,155.091 419.222,149.798 424.51,144.507 
		429.826,149.798 429.826,155.091 426.294,151.555 426.294,176.257 422.757,176.257 	"/>
	<polyline fill="#1A1718" points="438.677,176.257 438.677,151.555 435.143,155.091 435.143,149.798 440.432,144.507 
		445.744,149.798 445.744,155.091 442.212,151.555 442.212,176.257 438.677,176.257 	"/>
	<rect x="450.953" y="157.684" fill="#E4001C" width="10.605" height="5.316"/>
	<rect x="454.486" y="164.107" fill="#1A1718" width="3.59" height="12.148"/>
</g>
<path fill="#FFFFFF" d="M453.63,33.744c2.147,0,4.295,1.24,4.361,6.506c0.065,5.299-1.91,6.91-4.361,6.91
	c-2.448,0-4.428-1.611-4.361-6.91C449.337,34.984,451.481,33.744,453.63,33.744"/>
</svg>
